<?xml version="1.0" standalone="no"?>
<!DOCTYPE svg PUBLIC "-//W3C//DTD SVG 1.1//EN" "http://www.w3.org/Graphics/SVG/1.1/DTD/svg11.dtd" >
<svg xmlns="http://www.w3.org/2000/svg" xmlns:xlink="http://www.w3.org/1999/xlink" version="1.1">
<metadata>
Created by FontForge 20201107 at Sat May 30 09:13:17 2020
 By 
Copyright (c) 2020 by Stawix Chomvachara. All rights reserved.
</metadata>
<defs>
<font id="Cobe-ExtraBold" horiz-adv-x="0" >
  <font-face 
    font-family="Cobe-ExtraBold"
    font-weight="400"
    font-stretch="normal"
    units-per-em="1000"
    panose-1="2 11 0 3 4 1 2 8 1 3"
    ascent="775"
    descent="-225"
    x-height="485"
    cap-height="680"
    bbox="-627 -362 1418 1123"
    underline-thickness="70"
    underline-position="-120"
    unicode-range="U+000D-FEFF"
  />
<missing-glyph horiz-adv-x="518" 
d="M30 0v680h458v-680h-458zM95 642l164 -268l165 268h-329zM238 340l-168 271v-542zM280 340l169 -271v542zM259 307l-164 -269h329z" />
    <glyph glyph-name="f_f" unicode="ff" horiz-adv-x="761" 
d="M660 565q-35 0 -48 -13.5t-13 -50.5v-16h144v-118h-144v-367h-146v367h-209v-367h-146v367h-91v118h91v28q0 97 36.5 132t136.5 35h110v-115h-76q-35 0 -48 -13.5t-13 -50.5v-16h209v28q0 97 36.5 132t136.5 35h123v-115h-89z" />
    <glyph glyph-name="fi" unicode="fi" horiz-adv-x="646" 
d="M271 680h328v-115h-294q-35 0 -48 -13.5t-13 -50.5v-16h144v-118h-144v-367h-146v367h-91v118h91v28q0 97 36.5 132t136.5 35zM453 0v485h146v-485h-146z" />
    <glyph glyph-name="fl" unicode="fl" horiz-adv-x="646" 
d="M98 513q0 97 36.5 132t136.5 35h123v-115h-89q-35 0 -48 -13.5t-13 -50.5v-16h144v-118h-144v-367h-146v367h-91v118h91v28zM453 680h146v-680h-146v680z" />
    <glyph glyph-name="f_f_i" unicode="ffi" horiz-adv-x="1001" 
d="M626 680h328v-115h-294q-35 0 -48 -13.5t-13 -50.5v-16h144v-118h-144v-367h-146v367h-209v-367h-146v367h-91v118h91v28q0 97 36.5 132t136.5 35h110v-115h-76q-35 0 -48 -13.5t-13 -50.5v-16h209v28q0 97 36.5 132t136.5 35zM808 0v485h146v-485h-146z" />
    <glyph glyph-name="f_f_l" unicode="ffl" horiz-adv-x="1001" 
d="M453 513q0 97 36.5 132t136.5 35h123v-115h-89q-35 0 -48 -13.5t-13 -50.5v-16h144v-118h-144v-367h-146v367h-209v-367h-146v367h-91v118h91v28q0 97 36.5 132t136.5 35h110v-115h-76q-35 0 -48 -13.5t-13 -50.5v-16h209v28zM808 680h146v-680h-146v680z" />
    <glyph glyph-name=".notdef" horiz-adv-x="518" 
d="M30 0v680h458v-680h-458zM95 642l164 -268l165 268h-329zM238 340l-168 271v-542zM280 340l169 -271v542zM259 307l-164 -269h329z" />
    <glyph glyph-name=".null" 
 />
    <glyph glyph-name="uni000D" horiz-adv-x="333" 
 />
    <glyph glyph-name="uni000D.1" unicode="&#xd;" horiz-adv-x="500" 
 />
    <glyph glyph-name="space" unicode=" " horiz-adv-x="174" 
 />
    <glyph glyph-name="exclam" unicode="!" horiz-adv-x="265" 
d="M56 680h153l-11 -458h-131zM59 144h148v-144h-148v144z" />
    <glyph glyph-name="quotedbl" unicode="&#x22;" horiz-adv-x="398" 
d="M229 680h131l-16 -266h-99zM38 680h131l-16 -266h-99z" />
    <glyph glyph-name="numbersign" unicode="#" horiz-adv-x="630" 
d="M37 282h92l16 116h-92l15 109h92l24 173h120l-24 -173h116l24 173h120l-24 -173h92l-15 -109h-92l-16 -116h92l-15 -109h-92l-24 -173h-120l24 173h-116l-24 -173h-120l24 173h-92zM249 282h116l16 116h-116z" />
    <glyph glyph-name="dollar" unicode="$" horiz-adv-x="630" 
d="M83 630q51 44 170 49v81h123v-82q114 -8 160 -54t48 -149h-144q-1 47 -28.5 64t-109.5 17q-73 0 -99 -15t-26 -57q0 -50 29 -61.5t140 -17.5q78 -4 121.5 -12t76 -28.5t44 -55.5t11.5 -94v-23q0 -98 -51 -141.5t-172 -49.5v-81h-123v81q-122 7 -170 54t-50 154h143
q1 -49 30 -67t115 -18q77 0 104.5 15.5t27.5 57.5q0 47 -29.5 60.5t-132.5 18.5q-152 6 -206 42t-54 149v23q0 96 52 140z" />
    <glyph glyph-name="percent" unicode="%" horiz-adv-x="968" 
d="M26 505q0 100 38.5 140.5t132.5 40.5h18q94 0 132.5 -40.5t38.5 -140.5v-20q0 -100 -38.5 -141t-132.5 -41h-18q-94 0 -132.5 41t-38.5 141v20zM621 337q38 40 132 40h18q94 0 132.5 -40.5t38.5 -140.5v-20q0 -100 -38.5 -140.5t-132.5 -40.5h-18q-94 0 -132.5 40.5
t-38.5 140.5v20q0 100 39 141zM219 0l418 680h112l-419 -680h-111zM687 186q1 -66 15.5 -86t59.5 -20t59.5 20t15.5 86v8q0 58 -14 78q-15 20 -61 20t-60.5 -20t-14.5 -78v-8zM131 495q1 -66 15.5 -86t59.5 -20t59 20t15 86v8q0 58 -13 78q-15 20 -61 20t-60.5 -20
t-14.5 -78v-8z" />
    <glyph glyph-name="ampersand" unicode="&#x26;" horiz-adv-x="719" 
d="M169 400q-46 52 -46 106v19q0 86 50.5 124t166.5 38h22q113 0 162.5 -48.5t52.5 -162.5h-145q-2 49 -19 67.5t-62 18.5t-61.5 -12.5t-16.5 -43.5q0 -22 10.5 -38t38.5 -40l194 -160v85h130v-115q0 -40 -7 -71l90 -74l-79 -93l-71 58q-73 -65 -221 -65h-24q-154 0 -224 49
t-70 156v20q0 159 129 182zM223 141q34 -21 118 -21q94 0 132 25l-201 165q-46 -7 -65 -30t-19 -66q0 -53 35 -73z" />
    <glyph glyph-name="quotesingle" unicode="'" horiz-adv-x="207" 
d="M54 414l-16 266h131l-16 -266h-99z" />
    <glyph glyph-name="parenleft" unicode="(" horiz-adv-x="346" 
d="M54 223v44q0 95 4.5 159.5t18 113t31.5 75.5t50.5 43.5t69.5 21.5t95 5v-121q-36 0 -55.5 -6t-36 -22t-23.5 -53.5t-10.5 -92t-3.5 -145.5t3.5 -145.5t10.5 -92t23.5 -53.5t36 -22t55.5 -6v-121q-58 0 -95 5t-69.5 21.5t-50.5 43.5t-31.5 75.5t-18 113t-4.5 159.5z" />
    <glyph glyph-name="parenright" unicode=")" horiz-adv-x="346" 
d="M71 -71q17 3 33.5 15t24 32t13.5 57.5t8 86.5t2 125t-2 125t-8 86.5t-13.5 57.5t-24 32t-34 15t-46.5 3v121q57 0 94 -5t70 -21.5t51 -43.5t31.5 -75t18 -113t4.5 -160v-44q0 -95 -4.5 -160t-18 -113t-31.5 -75t-51 -43.5t-70 -21.5t-94 -5v121q29 0 47 3z" />
    <glyph glyph-name="asterisk" unicode="*" horiz-adv-x="547" 
d="M223 680h101l1 -144l136 44l33 -97l-139 -44l85 -120l-82 -59l-84 117l-85 -117l-81 59l84 120l-138 44l32 97l136 -44z" />
    <glyph glyph-name="plus" unicode="+" horiz-adv-x="630" 
d="M67 313h184v178h129v-178h183v-127h-183v-178h-129v178h-184v127z" />
    <glyph glyph-name="comma" unicode="," horiz-adv-x="227" 
d="M36 -132v71h22q42 0 42 43v18h-60v144h148v-163q0 -113 -119 -113h-33z" />
    <glyph glyph-name="hyphen" unicode="-" horiz-adv-x="337" 
d="M303 306v-127h-269v127h269z" />
    <glyph glyph-name="period" unicode="." horiz-adv-x="227" 
d="M40 144h148v-144h-148v144z" />
    <glyph glyph-name="slash" unicode="/" horiz-adv-x="583" 
d="M433 680h126l-409 -680h-126z" />
    <glyph glyph-name="zero" unicode="0" horiz-adv-x="686" 
d="M42 326v28q0 187 63.5 260t225.5 73h24q162 0 225.5 -73t63.5 -260v-28q0 -188 -63.5 -261t-225.5 -73h-24q-162 0 -225.5 73t-63.5 261zM200 340q0 -92 11.5 -135.5t40.5 -60.5t91 -17q90 0 117 40t27 173t-27 172.5t-117 39.5q-62 0 -91 -16.5t-40.5 -60t-11.5 -135.5z
" />
    <glyph glyph-name="one" unicode="1" horiz-adv-x="554" 
d="M247 680h186v-680h-155v510l-132 -127l-102 103z" />
    <glyph glyph-name="two" unicode="2" horiz-adv-x="644" 
d="M106 634q57 53 202 53h23q146 0 204.5 -45.5t58.5 -158.5v-25q0 -102 -50.5 -145.5t-188.5 -68.5q-99 -18 -126 -33t-27 -59v-20h394v-132h-548v162q0 100 49 142t191 62q93 13 121.5 32.5t28.5 72.5q0 50 -24.5 67t-93.5 17q-70 0 -95 -23t-27 -90h-151q1 138 59 192z
" />
    <glyph glyph-name="three" unicode="3" horiz-adv-x="649" 
d="M36 207h154q2 -48 27.5 -65.5t101.5 -17.5q75 0 101.5 16.5t26.5 62.5q0 47 -22 63.5t-85 16.5h-91v124h89q56 0 75.5 15t19.5 57q0 45 -24.5 61t-93.5 16q-66 0 -91 -16.5t-26 -62.5h-153q1 116 59.5 163t199.5 47h22q142 0 203 -44.5t61 -148.5v-22q0 -94 -72 -120
q85 -24 85 -141v-22q0 -105 -63.5 -150.5t-209.5 -45.5h-22q-150 0 -210 48t-62 166z" />
    <glyph glyph-name="four" unicode="4" horiz-adv-x="639" 
d="M25 265l299 415h213v-433h83v-131h-83v-116h-155v116h-357v149zM176 247h206v286z" />
    <glyph glyph-name="five" unicode="5" horiz-adv-x="636" 
d="M46 207h154q1 -48 26.5 -65.5t91.5 -17.5q71 0 96.5 21t25.5 80q0 60 -25.5 80.5t-96.5 20.5q-57 0 -84.5 -10.5t-32.5 -35.5h-149v400h514v-132h-359v-119q43 24 112 24h23q137 0 195.5 -50t58.5 -166v-27q0 -118 -61.5 -167.5t-205.5 -49.5h-22q-140 0 -200 48t-61 166
z" />
    <glyph glyph-name="six" unicode="6" horiz-adv-x="642" 
d="M102 614q59 73 213 73h24q140 0 200 -46.5t62 -155.5h-154q-2 40 -26 55.5t-87 15.5q-81 0 -107.5 -30.5t-29.5 -133.5q44 35 136 35h26q132 0 189.5 -47.5t57.5 -154.5v-24q0 -111 -61.5 -159.5t-203.5 -48.5h-24q-156 0 -215.5 71.5t-59.5 258.5v27q0 191 60 264z
M204 213q0 -50 27.5 -70t97.5 -20q73 0 99 19t26 71t-26 71t-99 19q-71 0 -98 -19.5t-27 -70.5z" />
    <glyph glyph-name="seven" unicode="7" horiz-adv-x="598" 
d="M33 680h528v-156l-296 -524h-176l311 545h-367v135z" />
    <glyph glyph-name="eight" unicode="8" horiz-adv-x="655" 
d="M42 185v23q0 118 89 143q-77 27 -77 125v22q0 102 60 145.5t203 43.5h21q143 0 203 -43.5t60 -145.5v-22q0 -98 -77 -125q89 -26 89 -143v-23q0 -102 -64 -147t-210 -45h-23q-147 0 -210.5 45t-63.5 147zM198 202q0 -45 27.5 -61.5t101.5 -16.5q75 0 102.5 16.5
t27.5 61.5q0 48 -25.5 65t-104.5 17q-78 0 -103.5 -17t-25.5 -65zM211 482q0 -44 23 -60.5t93 -16.5t93.5 16.5t23.5 60.5q0 43 -25 59q-25 15 -92 15t-91.5 -15.5t-24.5 -58.5z" />
    <glyph glyph-name="nine" unicode="9" horiz-adv-x="642" 
d="M36 455v24q0 111 61.5 159.5t203.5 48.5h24q156 0 215.5 -71.5t59.5 -258.5v-27q0 -191 -59.5 -264t-213.5 -73h-24q-140 0 -200 46.5t-62 155.5h154q2 -40 26 -55.5t87 -15.5q81 0 107.5 30.5t29.5 133.5q-44 -35 -136 -35h-26q-132 0 -189.5 47.5t-57.5 154.5zM214 396
q26 -19 99 -19q71 0 98 19.5t27 70.5q0 50 -27.5 70t-97.5 20q-73 0 -99 -19t-26 -71t26 -71z" />
    <glyph glyph-name="colon" unicode=":" horiz-adv-x="239" 
d="M46 485h148v-144h-148v144zM194 144v-144h-148v144h148z" />
    <glyph glyph-name="semicolon" unicode=";" horiz-adv-x="239" 
d="M42 -61h22q42 0 42 43v18h-60v144h148v-163q0 -113 -119 -113h-33v71zM46 485h148v-144h-148v144z" />
    <glyph glyph-name="less" unicode="&#x3c;" horiz-adv-x="630" 
d="M525 524v-140l-282 -134l282 -135v-140l-438 215v119z" />
    <glyph glyph-name="equal" unicode="=" horiz-adv-x="630" 
d="M74 405h483v-121h-483v121zM557 201v-121h-483v121h483z" />
    <glyph glyph-name="greater" unicode="&#x3e;" horiz-adv-x="630" 
d="M387 243l-282 134v140l438 -215v-119l-438 -215v140z" />
    <glyph glyph-name="question" unicode="?" horiz-adv-x="619" 
d="M96 631q63 56 197 56h25q136 0 200 -55t64 -172v-24q0 -117 -65 -172t-200 -55h-85v130h72q72 0 99.5 23.5t27.5 85.5t-27 85.5t-98 23.5t-98 -22t-28 -82h-148q1 121 64 178zM232 0v144h148v-144h-148z" />
    <glyph glyph-name="at" unicode="@" horiz-adv-x="796" 
d="M42 205v27q0 171 81 247t263 76h26q181 0 262.5 -73.5t81.5 -236.5v-27q0 -180 -143 -180q-82 0 -107 47q-41 -47 -114 -47h-7q-90 0 -131 41t-41 130v17q0 90 42 131t133 41h16q92 0 134 -37.5t42 -121.5v-53q0 -42 9 -58.5t33 -16.5q27 0 40 25.5t13 95.5
q0 140 -61 195.5t-215 55.5q-153 0 -214 -58t-62 -206q1 -148 62 -206t214 -58h181v-73h-194q-182 0 -263 76.5t-81 246.5zM335 145q15 -19 58 -19q46 0 63.5 20t17.5 70v6q-1 52 -17 70t-61 18t-60.5 -19t-15.5 -73q0 -55 15 -73z" />
    <glyph glyph-name="A" unicode="A" horiz-adv-x="710" 
d="M1 0l241 680h227l240 -680h-163l-39 115h-301l-39 -115h-166zM250 247h213l-98 296h-17z" />
    <glyph glyph-name="B" unicode="B" horiz-adv-x="699" 
d="M54 680h354q127 0 178 -41t51 -145v-21q0 -44 -18.5 -77t-53.5 -47q93 -24 93 -140v-21q0 -105 -53.5 -146.5t-185.5 -41.5h-365v680zM211 130h191q59 0 79 15t20 60q0 47 -20 62.5t-81 15.5h-189v-153zM211 405h173q57 0 76.5 15t19.5 59q0 42 -19 56.5t-75 14.5h-175
v-145z" />
    <glyph glyph-name="C" unicode="C" horiz-adv-x="722" 
d="M40 326v28q0 179 74 256t245 77h26q157 0 227.5 -58.5t71.5 -192.5h-157q-1 64 -37 89t-118 25q-101 0 -136.5 -43.5t-35.5 -166.5t35.5 -166.5t136.5 -43.5q83 0 119 25.5t37 91.5h156q-1 -135 -71.5 -194.5t-227.5 -59.5h-26q-171 0 -245 77t-74 256z" />
    <glyph glyph-name="D" unicode="D" horiz-adv-x="727" 
d="M54 0v680h309q174 0 248.5 -74.5t74.5 -251.5v-28q0 -177 -74.5 -251.5t-248.5 -74.5h-309zM351 137q104 0 140 40.5t36 162.5t-36 162.5t-140 40.5h-140v-406h140z" />
    <glyph glyph-name="E" unicode="E" horiz-adv-x="614" 
d="M54 0v680h515v-130h-358v-142h342v-128h-342v-150h361v-130h-518z" />
    <glyph glyph-name="F" unicode="F" horiz-adv-x="600" 
d="M561 680v-134h-350v-162h331v-134h-331v-250h-157v680h507z" />
    <glyph glyph-name="G" unicode="G" horiz-adv-x="746" 
d="M115 610q75 77 250 77h26q157 0 228.5 -55.5t75.5 -180.5h-158q-2 58 -38.5 81.5t-120.5 23.5q-104 0 -141 -44.5t-37 -171.5q0 -128 38 -172t149 -44q89 0 125 23t37 85h-169v121h318v-128q0 -122 -75 -177t-233 -55h-25q-175 0 -250 77t-75 256v28q0 179 75 256z" />
    <glyph glyph-name="H" unicode="H" horiz-adv-x="733" 
d="M54 0v680h156v-268h313v268h156v-680h-156v278h-313v-278h-156z" />
    <glyph glyph-name="I" unicode="I" horiz-adv-x="265" 
d="M210 0h-156v680h156v-680z" />
    <glyph glyph-name="J" unicode="J" horiz-adv-x="637" 
d="M25 255h157v-17q0 -63 25 -85.5t98 -22.5t99 24.5t26 92.5v433h156v-456q0 -119 -64.5 -175t-205.5 -56h-25q-141 0 -203.5 55.5t-62.5 175.5v31z" />
    <glyph glyph-name="K" unicode="K" horiz-adv-x="689" 
d="M54 0v680h156v-266h53l229 266h192l-292 -336l296 -344h-192l-234 277h-52v-277h-156z" />
    <glyph glyph-name="L" unicode="L" horiz-adv-x="572" 
d="M210 134h349v-134h-505v680h156v-546z" />
    <glyph glyph-name="M" unicode="M" horiz-adv-x="897" 
d="M54 0v680h243l152 -343l151 343h243v-680h-154v541l-153 -344h-176l-153 344v-541h-153z" />
    <glyph glyph-name="N" unicode="N" horiz-adv-x="766" 
d="M54 680h245l260 -528v528h154v-680h-245l-261 530v-530h-153v680z" />
    <glyph glyph-name="O" unicode="O" horiz-adv-x="750" 
d="M40 326v28q0 179 75 256t247 77h26q173 0 247.5 -77t74.5 -256v-28q0 -179 -74.5 -256t-247.5 -77h-26q-172 0 -247 77t-75 256zM237 172q36 -45 138 -45t139 44.5t37 168.5t-37 169q-37 44 -139 44t-138.5 -44.5t-36.5 -168.5t37 -168z" />
    <glyph glyph-name="P" unicode="P" horiz-adv-x="677" 
d="M54 680h333q135 0 194 -53t59 -173v-22q0 -119 -59 -172t-194 -53h-177v-207h-156v680zM210 339h157q70 0 92.5 20.5t22.5 83.5t-22.5 83.5t-92.5 20.5h-157v-208z" />
    <glyph glyph-name="Q" unicode="Q" horiz-adv-x="753" 
d="M115 610q75 77 247 77h26q173 0 247.5 -77t74.5 -256v-28q0 -124 -45 -202l56 -44l-73 -87l-61 49q-76 -49 -199 -49h-26q-172 0 -247 77t-75 256v28q0 179 75 256zM237 172q36 -45 138 -45q54 0 90 12l-113 91l73 86l114 -91q12 45 12 115q0 124 -37 168.5t-139 44.5
t-138.5 -44.5t-36.5 -168.5t37 -168z" />
    <glyph glyph-name="R" unicode="R" horiz-adv-x="688" 
d="M54 0v680h338q135 0 194 -50t59 -162v-22q0 -132 -100 -161q53 -11 74.5 -43.5t21.5 -91.5v-150h-157v123q0 56 -25 79t-85 23h-164v-225h-156zM210 352h162q70 0 92 18.5t22 79.5q0 62 -22 80.5t-92 18.5h-162v-197z" />
    <glyph glyph-name="S" unicode="S" horiz-adv-x="676" 
d="M102 643q63 44 212 44h23q160 0 221 -45.5t63 -164.5h-154q-1 49 -29 66t-114 17q-76 0 -103 -15.5t-27 -57.5q0 -50 30.5 -62t145.5 -18q82 -4 128.5 -12t80.5 -29.5t46 -57.5t12 -96v-23q0 -108 -64 -152t-219 -44h-23q-164 0 -226.5 46.5t-64.5 167.5h154
q1 -51 30.5 -69t118.5 -18q81 0 109.5 15.5t28.5 58.5q0 48 -30.5 61.5t-138.5 18.5q-160 6 -217 43.5t-57 152.5v23q0 106 64 150z" />
    <glyph glyph-name="T" unicode="T" horiz-adv-x="598" 
d="M14 680h570v-134h-207v-546h-156v546h-207v134z" />
    <glyph glyph-name="U" unicode="U" horiz-adv-x="726" 
d="M208 680v-414q0 -80 32 -108t123 -28t123 28t32 108v414h156v-437q0 -133 -70 -191.5t-228 -58.5h-26q-158 0 -228 58.5t-70 191.5v437h156z" />
    <glyph glyph-name="V" unicode="V" horiz-adv-x="702" 
d="M1 680h169l178 -543h4l178 543h170l-237 -680h-225z" />
    <glyph glyph-name="W" unicode="W" horiz-adv-x="1105" 
d="M8 680h164l133 -539l136 539h224l136 -539l133 539h162l-181 -680h-221l-142 517l-141 -517h-221z" />
    <glyph glyph-name="X" unicode="X" horiz-adv-x="698" 
d="M254 338l-248 342h188l158 -227l156 227h184l-248 -332l253 -348h-188l-163 234l-161 -234h-184z" />
    <glyph glyph-name="Y" unicode="Y" horiz-adv-x="693" 
d="M177 680l172 -286l171 286h171l-266 -431v-249h-156v247l-267 433h175z" />
    <glyph glyph-name="Z" unicode="Z" horiz-adv-x="665" 
d="M225 134h399v-134h-585v148l396 398h-389v134h575v-148z" />
    <glyph glyph-name="bracketleft" unicode="[" horiz-adv-x="325" 
d="M61 -190v870h241v-121h-102v-628h102v-121h-241z" />
    <glyph glyph-name="backslash" unicode="\" horiz-adv-x="583" 
d="M433 0l-409 680h126l409 -680h-126z" />
    <glyph glyph-name="bracketright" unicode="]" horiz-adv-x="325" 
d="M265 680v-870h-241v121h101v628h-101v121h241z" />
    <glyph glyph-name="asciicircum" unicode="^" horiz-adv-x="630" 
d="M71 368l154 312h180l154 -312h-143l-101 209l-101 -209h-143z" />
    <glyph glyph-name="underscore" unicode="_" horiz-adv-x="446" 
d="M446 -50v-108h-446v108h446z" />
    <glyph glyph-name="grave" unicode="`" horiz-adv-x="500" 
d="M308 595l-31 -65l-211 80l47 101z" />
    <glyph glyph-name="a" unicode="a" horiz-adv-x="595" 
d="M93 436q58 56 188 56h22q130 0 188.5 -52t58.5 -168v-272h-138v45q-42 -51 -142 -51h-10q-119 0 -172.5 56.5t-53.5 181.5v22q0 125 59 182zM204 141q21 -26 83 -26q67 0 91.5 28t24.5 106q0 72 -23 96.5t-88 24.5t-87.5 -25.5t-22.5 -101.5t22 -102z" />
    <glyph glyph-name="b" unicode="b" horiz-adv-x="595" 
d="M191 680v-220q44 31 131 31h11q119 0 173.5 -56.5t54.5 -180.5v-22q0 -126 -58.5 -182.5t-187.5 -56.5h-22q-130 0 -189 53t-59 171v463h146zM215 141q23 -26 89 -26q65 0 87.5 26t22.5 102q0 75 -22 101t-85 26q-67 0 -91 -27t-24 -103q0 -74 23 -99z" />
    <glyph glyph-name="c" unicode="c" horiz-adv-x="568" 
d="M34 232v22q0 125 59 181.5t188 56.5h21q121 0 176.5 -46t56.5 -150h-144q-1 40 -23 55.5t-76 15.5q-65 0 -87.5 -25t-22.5 -99q0 -75 22.5 -100t87.5 -25q54 0 76.5 16.5t22.5 58.5h144q-1 -105 -56.5 -152.5t-176.5 -47.5h-21q-129 0 -188 56.5t-59 182.5z" />
    <glyph glyph-name="d" unicode="d" horiz-adv-x="595" 
d="M34 232v22q0 124 54.5 180.5t174.5 56.5h10q86 0 131 -30v219h146v-463q0 -118 -58.5 -171t-188.5 -53h-22q-130 0 -188.5 56.5t-58.5 182.5zM205 141q22 -26 87 -26t88 25.5t23 99.5q0 76 -24 103t-90 27q-64 0 -85.5 -25.5t-21.5 -101.5t23 -102z" />
    <glyph glyph-name="e" unicode="e" horiz-adv-x="576" 
d="M34 232v22q0 125 59 181.5t189 56.5h22q124 0 180.5 -59.5t56.5 -189.5v-43h-365q5 -59 30.5 -80t92.5 -21q54 0 76.5 12.5t23.5 45.5h141q-1 -85 -57 -124.5t-175 -39.5h-22q-133 0 -192.5 56.5t-59.5 182.5zM177 295h225q-5 50 -28 70t-80 20q-59 0 -84.5 -19
t-32.5 -71z" />
    <glyph glyph-name="f" unicode="f" horiz-adv-x="406" 
d="M7 485h91v28q0 97 36.5 132t136.5 35h123v-115h-89q-35 0 -48 -13.5t-13 -50.5v-16h144v-118h-144v-367h-146v367h-91v118z" />
    <glyph glyph-name="g" unicode="g" horiz-adv-x="587" 
d="M93 438q58 54 184 54h22q125 0 184 -54.5t59 -166.5v-244q0 -126 -54.5 -175t-191.5 -49h-22q-121 0 -174 39.5t-55 127.5h144q1 -33 23.5 -46t76.5 -13q68 0 88.5 19.5t20.5 79.5v37q-45 -30 -130 -30h-10q-116 0 -170 54.5t-54 171.5v22q0 118 59 173zM182 252
q0 -70 21 -94.5t82 -24.5q63 0 86.5 26.5t23.5 95.5q0 68 -22.5 92t-84.5 24t-84 -24.5t-22 -94.5z" />
    <glyph glyph-name="h" unicode="h" horiz-adv-x="587" 
d="M192 680v-217q46 28 126 28h10q114 0 164.5 -47t50.5 -152v-292h-146v269q0 59 -21.5 80t-79.5 21q-59 0 -81.5 -22t-22.5 -81v-267h-146v680h146z" />
    <glyph glyph-name="i" unicode="i" horiz-adv-x="240" 
d="M193 485v-485h-146v485h146zM47 680h146v-125h-146v125z" />
    <glyph glyph-name="j" unicode="j" horiz-adv-x="240" 
d="M7 -66q24 0 32 8.5t8 37.5v505h146v-523q0 -93 -31.5 -125t-115.5 -32q-52 0 -77 5v126q20 -2 38 -2zM47 555v125h146v-125h-146z" />
    <glyph glyph-name="k" unicode="k" horiz-adv-x="561" 
d="M47 0v680h146v-361h34l145 166h179l-210 -234l219 -251h-179l-156 183h-32v-183h-146z" />
    <glyph glyph-name="l" unicode="l" horiz-adv-x="240" 
d="M47 680h146v-680h-146v680z" />
    <glyph glyph-name="m" unicode="m" horiz-adv-x="914" 
d="M100 446q54 46 174 46h20q110 0 163 -51q53 51 162 51h21q119 0 174 -46t55 -148v-298h-146v274q0 55 -21 75.5t-75 20.5t-75.5 -21.5t-21.5 -76.5v-272h-146v272q0 56 -21 77t-76 21q-54 0 -75 -20.5t-21 -75.5v-274h-146v298q0 102 55 148z" />
    <glyph glyph-name="n" unicode="n" horiz-adv-x="587" 
d="M45 292q0 106 56 153t182 47h22q125 0 181 -47t56 -153v-292h-146v269q0 59 -21.5 80t-80.5 21q-60 0 -81.5 -21t-21.5 -80v-269h-146v292z" />
    <glyph glyph-name="o" unicode="o" horiz-adv-x="586" 
d="M34 232v22q0 125 59 181.5t189 56.5h22q130 0 189 -56.5t59 -181.5v-22q0 -126 -59 -182.5t-189 -56.5h-22q-130 0 -189 56.5t-59 182.5zM205 141q22 -26 88 -26t88.5 26t22.5 102t-22 102q-23 25 -89 25t-88.5 -26t-22.5 -101q0 -76 23 -102z" />
    <glyph glyph-name="p" unicode="p" horiz-adv-x="595" 
d="M45 268q0 118 59 171t189 53h22q129 0 187.5 -56.5t58.5 -181.5v-22q0 -125 -54.5 -181.5t-173.5 -56.5h-11q-87 0 -131 31v-215h-146v458zM192 245q0 -76 24 -103t91 -27q63 0 85 26t22 102t-22.5 101.5t-87.5 25.5q-66 0 -89 -25.5t-23 -99.5z" />
    <glyph glyph-name="q" unicode="q" horiz-adv-x="595" 
d="M93 436q58 56 188 56h22q130 0 188.5 -53t58.5 -171v-458h-146v214q-45 -30 -131 -30h-10q-120 0 -174.5 56.5t-54.5 181.5v22q0 125 59 182zM204 141q21 -26 85 -26q66 0 90 27t24 103q0 74 -23 99.5t-88 25.5t-87.5 -25.5t-22.5 -101.5t22 -102z" />
    <glyph glyph-name="r" unicode="r" horiz-adv-x="511" 
d="M45 0v294q0 107 50.5 152.5t170.5 45.5h21q114 0 160 -45t46 -147v-4h-142q0 44 -15 59t-59 15q-51 0 -68.5 -20t-17.5 -79v-271h-146z" />
    <glyph glyph-name="s" unicode="s" horiz-adv-x="555" 
d="M37 151h141q1 -31 21 -41t79 -10q56 0 75.5 8t19.5 33q0 28 -23.5 37.5t-103.5 10.5q-119 2 -163.5 30.5t-44.5 110.5v22q0 76 52 108t175 32h21q123 0 170.5 -36t49.5 -121h-141q-2 30 -21 40.5t-75 10.5q-53 0 -70.5 -8t-17.5 -33q0 -27 23 -35.5t99 -9.5
q122 -2 167.5 -30.5t45.5 -113.5v-22q0 -77 -53 -109t-179 -32h-21q-127 0 -175.5 35.5t-50.5 122.5z" />
    <glyph glyph-name="t" unicode="t" horiz-adv-x="503" 
d="M104 485v115h139v-115h220v-118h-220v-173q0 -42 11 -56.5t40 -14.5q24 0 33 11.5t9 34.5q0 12 -2 26h140q5 -32 5 -54q0 -70 -44 -107.5t-130 -37.5h-23q-102 0 -144 41.5t-42 142.5v187h-91v118h99z" />
    <glyph glyph-name="u" unicode="u" horiz-adv-x="582" 
d="M191 485v-269q0 -58 21 -79.5t79 -21.5q57 0 78.5 21.5t21.5 79.5v269h146v-292q0 -106 -55.5 -153.5t-179.5 -47.5h-22q-124 0 -179.5 47.5t-55.5 153.5v292h146z" />
    <glyph glyph-name="v" unicode="v" horiz-adv-x="566" 
d="M2 485h164l114 -350h11l113 350h159l-177 -485h-207z" />
    <glyph glyph-name="w" unicode="w" horiz-adv-x="866" 
d="M6 485h154l83 -349h6l88 349h196l88 -349h6l83 349h150l-130 -485h-207l-90 341l-90 -341h-208z" />
    <glyph glyph-name="x" unicode="x" horiz-adv-x="561" 
d="M192 241l-184 244h171l105 -146l100 146h169l-184 -233l189 -252h-170l-110 153l-107 -153h-168z" />
    <glyph glyph-name="y" unicode="y" horiz-adv-x="587" 
d="M165 485l122 -350h13l126 350h159l-186 -499q-21 -56 -37.5 -86t-43.5 -54.5t-64 -33t-96 -8.5q-49 0 -80 6v122q28 -3 60 -3q51 0 73.5 14t39.5 57h-63l-187 485h164z" />
    <glyph glyph-name="z" unicode="z" horiz-adv-x="516" 
d="M212 119h272v-119h-454v132l272 235h-263v118h443v-132z" />
    <glyph glyph-name="braceleft" unicode="{" horiz-adv-x="365" 
d="M34 185v121q33 0 47.5 17t14.5 57v91q0 128 49 171t196 43v-120q-68 -1 -88 -22.5t-20 -93.5v-80q0 -104 -71 -124q71 -20 71 -124v-80q0 -72 20 -93.5t88 -22.5v-120q-147 0 -196 43t-49 171v91q0 40 -14.5 57t-47.5 18z" />
    <glyph glyph-name="bar" unicode="|" horiz-adv-x="474" 
d="M307 680v-870h-140v870h140z" />
    <glyph glyph-name="braceright" unicode="}" horiz-adv-x="365" 
d="M24 565v120q147 0 196 -43t49 -171v-91q0 -40 14.5 -57t47.5 -17v-121q-33 -1 -47.5 -18t-14.5 -57v-91q0 -128 -49 -171t-196 -43v120q68 1 88 22.5t20 93.5v80q0 104 71 124q-71 20 -71 124v80q0 72 -20 93.5t-88 22.5z" />
    <glyph glyph-name="asciitilde" unicode="~" horiz-adv-x="630" 
d="M49 191q30 73 68.5 111t96.5 38q10 0 21 -2t19 -4t20.5 -7t17.5 -7.5t18.5 -9.5t16.5 -8q58 -27 93 -27q27 0 42.5 15t32.5 50l86 -46q-30 -73 -68.5 -111t-96.5 -38q-10 0 -21.5 2t-19 4t-21.5 7.5t-17.5 7t-19.5 9.5l-16 8q-58 27 -91 27q-27 0 -42.5 -15t-31.5 -50z
" />
    <glyph glyph-name="uni00A0" unicode="&#xa0;" horiz-adv-x="337" 
 />
    <glyph glyph-name="exclamdown" unicode="&#xa1;" horiz-adv-x="265" 
d="M207 341h-148v144h148v-144zM209 -190h-153l11 453h131z" />
    <glyph glyph-name="cent" unicode="&#xa2;" horiz-adv-x="630" 
d="M55 336q0 114 50 171t160 66v79h123v-79q100 -9 145.5 -56t45.5 -139h-144q0 40 -24.5 55.5t-86.5 15.5q-72 0 -97 -25t-25 -99q0 -75 25 -100t97 -25q62 0 86.5 16.5t24.5 56.5v3h144q0 -95 -45.5 -142.5t-145.5 -56.5v-77h-123v77q-110 9 -160 66t-50 171v22z" />
    <glyph glyph-name="sterling" unicode="&#xa3;" horiz-adv-x="630" 
d="M26 375h91v53q0 149 48.5 204t178.5 55h24q126 0 172 -53t46 -192h-145q0 68 -17.5 91.5t-67.5 23.5q-54 0 -73 -25t-19 -94v-63h154v-121h-154q-1 -50 -11 -77t-33 -45h378v-132h-556v143q43 6 59 27.5t16 78.5v5h-91v121z" />
    <glyph glyph-name="currency" unicode="&#xa4;" horiz-adv-x="630" 
d="M44 557l53 53l80 -79q60 44 138 44t138 -44l80 79l53 -53l-80 -79q45 -61 45 -138t-44 -138l79 -79l-53 -53l-79 79q-63 -45 -139 -45t-139 45l-79 -79l-53 53l79 79q-44 61 -44 138t44 138zM201 226q47 -47 114 -47t114 47t47 114t-47 114q-47 46 -114 46t-114 -46.5
t-47 -113.5t47 -114z" />
    <glyph glyph-name="yen" unicode="&#xa5;" horiz-adv-x="630" 
d="M14 680h174l129 -268l129 268h170l-111 -211h79v-99h-131l-31 -59h162v-98h-191v-213h-156v213h-191v98h162l-31 59h-131v99h79z" />
    <glyph glyph-name="brokenbar" unicode="&#xa6;" horiz-adv-x="474" 
d="M167 -190v367h140v-367h-140zM307 680v-366h-140v366h140z" />
    <glyph glyph-name="section" unicode="&#xa7;" horiz-adv-x="630" 
d="M53 237v22q0 87 69 120q-48 37 -48 118v22q0 89 55 128.5t180 39.5h22q124 0 181 -46t58 -150h-146q0 45 -23 61.5t-81 16.5q-56 0 -77 -12t-21 -43q0 -27 15 -41t62 -26l126 -32q82 -21 116 -53.5t34 -103.5v-22q0 -89 -60 -122q52 -38 52 -115v-25q0 -92 -55.5 -131.5
t-190.5 -39.5h-22q-133 0 -187.5 45t-56.5 151h146q0 -42 25 -60.5t87 -18.5q60 0 82.5 12.5t22.5 43.5q0 29 -17.5 43.5t-67.5 27.5l-125 31q-83 21 -119 54t-36 105zM202 255q0 -27 16 -40t65 -26l107 -27q36 14 36 73q0 30 -14.5 44t-62.5 26l-106 26q-23 -7 -32 -24.5
t-9 -51.5z" />
    <glyph glyph-name="dieresis" unicode="&#xa8;" horiz-adv-x="500" 
d="M425 666v-115h-136v115h136zM75 666h136v-115h-136v115z" />
    <glyph glyph-name="copyright" unicode="&#xa9;" horiz-adv-x="796" 
d="M134 601q87 86 251 86h26q164 0 251 -86t87 -248v-26q0 -162 -87 -248t-251 -86h-26q-164 0 -251 86t-87 248v26q0 162 87 248zM122 340q0 -143 66.5 -209.5t209.5 -66.5t209.5 66.5t66.5 209.5t-66 210q-67 66 -210 66t-209.5 -66.5t-66.5 -209.5zM211 332v16
q0 98 44 142t142 44h15q91 0 132.5 -34.5t41.5 -113.5h-97q0 35 -19.5 49t-65.5 14q-54 0 -73.5 -23t-19.5 -86q0 -64 19.5 -86.5t73.5 -22.5q46 0 65.5 14.5t19.5 51.5h97q0 -81 -41 -116t-133 -35h-15q-98 0 -142 44t-44 142z" />
    <glyph glyph-name="ordfeminine" unicode="&#xaa;" horiz-adv-x="504" 
d="M80 840q49 47 158 47h18q110 0 159 -44t49 -141v-223h-117v34q-37 -39 -115 -39h-9q-101 0 -146.5 46.5t-45.5 150.5v18q0 104 49 151zM172 596q18 -22 72 -22q56 0 76.5 23t20.5 87q0 62 -19 82.5t-75 20.5q-55 0 -74.5 -22t-19.5 -85t19 -84z" />
    <glyph glyph-name="guillemotleft" unicode="&#xab;" horiz-adv-x="549" 
d="M375 464h140l-116 -221l116 -222h-140l-116 222zM150 464h140l-116 -221l116 -222h-140l-116 222z" />
    <glyph glyph-name="logicalnot" unicode="&#xac;" horiz-adv-x="500" 
d="M24 341h449v-280h-137v153h-312v127z" />
    <glyph glyph-name="uni00AD" unicode="&#xad;" horiz-adv-x="337" 
d="M303 362v-127h-269v127h269z" />
    <glyph glyph-name="registered" unicode="&#xae;" horiz-adv-x="527" 
d="M42 458v17q0 102 55 156t158 54h17q103 0 158 -54t55 -156v-17q0 -102 -55 -156.5t-158 -54.5h-17q-103 0 -158 54.5t-55 156.5zM91 466q0 -89 42 -130q41 -42 130 -42t131 41.5t42 130.5q0 90 -42 131.5t-131 41.5t-130.5 -41.5t-41.5 -131.5zM285 587q49 0 70 -18
t21 -57v-10q0 -50 -38 -58q34 -5 34 -49v-49h-63v42q0 20 -8.5 28t-31.5 8h-39v-78h-65v241h120zM273 476q23 0 31 6t8 23q0 18 -7.5 24t-31.5 6h-43v-59h43z" />
    <glyph glyph-name="degree" unicode="&#xb0;" horiz-adv-x="375" 
d="M39 541q0 60 43 102t105 42t105.5 -42t43.5 -102q0 -61 -43.5 -103t-105.5 -42t-105 42t-43 103zM117 541q0 -29 20 -49t50 -20t50 20t20 49t-20 49q-20 19 -50 19t-50 -19.5t-20 -48.5z" />
    <glyph glyph-name="plusminus" unicode="&#xb1;" horiz-adv-x="630" 
d="M67 232h219l-94 182l-58 29l31 97l332 -164l-32 -98l-121 60l55 -106h164v-108h-173l-42 -13l-7 13h-274v108z" />
    <glyph glyph-name="twosuperior" unicode="&#xb2;" horiz-adv-x="433" 
d="M73 854q37 35 135 35h15q96 0 134 -28.5t38 -99.5v-16q0 -61 -32.5 -88.5t-112.5 -39.5q-71 -12 -86 -18.5t-15 -26.5v-6h245v-88h-356v99q0 56 36 81.5t129 36.5q51 7 66.5 18t15.5 39t-14 38t-56 10q-43 0 -58 -15t-15 -58h-106q0 92 37 127z" />
    <glyph glyph-name="threesuperior" unicode="&#xb3;" horiz-adv-x="429" 
d="M29 622h109q2 -36 15.5 -48t58.5 -12q44 0 58.5 8.5t14.5 31.5q0 25 -12 33t-48 8h-43v81h42q32 0 43 7.5t11 28.5q0 22 -13.5 30.5t-52.5 8.5q-42 0 -55 -11.5t-15 -44.5h-109q1 80 38.5 113t130.5 33h20q91 0 129.5 -27t38.5 -91v-15q0 -51 -36 -68q43 -18 43 -82v-15
q0 -64 -41 -91t-136 -27h-19q-95 0 -133 33.5t-39 115.5z" />
    <glyph glyph-name="acute" unicode="&#xb4;" horiz-adv-x="500" 
d="M192 595l195 116l47 -101l-211 -80z" />
    <glyph glyph-name="uni00B5" unicode="&#xb5;" horiz-adv-x="589" 
d="M193 485v-267q0 -59 22.5 -81t81.5 -22t80 21.5t21 79.5v269h146v-292q0 -105 -50 -152t-164 -47h-11q-80 0 -126 28v-212h-146v675h146z" />
    <glyph glyph-name="paragraph" unicode="&#xb6;" horiz-adv-x="630" 
d="M50 569q14 45 44.5 69t69.5 33t97 9h312v-867h-106v755h-70v-755h-106v419h-30q-117 0 -171.5 46.5t-54.5 177.5q0 68 15 113z" />
    <glyph glyph-name="periodcentered" unicode="&#xb7;" horiz-adv-x="227" 
d="M40 315h148v-145h-148v145z" />
    <glyph glyph-name="cedilla" unicode="&#xb8;" horiz-adv-x="500" 
d="M324 -106l-114 -93l-50 50l93 114z" />
    <glyph glyph-name="onesuperior" unicode="&#xb9;" horiz-adv-x="397" 
d="M163 883h137v-405h-113v285l-70 -71l-77 73z" />
    <glyph glyph-name="ordmasculine" unicode="&#xba;" horiz-adv-x="495" 
d="M31 671v18q0 104 49 151t158 47h19q109 0 158 -47t49 -151v-18q0 -104 -49 -151t-158 -47h-19q-109 0 -158 47t-49 151zM153 680q0 -63 19.5 -85t75.5 -22q55 0 74.5 22t19.5 85t-19.5 85t-74.5 22q-56 0 -75.5 -22t-19.5 -85z" />
    <glyph glyph-name="guillemotright" unicode="&#xbb;" horiz-adv-x="549" 
d="M374 243l-115 221h140l116 -221l-116 -222h-140zM149 243l-115 221h140l116 -221l-116 -222h-140z" />
    <glyph glyph-name="onequarter" unicode="&#xbc;" horiz-adv-x="999" 
d="M581 182l201 223h145v-233h58v-91h-58v-81h-113v81h-233v101zM655 680h112l-419 -680h-111zM40 562l123 118h137v-405h-113v285l-70 -71zM814 172v136l-123 -136h123z" />
    <glyph glyph-name="onehalf" unicode="&#xbd;" horiz-adv-x="1039" 
d="M680 376q37 35 135 35h15q96 0 134 -28.5t38 -99.5v-16q0 -61 -32.5 -88.5t-112.5 -39.5q-71 -12 -86 -18.5t-15 -26.5v-6h245v-88h-356v99q0 56 36 81.5t129 36.5q51 7 66.5 18t15.5 39t-14 38t-56 10q-43 0 -58 -15t-15 -58h-106q0 92 37 127zM237 0l418 680h112
l-419 -680h-111zM40 562l123 118h137v-405h-113v285l-70 -71z" />
    <glyph glyph-name="threequarters" unicode="&#xbe;" horiz-adv-x="1031" 
d="M613 81v101l201 223h145v-233h58v-91h-58v-81h-113v81h-233zM29 419h109q2 -36 15.5 -48t58.5 -12q44 0 58.5 8.5t14.5 31.5q0 25 -12 33t-48 8h-43v81h42q32 0 43 7.5t11 28.5q0 22 -13.5 30.5t-52.5 8.5q-42 0 -55 -11.5t-15 -44.5h-109q1 80 38.5 113t130.5 33h20
q91 0 129.5 -27t38.5 -91v-15q0 -51 -36 -68q43 -18 43 -82v-15q0 -64 -41 -91t-136 -27h-19q-95 0 -133 33.5t-39 115.5zM269 0l418 680h112l-419 -680h-111zM846 172v136l-123 -136h123z" />
    <glyph glyph-name="questiondown" unicode="&#xbf;" horiz-adv-x="619" 
d="M37 52q0 115 64.5 169.5t200.5 54.5h85v-130h-73q-71 0 -99 -23.5t-28 -83.5t27 -83t99 -23q71 0 98 22t28 82h148q-1 -121 -64.5 -177.5t-197.5 -56.5h-24q-136 0 -200 54.5t-64 169.5v25zM387 485v-144h-148v144h148z" />
    <glyph glyph-name="Agrave" unicode="&#xc0;" horiz-adv-x="710" 
d="M242 680h227l240 -680h-163l-39 115h-301l-39 -115h-166zM250 247h213l-98 296h-17zM208 805l48 101l195 -116l-31 -65z" />
    <glyph glyph-name="Aacute" unicode="&#xc1;" horiz-adv-x="710" 
d="M242 680h227l240 -680h-163l-39 115h-301l-39 -115h-166zM250 247h213l-98 296h-17zM454 906l48 -101l-212 -80l-31 65z" />
    <glyph glyph-name="Acircumflex" unicode="&#xc2;" horiz-adv-x="710" 
d="M242 680h227l240 -680h-163l-39 115h-301l-39 -115h-166zM463 247l-98 296h-17l-98 -296h213zM331 898h47l146 -114l-39 -58l-131 71l-130 -71l-39 58z" />
    <glyph glyph-name="Atilde" unicode="&#xc3;" horiz-adv-x="710" 
d="M242 680h227l240 -680h-163l-39 115h-301l-39 -115h-166zM250 247h213l-98 296h-17zM176 782q24 48 49.5 68.5t60.5 20.5q28 0 77 -25q44 -24 59 -24q28 0 47 45l65 -44q-24 -48 -49.5 -68.5t-60.5 -20.5q-29 0 -77 26q-44 23 -59 23q-28 0 -47 -45z" />
    <glyph glyph-name="Adieresis" unicode="&#xc4;" horiz-adv-x="710" 
d="M242 680h227l240 -680h-163l-39 115h-301l-39 -115h-166zM250 247h213l-98 296h-17zM396 746v116h138v-116h-138zM314 862v-116h-138v116h138z" />
    <glyph glyph-name="Aring" unicode="&#xc5;" horiz-adv-x="710" 
d="M242 680h227l240 -680h-163l-39 115h-301l-39 -115h-166zM250 820q0 45 27 69.5t74 24.5h8q47 0 74 -24.5t27 -69.5v-9q0 -44 -27 -68.5t-74 -24.5h-8q-47 0 -74 24.5t-27 68.5v9zM463 247l-98 296h-17l-98 -296h213zM355 772q44 0 44 44q0 43 -44 43t-44 -43
q0 -44 44 -44z" />
    <glyph glyph-name="AE" unicode="&#xc6;" horiz-adv-x="1034" 
d="M1 0l337 680h651v-130h-344v-142h328v-128h-328v-150h347v-130h-504v115h-265l-54 -115h-168zM488 247v303h-58l-143 -303h201z" />
    <glyph glyph-name="Ccedilla" unicode="&#xc7;" horiz-adv-x="722" 
d="M114 610q74 77 245 77h26q157 0 227.5 -58.5t71.5 -192.5h-157q-1 64 -37 89t-118 25q-101 0 -136.5 -43.5t-35.5 -166.5t35.5 -166.5t136.5 -43.5q83 0 119 25.5t37 91.5h156q-1 -135 -71.5 -194.5t-227.5 -59.5h-26q-171 0 -245 77t-74 256v28q0 179 74 256zM379 -39
l70 -71l-114 -92l-50 49z" />
    <glyph glyph-name="Egrave" unicode="&#xc8;" horiz-adv-x="614" 
d="M54 0v680h515v-130h-358v-142h342v-128h-342v-150h361v-130h-518zM179 805l48 101l195 -116l-31 -65z" />
    <glyph glyph-name="Eacute" unicode="&#xc9;" horiz-adv-x="614" 
d="M54 0v680h515v-130h-358v-142h342v-128h-342v-150h361v-130h-518zM230 790l195 116l48 -101l-212 -80z" />
    <glyph glyph-name="Ecircumflex" unicode="&#xca;" horiz-adv-x="614" 
d="M54 0v680h515v-130h-358v-142h342v-128h-342v-150h361v-130h-518zM302 898h47l146 -114l-39 -58l-131 71l-130 -71l-39 58z" />
    <glyph glyph-name="Edieresis" unicode="&#xcb;" horiz-adv-x="614" 
d="M54 0v680h515v-130h-358v-142h342v-128h-342v-150h361v-130h-518zM505 862v-116h-138v116h138zM147 862h138v-116h-138v116z" />
    <glyph glyph-name="Igrave" unicode="&#xcc;" horiz-adv-x="265" 
d="M228 790l-31 -65l-212 80l48 101zM210 0h-156v680h156v-680z" />
    <glyph glyph-name="Iacute" unicode="&#xcd;" horiz-adv-x="265" 
d="M36 790l195 116l48 -101l-212 -80zM210 0h-156v680h156v-680z" />
    <glyph glyph-name="Icircumflex" unicode="&#xce;" horiz-adv-x="265" 
d="M108 898h47l146 -114l-39 -58l-131 71l-130 -71l-39 58zM210 0h-156v680h156v-680z" />
    <glyph glyph-name="Idieresis" unicode="&#xcf;" horiz-adv-x="265" 
d="M54 680h156v-680h-156v680zM160 864h126v-120h-126v120zM-22 744v120h126v-120h-126z" />
    <glyph glyph-name="Eth" unicode="&#xd0;" horiz-adv-x="741" 
d="M0 280v120h69v280h309q174 0 248.5 -74.5t74.5 -251.5v-28q0 -177 -74.5 -251.5t-248.5 -74.5h-309v280h-69zM226 137h140q104 0 140 40.5t36 162.5t-36 162.5t-140 40.5h-140v-143h162v-120h-162v-143z" />
    <glyph glyph-name="Ntilde" unicode="&#xd1;" horiz-adv-x="766" 
d="M54 0v680h245l260 -528v528h154v-680h-245l-261 530v-530h-153zM204 782q24 48 49.5 68.5t60.5 20.5q28 0 77 -25q44 -24 59 -24q28 0 47 45l65 -44q-24 -48 -49.5 -68.5t-60.5 -20.5q-29 0 -77 26q-44 23 -59 23q-28 0 -47 -45z" />
    <glyph glyph-name="Ograve" unicode="&#xd2;" horiz-adv-x="750" 
d="M40 326v28q0 179 75 256t247 77h26q173 0 247.5 -77t74.5 -256v-28q0 -179 -74.5 -256t-247.5 -77h-26q-172 0 -247 77t-75 256zM200 340q0 -124 36.5 -168.5t138.5 -44.5t139 44.5t37 168.5t-37 169q-37 44 -139 44t-138.5 -44.5t-36.5 -168.5zM276 906l195 -116
l-31 -65l-212 80z" />
    <glyph glyph-name="Oacute" unicode="&#xd3;" horiz-adv-x="750" 
d="M115 610q75 77 247 77h26q173 0 247.5 -77t74.5 -256v-28q0 -179 -74.5 -256t-247.5 -77h-26q-172 0 -247 77t-75 256v28q0 179 75 256zM200 340q0 -124 36.5 -168.5t138.5 -44.5t139 44.5t37 168.5t-37 169q-37 44 -139 44t-138.5 -44.5t-36.5 -168.5zM474 906l48 -101
l-212 -80l-31 65z" />
    <glyph glyph-name="Ocircumflex" unicode="&#xd4;" horiz-adv-x="750" 
d="M40 326v28q0 179 75 256t247 77h26q173 0 247.5 -77t74.5 -256v-28q0 -179 -74.5 -256t-247.5 -77h-26q-172 0 -247 77t-75 256zM200 340q0 -124 36.5 -168.5t138.5 -44.5t139 44.5t37 168.5t-37 169q-37 44 -139 44t-138.5 -44.5t-36.5 -168.5zM205 784l146 114h47
l146 -114l-39 -58l-131 71l-130 -71z" />
    <glyph glyph-name="Otilde" unicode="&#xd5;" horiz-adv-x="750" 
d="M40 326v28q0 179 75 256t247 77h26q173 0 247.5 -77t74.5 -256v-28q0 -179 -74.5 -256t-247.5 -77h-26q-172 0 -247 77t-75 256zM237 172q36 -45 138 -45t139 44.5t37 168.5t-37 169q-37 44 -139 44t-138.5 -44.5t-36.5 -168.5t37 -168zM196 782q24 48 49.5 68.5
t60.5 20.5q28 0 77 -25q44 -24 59 -24q28 0 47 45l65 -44q-24 -48 -49.5 -68.5t-60.5 -20.5q-29 0 -77 26q-44 23 -59 23q-28 0 -47 -45z" />
    <glyph glyph-name="Odieresis" unicode="&#xd6;" horiz-adv-x="750" 
d="M40 326v28q0 179 75 256t247 77h26q173 0 247.5 -77t74.5 -256v-28q0 -179 -74.5 -256t-247.5 -77h-26q-172 0 -247 77t-75 256zM237 172q36 -45 138 -45t139 44.5t37 168.5t-37 169q-37 44 -139 44t-138.5 -44.5t-36.5 -168.5t37 -168zM416 862h138v-116h-138v116z
M196 746v116h138v-116h-138z" />
    <glyph glyph-name="multiply" unicode="&#xd7;" horiz-adv-x="630" 
d="M542 380l-137 -137l137 -138l-90 -90l-137 137l-137 -137l-90 90l137 138l-137 137l90 90l137 -137l137 137z" />
    <glyph glyph-name="Oslash" unicode="&#xd8;" horiz-adv-x="754" 
d="M72 147q-30 72 -30 179v28q0 179 75 256t247 77h26q162 0 239 -73l87 73v-125l-34 -28q30 -72 30 -180v-28q0 -179 -74.5 -256t-247.5 -77h-26q-160 0 -238 74l-88 -74v126zM377 127q102 0 139 44.5t37 168.5q0 52 -5 81l-304 -255q36 -39 133 -39zM202 340q0 -49 4 -80
l305 255q-38 38 -134 38q-102 0 -138.5 -44.5t-36.5 -168.5z" />
    <glyph glyph-name="Ugrave" unicode="&#xd9;" horiz-adv-x="726" 
d="M52 243v437h156v-414q0 -80 32 -108t123 -28t123 28t32 108v414h156v-437q0 -133 -70 -191.5t-228 -58.5h-26q-158 0 -228 58.5t-70 191.5zM214 805l48 101l195 -116l-31 -65z" />
    <glyph glyph-name="Uacute" unicode="&#xda;" horiz-adv-x="726" 
d="M52 243v437h156v-414q0 -80 32 -108t123 -28t123 28t32 108v414h156v-437q0 -133 -70 -191.5t-228 -58.5h-26q-158 0 -228 58.5t-70 191.5zM460 906l48 -101l-212 -80l-31 65z" />
    <glyph glyph-name="Ucircumflex" unicode="&#xdb;" horiz-adv-x="726" 
d="M52 680h156v-414q0 -80 32 -108t123 -28t123 28t32 108v414h156v-437q0 -133 -70 -191.5t-228 -58.5h-26q-158 0 -228 58.5t-70 191.5v437zM191 784l146 114h47l146 -114l-39 -58l-131 71l-130 -71z" />
    <glyph glyph-name="Udieresis" unicode="&#xdc;" horiz-adv-x="726" 
d="M208 680v-414q0 -80 32 -108t123 -28t123 28t32 108v414h156v-437q0 -133 -70 -191.5t-228 -58.5h-26q-158 0 -228 58.5t-70 191.5v437h156zM402 862h138v-116h-138v116zM320 862v-116h-138v116h138z" />
    <glyph glyph-name="Yacute" unicode="&#xdd;" horiz-adv-x="693" 
d="M177 680l172 -286l171 286h171l-266 -431v-249h-156v247l-267 433h175zM252 790l195 116l48 -101l-212 -80z" />
    <glyph glyph-name="Thorn" unicode="&#xde;" horiz-adv-x="656" 
d="M371 580q131 0 189.5 -50.5t58.5 -162.5v-23q0 -111 -58.5 -161t-189.5 -50h-161v-133h-156v680h156v-100h161zM351 262q66 0 87.5 18.5t21.5 75.5q0 56 -21.5 75t-87.5 19h-141v-188h141z" />
    <glyph glyph-name="germandbls" unicode="&#xdf;" horiz-adv-x="634" 
d="M105 635q60 51 189 51h22q118 0 172 -44.5t54 -137.5v-19q0 -83 -57 -112q113 -23 113 -161v-22q0 -107 -61 -152t-206 -45h-21q-149 0 -207 43.5t-58 149.5h146q1 -46 27.5 -63t106.5 -17q77 0 103 20t26 77q0 59 -27 78t-108 19h-64v114h45q57 0 77.5 17.5t20.5 61.5
q0 45 -19.5 61.5t-72.5 16.5q-66 0 -90.5 -26t-24.5 -98v-200h-146v228q0 109 60 160z" />
    <glyph glyph-name="agrave" unicode="&#xe0;" horiz-adv-x="595" 
d="M34 254q0 125 58.5 181.5t188.5 56.5h22q130 0 188.5 -52t58.5 -168v-272h-138v45q-42 -51 -142 -51h-10q-119 0 -172.5 56.5t-53.5 181.5v22zM204 141q21 -26 83 -26q67 0 91.5 28t24.5 106q0 72 -23 96.5t-88 24.5t-87.5 -25.5t-22.5 -101.5t22 -102zM196 716l195 -116
l-31 -65l-212 80z" />
    <glyph glyph-name="aacute" unicode="&#xe1;" horiz-adv-x="595" 
d="M34 254q0 125 58.5 181.5t188.5 56.5h22q130 0 188.5 -52t58.5 -168v-272h-138v45q-42 -51 -142 -51h-10q-119 0 -172.5 56.5t-53.5 181.5v22zM204 141q21 -26 83 -26q67 0 91.5 28t24.5 106q0 72 -23 96.5t-88 24.5t-87.5 -25.5t-22.5 -101.5t22 -102zM199 600l195 116
l48 -101l-212 -80z" />
    <glyph glyph-name="acircumflex" unicode="&#xe2;" horiz-adv-x="595" 
d="M93 436q58 56 188 56h22q130 0 188.5 -52t58.5 -168v-272h-138v45q-42 -51 -142 -51h-10q-119 0 -172.5 56.5t-53.5 181.5v22q0 125 59 182zM204 141q21 -26 83 -26q67 0 91.5 28t24.5 106q0 72 -23 96.5t-88 24.5t-87.5 -25.5t-22.5 -101.5t22 -102zM125 594l146 114h47
l146 -114l-39 -58l-131 71l-130 -71z" />
    <glyph glyph-name="atilde" unicode="&#xe3;" horiz-adv-x="595" 
d="M34 232v22q0 125 58.5 181.5t188.5 56.5h22q130 0 188.5 -52t58.5 -168v-272h-138v45q-42 -51 -142 -51h-10q-119 0 -172.5 56.5t-53.5 181.5zM182 243q0 -76 21.5 -102t83.5 -26q67 0 91.5 28t24.5 106q0 72 -23 96.5t-88 24.5t-87.5 -25.5t-22.5 -101.5zM116 592
q24 48 49.5 68.5t60.5 20.5q28 0 77 -25q42 -23 59 -23q28 0 47 44l65 -44q-24 -48 -49.5 -68.5t-60.5 -20.5q-29 0 -77 26q-44 23 -59 23q-28 0 -47 -45z" />
    <glyph glyph-name="adieresis" unicode="&#xe4;" horiz-adv-x="595" 
d="M34 254q0 125 58.5 181.5t188.5 56.5h22q130 0 188.5 -52t58.5 -168v-272h-138v45q-42 -51 -142 -51h-10q-119 0 -172.5 56.5t-53.5 181.5v22zM182 243q0 -76 21.5 -102t83.5 -26q67 0 91.5 28t24.5 106q0 72 -23 96.5t-88 24.5t-87.5 -25.5t-22.5 -101.5zM334 556v115
h136v-115h-136zM120 671h136v-115h-136v115z" />
    <glyph glyph-name="aring" unicode="&#xe5;" horiz-adv-x="595" 
d="M34 232v22q0 125 58.5 181.5t188.5 56.5h22q130 0 188.5 -52t58.5 -168v-272h-138v45q-42 -51 -142 -51h-10q-119 0 -172.5 56.5t-53.5 181.5zM182 243q0 -76 21.5 -102t83.5 -26q67 0 91.5 28t24.5 106q0 72 -23 96.5t-88 24.5t-87.5 -25.5t-22.5 -101.5zM190 618v8
q0 45 27 69.5t74 24.5h8q47 0 74 -24.5t27 -69.5v-8q0 -45 -27 -69.5t-74 -24.5h-8q-47 0 -74 24.5t-27 69.5zM251 622q0 -43 44 -43t44 43t-44 43t-44 -43z" />
    <glyph glyph-name="ae" unicode="&#xe6;" horiz-adv-x="937" 
d="M31 141v20q0 73 55 103.5t185 30.5h120v11q0 47 -21.5 63t-84.5 16q-56 0 -77 -11t-22 -39h-142q1 87 52.5 122t179.5 35h21q123 0 176 -51q53 51 169 51h22q125 0 181.5 -59t56.5 -190v-43h-366q4 -61 29.5 -82.5t93.5 -21.5q54 0 76 13.5t24 47.5h141
q-1 -85 -57 -124.5t-175 -39.5h-22q-126 0 -178 55q-56 -56 -182 -56h-18q-128 0 -182.5 34.5t-54.5 114.5zM195 110q20 -11 81 -11q65 0 90 19t25 66v15h-108q-66 0 -87.5 -10t-21.5 -39t21 -40zM537 294h225q-4 52 -26.5 71.5t-80.5 19.5q-61 0 -86.5 -19t-31.5 -72z" />
    <glyph glyph-name="ccedilla" unicode="&#xe7;" horiz-adv-x="568" 
d="M93 436q59 56 188 56h21q121 0 176.5 -46t56.5 -150h-144q-1 40 -23 55.5t-76 15.5q-65 0 -87.5 -25t-22.5 -99q0 -75 22.5 -100t87.5 -25q54 0 76.5 16.5t22.5 58.5h144q-1 -105 -56.5 -152.5t-176.5 -47.5h-21q-129 0 -188 56.5t-59 182.5v22q0 125 59 182zM201 -153
l94 114l70 -71l-114 -92z" />
    <glyph glyph-name="egrave" unicode="&#xe8;" horiz-adv-x="576" 
d="M34 254q0 125 59 181.5t189 56.5h22q124 0 180.5 -59.5t56.5 -189.5v-43h-365q5 -59 30.5 -80t92.5 -21q54 0 76.5 12.5t23.5 45.5h141q-1 -85 -57 -124.5t-175 -39.5h-22q-133 0 -192.5 56.5t-59.5 182.5v22zM195 716l195 -116l-31 -65l-212 80zM402 295q-5 50 -28 70
t-80 20q-59 0 -84.5 -19t-32.5 -71h225z" />
    <glyph glyph-name="eacute" unicode="&#xe9;" horiz-adv-x="576" 
d="M34 232v22q0 125 59 181.5t189 56.5h22q124 0 180.5 -59.5t56.5 -189.5v-43h-365q5 -59 30.5 -80t92.5 -21q54 0 76.5 12.5t23.5 45.5h141q-1 -85 -57 -124.5t-175 -39.5h-22q-133 0 -192.5 56.5t-59.5 182.5zM393 716l48 -101l-212 -80l-31 65zM402 295q-5 50 -28 70
t-80 20q-59 0 -84.5 -19t-32.5 -71h225z" />
    <glyph glyph-name="ecircumflex" unicode="&#xea;" horiz-adv-x="576" 
d="M34 254q0 125 59 181.5t189 56.5h22q124 0 180.5 -59.5t56.5 -189.5v-43h-365q5 -59 30.5 -80t92.5 -21q54 0 76.5 12.5t23.5 45.5h141q-1 -85 -57 -124.5t-175 -39.5h-22q-133 0 -192.5 56.5t-59.5 182.5v22zM124 594l146 114h47l146 -114l-39 -58l-131 71l-130 -71z
M177 295h225q-5 50 -28 70t-80 20q-59 0 -84.5 -19t-32.5 -71z" />
    <glyph glyph-name="edieresis" unicode="&#xeb;" horiz-adv-x="576" 
d="M34 254q0 125 59 181.5t189 56.5h22q124 0 180.5 -59.5t56.5 -189.5v-43h-365q5 -59 30.5 -80t92.5 -21q54 0 76.5 12.5t23.5 45.5h141q-1 -85 -57 -124.5t-175 -39.5h-22q-133 0 -192.5 56.5t-59.5 182.5v22zM177 295h225q-5 50 -28 70t-80 20q-59 0 -84.5 -19
t-32.5 -71zM333 671h136v-115h-136v115zM119 671h136v-115h-136v115z" />
    <glyph glyph-name="igrave" unicode="&#xec;" horiz-adv-x="240" 
d="M216 595l-31 -65l-212 80l48 101zM47 485h146v-485h-146v485z" />
    <glyph glyph-name="iacute" unicode="&#xed;" horiz-adv-x="240" 
d="M24 595l195 116l48 -101l-212 -80zM47 485h146v-485h-146v485z" />
    <glyph glyph-name="icircumflex" unicode="&#xee;" horiz-adv-x="240" 
d="M96 703h47l146 -114l-39 -58l-131 71l-130 -71l-39 58zM47 485h146v-485h-146v485z" />
    <glyph glyph-name="idieresis" unicode="&#xef;" horiz-adv-x="240" 
d="M193 485v-485h-146v485h146zM269 669v-120h-123v120h123zM-29 669h123v-120h-123v120z" />
    <glyph glyph-name="eth" unicode="&#xf0;" horiz-adv-x="586" 
d="M504 418q48 -85 48 -170v-22q0 -122 -59 -177.5t-189 -55.5h-22q-130 0 -189 55.5t-59 177.5v22q0 122 59 178t189 56h13q15 0 23 -1l-29 51l-111 -37v88l69 23l-42 74h148l18 -32l106 36v-88l-63 -21zM293 115q66 0 88.5 25t22.5 97q0 73 -22.5 98t-88.5 25
q-65 0 -88 -25t-23 -98q0 -72 23 -97t88 -25z" />
    <glyph glyph-name="ntilde" unicode="&#xf1;" horiz-adv-x="587" 
d="M101 445q56 47 182 47h22q125 0 181 -47t56 -153v-292h-146v269q0 59 -21.5 80t-80.5 21q-60 0 -81.5 -21t-21.5 -80v-269h-146v292q0 106 56 153zM115 587q24 48 49.5 68.5t60.5 20.5q28 0 77 -25q42 -23 59 -23q28 0 47 44l65 -44q-24 -48 -49.5 -68.5t-60.5 -20.5
q-29 0 -77 26q-44 23 -59 23q-27 0 -47 -45z" />
    <glyph glyph-name="ograve" unicode="&#xf2;" horiz-adv-x="586" 
d="M93 436q59 56 189 56h22q130 0 189 -56.5t59 -181.5v-22q0 -126 -59 -182.5t-189 -56.5h-22q-130 0 -189 56.5t-59 182.5v22q0 125 59 182zM205 141q22 -26 88 -26t88.5 26t22.5 102t-22 102q-23 25 -89 25t-88.5 -26t-22.5 -101q0 -76 23 -102zM194 711l195 -116
l-31 -65l-212 80z" />
    <glyph glyph-name="oacute" unicode="&#xf3;" horiz-adv-x="586" 
d="M34 232v22q0 125 59 181.5t189 56.5h22q130 0 189 -56.5t59 -181.5v-22q0 -126 -59 -182.5t-189 -56.5h-22q-130 0 -189 56.5t-59 182.5zM182 243q0 -76 22.5 -102t88.5 -26t88.5 26t22.5 102t-22 102q-23 25 -89 25t-88.5 -26t-22.5 -101zM197 595l195 116l48 -101
l-212 -80z" />
    <glyph glyph-name="ocircumflex" unicode="&#xf4;" horiz-adv-x="586" 
d="M34 232v22q0 125 59 181.5t189 56.5h22q130 0 189 -56.5t59 -181.5v-22q0 -126 -59 -182.5t-189 -56.5h-22q-130 0 -189 56.5t-59 182.5zM182 243q0 -76 22.5 -102t88.5 -26t88.5 26t22.5 102t-22 102q-23 25 -89 25t-88.5 -26t-22.5 -101zM123 589l146 114h47l146 -114
l-39 -58l-131 71l-130 -71z" />
    <glyph glyph-name="otilde" unicode="&#xf5;" horiz-adv-x="586" 
d="M34 232v22q0 125 59 181.5t189 56.5h22q130 0 189 -56.5t59 -181.5v-22q0 -126 -59 -182.5t-189 -56.5h-22q-130 0 -189 56.5t-59 182.5zM205 141q22 -26 88 -26t88.5 26t22.5 102t-22 102q-23 25 -89 25t-88.5 -26t-22.5 -101q0 -76 23 -102zM114 587q24 48 49.5 68.5
t60.5 20.5q28 0 77 -25q42 -23 59 -23q28 0 47 44l65 -44q-24 -48 -49.5 -68.5t-60.5 -20.5q-29 0 -77 26q-44 23 -59 23q-28 0 -47 -45z" />
    <glyph glyph-name="odieresis" unicode="&#xf6;" horiz-adv-x="586" 
d="M34 232v22q0 125 59 181.5t189 56.5h22q130 0 189 -56.5t59 -181.5v-22q0 -126 -59 -182.5t-189 -56.5h-22q-130 0 -189 56.5t-59 182.5zM205 141q22 -26 88 -26t88.5 26t22.5 102t-22 102q-23 25 -89 25t-88.5 -26t-22.5 -101q0 -76 23 -102zM332 666h136v-115h-136v115
zM118 551v115h136v-115h-136z" />
    <glyph glyph-name="divide" unicode="&#xf7;" horiz-adv-x="630" 
d="M315 383q-36 0 -59.5 24t-23.5 60q0 35 23.5 58.5t59.5 23.5t59.5 -23.5t23.5 -58.5q0 -36 -23.5 -60t-59.5 -24zM67 332h496v-114h-496v114zM315 1q-36 0 -59.5 24t-23.5 60q0 35 23.5 58.5t59.5 23.5t59.5 -23.5t23.5 -58.5q0 -36 -23.5 -60t-59.5 -24z" />
    <glyph glyph-name="oslash" unicode="&#xf8;" horiz-adv-x="590" 
d="M55 118q-19 47 -19 114v22q0 125 59 181.5t189 56.5h22q121 0 182 -55l72 53v-106l-24 -18q18 -46 18 -112v-22q0 -126 -59 -182.5t-189 -56.5h-22q-120 0 -181 55l-72 -53v106zM184 243q0 -20 1 -29l189 139q-22 17 -79 17q-66 0 -88.5 -26t-22.5 -101zM295 115
q66 0 88.5 26t22.5 102q0 19 -1 27l-188 -138q22 -17 78 -17z" />
    <glyph glyph-name="ugrave" unicode="&#xf9;" horiz-adv-x="582" 
d="M45 485h146v-269q0 -58 21 -79.5t79 -21.5q57 0 78.5 21.5t21.5 79.5v269h146v-292q0 -106 -55.5 -153.5t-179.5 -47.5h-22q-124 0 -179.5 47.5t-55.5 153.5v292zM192 711l195 -116l-31 -65l-212 80z" />
    <glyph glyph-name="uacute" unicode="&#xfa;" horiz-adv-x="582" 
d="M45 193v292h146v-269q0 -58 21 -79.5t79 -21.5q57 0 78.5 21.5t21.5 79.5v269h146v-292q0 -106 -55.5 -153.5t-179.5 -47.5h-22q-124 0 -179.5 47.5t-55.5 153.5zM195 595l195 116l48 -101l-212 -80z" />
    <glyph glyph-name="ucircumflex" unicode="&#xfb;" horiz-adv-x="582" 
d="M191 485v-269q0 -58 21 -79.5t79 -21.5q57 0 78.5 21.5t21.5 79.5v269h146v-292q0 -106 -55.5 -153.5t-179.5 -47.5h-22q-124 0 -179.5 47.5t-55.5 153.5v292h146zM121 589l146 114h47l146 -114l-39 -58l-131 71l-130 -71z" />
    <glyph glyph-name="udieresis" unicode="&#xfc;" horiz-adv-x="582" 
d="M191 485v-269q0 -58 21 -79.5t79 -21.5q57 0 78.5 21.5t21.5 79.5v269h146v-292q0 -106 -55.5 -153.5t-179.5 -47.5h-22q-124 0 -179.5 47.5t-55.5 153.5v292h146zM330 666h136v-115h-136v115zM252 666v-115h-136v115h136z" />
    <glyph glyph-name="yacute" unicode="&#xfd;" horiz-adv-x="587" 
d="M1 485h164l122 -350h13l126 350h159l-186 -499q-21 -56 -37.5 -86t-43.5 -54.5t-64 -33t-96 -8.5q-49 0 -80 6v122q28 -3 60 -3q51 0 73.5 14t39.5 57h-63zM388 711l48 -101l-212 -80l-31 65z" />
    <glyph glyph-name="thorn" unicode="&#xfe;" horiz-adv-x="596" 
d="M334 491q119 0 173.5 -56.5t54.5 -180.5v-22q0 -125 -54.5 -181.5t-173.5 -56.5h-11q-84 0 -131 30v-219h-146v875h146v-219q47 30 131 30h11zM308 115q63 0 84.5 26t21.5 102t-21.5 101.5t-84.5 25.5q-67 0 -91 -26.5t-24 -100.5t24 -101t91 -27z" />
    <glyph glyph-name="ydieresis" unicode="&#xff;" horiz-adv-x="587" 
d="M1 485h164l122 -350h13l126 350h159l-186 -499q-21 -56 -37.5 -86t-43.5 -54.5t-64 -33t-96 -8.5q-49 0 -80 6v122q28 -3 60 -3q51 0 73.5 14t39.5 57h-63zM464 666v-115h-136v115h136zM114 666h136v-115h-136v115z" />
    <glyph glyph-name="Amacron" unicode="&#x100;" horiz-adv-x="710" 
d="M242 680h227l240 -680h-163l-39 115h-301l-39 -115h-166zM250 247h213l-98 296h-17zM193 752v96h323v-96h-323z" />
    <glyph glyph-name="amacron" unicode="&#x101;" horiz-adv-x="595" 
d="M34 254q0 125 58.5 181.5t188.5 56.5h22q130 0 188.5 -52t58.5 -168v-272h-138v45q-42 -51 -142 -51h-10q-119 0 -172.5 56.5t-53.5 181.5v22zM204 141q21 -26 83 -26q67 0 91.5 28t24.5 106q0 72 -23 96.5t-88 24.5t-87.5 -25.5t-22.5 -101.5t22 -102zM138 562v96h314
v-96h-314z" />
    <glyph glyph-name="Abreve" unicode="&#x102;" horiz-adv-x="710" 
d="M242 680h227l240 -680h-163l-39 115h-301l-39 -115h-166zM192 889h89q0 -43 15 -58t59 -15t58.5 15t15.5 58h89q-1 -88 -38 -124t-125 -36t-125 36t-38 124zM250 247h213l-98 296h-17z" />
    <glyph glyph-name="abreve" unicode="&#x103;" horiz-adv-x="595" 
d="M34 254q0 125 58.5 181.5t188.5 56.5h22q130 0 188.5 -52t58.5 -168v-272h-138v45q-42 -51 -142 -51h-10q-119 0 -172.5 56.5t-53.5 181.5v22zM204 141q21 -26 83 -26q67 0 91.5 28t24.5 106q0 72 -23 96.5t-88 24.5t-87.5 -25.5t-22.5 -101.5t22 -102zM132 697h89
q0 -43 15 -58t59 -15t58.5 15t15.5 58h89q-1 -88 -38 -123q-37 -36 -125 -36t-125 35.5t-38 123.5z" />
    <glyph glyph-name="Aogonek" unicode="&#x104;" horiz-adv-x="710" 
d="M693 -95q20 0 40 5v-87q-28 -13 -69 -13q-115 0 -115 87q0 66 65 103h-68l-39 115h-301l-39 -115h-166l241 680h227l240 -680h-4q-60 -24 -60 -64q0 -31 48 -31zM463 247l-98 296h-17l-98 -296h213z" />
    <glyph glyph-name="aogonek" unicode="&#x105;" horiz-adv-x="595" 
d="M491 0q-60 -24 -60 -64q0 -31 48 -31q20 0 40 5v-87q-28 -13 -69 -13q-115 0 -115 87q0 66 65 103h12v45q-42 -51 -142 -51h-10q-119 0 -172.5 56.5t-53.5 181.5v22q0 125 58.5 181.5t188.5 56.5h22q130 0 188.5 -52t58.5 -168v-272h-59zM287 115q67 0 91.5 28t24.5 106
q0 72 -23 96.5t-88 24.5t-87.5 -25.5t-22.5 -101.5t21.5 -102t83.5 -26z" />
    <glyph glyph-name="Cacute" unicode="&#x106;" horiz-adv-x="722" 
d="M40 326v28q0 179 74 256t245 77h26q157 0 227.5 -58.5t71.5 -192.5h-157q-1 64 -37 89t-118 25q-101 0 -136.5 -43.5t-35.5 -166.5t35.5 -166.5t136.5 -43.5q83 0 119 25.5t37 91.5h156q-1 -135 -71.5 -194.5t-227.5 -59.5h-26q-171 0 -245 77t-74 256zM278 790l195 116
l48 -101l-212 -80z" />
    <glyph glyph-name="cacute" unicode="&#x107;" horiz-adv-x="568" 
d="M34 232v22q0 125 59 181.5t188 56.5h21q121 0 176.5 -46t56.5 -150h-144q-1 40 -23 55.5t-76 15.5q-65 0 -87.5 -25t-22.5 -99q0 -75 22.5 -100t87.5 -25q54 0 76.5 16.5t22.5 58.5h144q-1 -105 -56.5 -152.5t-176.5 -47.5h-21q-129 0 -188 56.5t-59 182.5zM194 595
l195 116l48 -101l-212 -80z" />
    <glyph glyph-name="Ccircumflex" unicode="&#x108;" horiz-adv-x="722" 
d="M40 326v28q0 179 74 256t245 77h26q157 0 227.5 -58.5t71.5 -192.5h-157q-1 64 -37 89t-118 25q-101 0 -136.5 -43.5t-35.5 -166.5t35.5 -166.5t136.5 -43.5q83 0 119 25.5t37 91.5h156q-1 -135 -71.5 -194.5t-227.5 -59.5h-26q-171 0 -245 77t-74 256zM204 784l146 114
h47l146 -114l-39 -58l-131 71l-130 -71z" />
    <glyph glyph-name="ccircumflex" unicode="&#x109;" horiz-adv-x="568" 
d="M34 232v22q0 125 59 181.5t188 56.5h21q121 0 176.5 -46t56.5 -150h-144q-1 40 -23 55.5t-76 15.5q-65 0 -87.5 -25t-22.5 -99q0 -75 22.5 -100t87.5 -25q54 0 76.5 16.5t22.5 58.5h144q-1 -105 -56.5 -152.5t-176.5 -47.5h-21q-129 0 -188 56.5t-59 182.5zM266 703h47
l146 -114l-39 -58l-131 71l-130 -71l-39 58z" />
    <glyph glyph-name="Cdotaccent" unicode="&#x10a;" horiz-adv-x="722" 
d="M40 326v28q0 179 74 256t245 77h26q157 0 227.5 -58.5t71.5 -192.5h-157q-1 64 -37 89t-118 25q-101 0 -136.5 -43.5t-35.5 -166.5t35.5 -166.5t136.5 -43.5q83 0 119 25.5t37 91.5h156q-1 -135 -71.5 -194.5t-227.5 -59.5h-26q-171 0 -245 77t-74 256zM297 868h154v-125
h-154v125z" />
    <glyph glyph-name="cdotaccent" unicode="&#x10b;" horiz-adv-x="568" 
d="M34 232v22q0 125 59 181.5t188 56.5h21q121 0 176.5 -46t56.5 -150h-144q-1 40 -23 55.5t-76 15.5q-65 0 -87.5 -25t-22.5 -99q0 -75 22.5 -100t87.5 -25q54 0 76.5 16.5t22.5 58.5h144q-1 -105 -56.5 -152.5t-176.5 -47.5h-21q-129 0 -188 56.5t-59 182.5zM217 669h146
v-121h-146v121z" />
    <glyph glyph-name="Ccaron" unicode="&#x10c;" horiz-adv-x="722" 
d="M40 326v28q0 179 74 256t245 77h26q157 0 227.5 -58.5t71.5 -192.5h-157q-1 64 -37 89t-118 25q-101 0 -136.5 -43.5t-35.5 -166.5t35.5 -166.5t136.5 -43.5q83 0 119 25.5t37 91.5h156q-1 -135 -71.5 -194.5t-227.5 -59.5h-26q-171 0 -245 77t-74 256zM204 842l39 57
l130 -71l131 71l39 -57l-146 -114h-47z" />
    <glyph glyph-name="ccaron" unicode="&#x10d;" horiz-adv-x="568" 
d="M34 232v22q0 125 59 181.5t188 56.5h21q121 0 176.5 -46t56.5 -150h-144q-1 40 -23 55.5t-76 15.5q-65 0 -87.5 -25t-22.5 -99q0 -75 22.5 -100t87.5 -25q54 0 76.5 16.5t22.5 58.5h144q-1 -105 -56.5 -152.5t-176.5 -47.5h-21q-129 0 -188 56.5t-59 182.5zM120 647
l39 58l130 -72l131 72l39 -58l-146 -114h-47z" />
    <glyph glyph-name="Dcaron" unicode="&#x10e;" horiz-adv-x="727" 
d="M54 680h309q174 0 248.5 -74.5t74.5 -251.5v-28q0 -177 -74.5 -251.5t-248.5 -74.5h-309v680zM211 543v-406h140q104 0 140 40.5t36 162.5t-36 162.5t-140 40.5h-140zM207 842l39 57l130 -71l131 71l39 -57l-146 -114h-47z" />
    <glyph glyph-name="dcaron" unicode="&#x10f;" horiz-adv-x="754" 
d="M89 435q54 56 174 56h10q86 0 131 -30v219h146v-463q0 -118 -58.5 -171t-188.5 -53h-22q-130 0 -188.5 56.5t-58.5 182.5v22q0 124 55 181zM182 243q0 -76 23 -102q22 -26 87 -26t88 25.5t23 99.5q0 76 -24 103t-90 27q-64 0 -85.5 -25.5t-21.5 -101.5zM601 495h22
q40 0 40 42v20h-60v123h144v-145q0 -55 -27 -81t-85 -26h-34v67z" />
    <glyph glyph-name="Dcroat" unicode="&#x110;" horiz-adv-x="741" 
d="M0 280v120h69v280h309q174 0 248.5 -74.5t74.5 -251.5v-28q0 -177 -74.5 -251.5t-248.5 -74.5h-309v280h-69zM226 137h140q104 0 140 40.5t36 162.5t-36 162.5t-140 40.5h-140v-143h162v-120h-162v-143z" />
    <glyph glyph-name="dcroat" unicode="&#x111;" horiz-adv-x="598" 
d="M89 435q54 56 174 56h10q86 0 131 -30v78h-122v90h122v51h146v-51h53v-90h-53v-322q0 -118 -58.5 -171t-188.5 -53h-22q-130 0 -188.5 56.5t-58.5 182.5v22q0 124 55 181zM182 243q0 -76 23 -102q22 -26 87 -26t88 25.5t23 99.5q0 76 -24 103t-90 27q-64 0 -85.5 -25.5
t-21.5 -101.5z" />
    <glyph glyph-name="Emacron" unicode="&#x112;" horiz-adv-x="614" 
d="M54 680h515v-130h-358v-142h342v-128h-342v-150h361v-130h-518v680zM487 848v-96h-323v96h323z" />
    <glyph glyph-name="emacron" unicode="&#x113;" horiz-adv-x="576" 
d="M34 254q0 125 59 181.5t189 56.5h22q124 0 180.5 -59.5t56.5 -189.5v-43h-365q5 -59 30.5 -80t92.5 -21q54 0 76.5 12.5t23.5 45.5h141q-1 -85 -57 -124.5t-175 -39.5h-22q-133 0 -192.5 56.5t-59.5 182.5v22zM137 658h314v-96h-314v96zM402 295q-5 50 -28 70t-80 20
q-59 0 -84.5 -19t-32.5 -71h225z" />
    <glyph glyph-name="Ebreve" unicode="&#x114;" horiz-adv-x="614" 
d="M54 680h515v-130h-358v-142h342v-128h-342v-150h361v-130h-518v680zM252 889q0 -43 15 -58t59 -15t58.5 15t15.5 58h89q-1 -88 -38 -124t-125 -36t-125 36t-38 124h89z" />
    <glyph glyph-name="ebreve" unicode="&#x115;" horiz-adv-x="576" 
d="M34 232v22q0 125 59 181.5t189 56.5h22q124 0 180.5 -59.5t56.5 -189.5v-43h-365q5 -59 30.5 -80t92.5 -21q54 0 76.5 12.5t23.5 45.5h141q-1 -85 -57 -124.5t-175 -39.5h-22q-133 0 -192.5 56.5t-59.5 182.5zM220 697q0 -43 15 -58t59 -15t58.5 15t15.5 58h89
q-1 -88 -38 -123q-37 -36 -125 -36t-125 35.5t-38 123.5h89zM177 295h225q-5 50 -28 70t-80 20q-59 0 -84.5 -19t-32.5 -71z" />
    <glyph glyph-name="Edotaccent" unicode="&#x116;" horiz-adv-x="614" 
d="M54 0v680h515v-130h-358v-142h342v-128h-342v-150h361v-130h-518zM403 868v-125h-154v125h154z" />
    <glyph glyph-name="edotaccent" unicode="&#x117;" horiz-adv-x="576" 
d="M34 232v22q0 125 59 181.5t189 56.5h22q124 0 180.5 -59.5t56.5 -189.5v-43h-365q5 -59 30.5 -80t92.5 -21q54 0 76.5 12.5t23.5 45.5h141q-1 -85 -57 -124.5t-175 -39.5h-22q-133 0 -192.5 56.5t-59.5 182.5zM221 553v121h146v-121h-146zM402 295q-5 50 -28 70t-80 20
q-59 0 -84.5 -19t-32.5 -71h225z" />
    <glyph glyph-name="Eogonek" unicode="&#x118;" horiz-adv-x="614" 
d="M569 680v-130h-358v-142h342v-128h-342v-150h361v-130h-22q-60 -24 -60 -64q0 -31 48 -31q20 0 40 5v-87q-28 -13 -69 -13q-115 0 -115 87q0 66 65 103h-405v680h515z" />
    <glyph glyph-name="eogonek" unicode="&#x119;" horiz-adv-x="576" 
d="M93 436q59 56 189 56h22q124 0 180.5 -59.5t56.5 -189.5v-43h-365q5 -59 30.5 -80t92.5 -21q54 0 76.5 12.5t23.5 45.5h141q-2 -68 -36 -106t-106 -51h2q-60 -24 -60 -64q0 -31 48 -31q20 0 40 5v-87q-28 -13 -69 -13q-115 0 -115 87q0 59 54 96h-12q-133 0 -192.5 56.5
t-59.5 182.5v22q0 125 59 182zM177 295h225q-5 50 -28 70t-80 20q-59 0 -84.5 -19t-32.5 -71z" />
    <glyph glyph-name="Ecaron" unicode="&#x11a;" horiz-adv-x="614" 
d="M54 680h515v-130h-358v-142h342v-128h-342v-150h361v-130h-518v680zM156 842l39 57l130 -71l131 71l39 -57l-146 -114h-47z" />
    <glyph glyph-name="ecaron" unicode="&#x11b;" horiz-adv-x="576" 
d="M34 254q0 125 59 181.5t189 56.5h22q124 0 180.5 -59.5t56.5 -189.5v-43h-365q5 -59 30.5 -80t92.5 -21q54 0 76.5 12.5t23.5 45.5h141q-1 -85 -57 -124.5t-175 -39.5h-22q-133 0 -192.5 56.5t-59.5 182.5v22zM163 710l130 -72l131 72l39 -58l-146 -114h-47l-146 114z
M177 295h225q-5 50 -28 70t-80 20q-59 0 -84.5 -19t-32.5 -71z" />
    <glyph glyph-name="Gcircumflex" unicode="&#x11c;" horiz-adv-x="746" 
d="M40 354q0 179 75 256t250 77h26q157 0 228.5 -55.5t75.5 -180.5h-158q-2 58 -38.5 81.5t-120.5 23.5q-104 0 -141 -44.5t-37 -171.5q0 -128 38 -172t149 -44q89 0 125 23t37 85h-169v121h318v-128q0 -122 -75 -177t-233 -55h-25q-175 0 -250 77t-75 256v28zM213 784
l146 114h47l146 -114l-39 -58l-131 71l-130 -71z" />
    <glyph glyph-name="gcircumflex" unicode="&#x11d;" horiz-adv-x="587" 
d="M34 265q0 118 58.5 172.5t184.5 54.5h22q125 0 184 -54.5t59 -166.5v-244q0 -126 -54.5 -175t-191.5 -49h-22q-121 0 -174 39.5t-55 127.5h144q1 -33 23.5 -46t76.5 -13q68 0 88.5 19.5t20.5 79.5v37q-45 -30 -130 -30h-10q-116 0 -170 54.5t-54 171.5v22zM203 158
q21 -25 82 -25q63 0 86.5 26.5t23.5 95.5q0 68 -22.5 92t-84.5 24t-84 -24.5t-22 -94.5t21 -94zM122 589l146 114h47l146 -114l-39 -58l-131 71l-130 -71z" />
    <glyph glyph-name="Gbreve" unicode="&#x11e;" horiz-adv-x="746" 
d="M40 354q0 179 75 256t250 77h26q157 0 228.5 -55.5t75.5 -180.5h-158q-2 58 -38.5 81.5t-120.5 23.5q-104 0 -141 -44.5t-37 -171.5q0 -128 38 -172t149 -44q89 0 125 23t37 85h-169v121h318v-128q0 -122 -75 -177t-233 -55h-25q-175 0 -250 77t-75 256v28zM220 889h89
q0 -43 15 -58t59 -15t58.5 15t15.5 58h89q-1 -88 -38 -124t-125 -36t-125 36t-38 124z" />
    <glyph glyph-name="gbreve" unicode="&#x11f;" horiz-adv-x="587" 
d="M34 265q0 118 58.5 172.5t184.5 54.5h22q125 0 184 -54.5t59 -166.5v-244q0 -126 -54.5 -175t-191.5 -49h-22q-121 0 -174 39.5t-55 127.5h144q1 -33 23.5 -46t76.5 -13q68 0 88.5 19.5t20.5 79.5v37q-45 -30 -130 -30h-10q-116 0 -170 54.5t-54 171.5v22zM182 252
q0 -70 21 -94.5t82 -24.5q63 0 86.5 26.5t23.5 95.5q0 68 -22.5 92t-84.5 24t-84 -24.5t-22 -94.5zM218 692q0 -43 15 -58t59 -15t58.5 15t15.5 58h89q-1 -88 -38 -123q-37 -36 -125 -36t-125 35.5t-38 123.5h89z" />
    <glyph glyph-name="Gdotaccent" unicode="&#x120;" horiz-adv-x="746" 
d="M40 326v28q0 179 75 256t250 77h26q157 0 228.5 -55.5t75.5 -180.5h-158q-2 58 -38.5 81.5t-120.5 23.5q-104 0 -141 -44.5t-37 -171.5q0 -128 38 -172t149 -44q89 0 125 23t37 85h-169v121h318v-128q0 -122 -75 -177t-233 -55h-25q-175 0 -250 77t-75 256zM460 868v-125
h-154v125h154z" />
    <glyph glyph-name="gdotaccent" unicode="&#x121;" horiz-adv-x="587" 
d="M34 265q0 118 58.5 172.5t184.5 54.5h22q125 0 184 -54.5t59 -166.5v-244q0 -126 -54.5 -175t-191.5 -49h-22q-121 0 -174 39.5t-55 127.5h144q1 -33 23.5 -46t76.5 -13q68 0 88.5 19.5t20.5 79.5v37q-45 -30 -130 -30h-10q-116 0 -170 54.5t-54 171.5v22zM182 252
q0 -70 21 -94.5t82 -24.5q63 0 86.5 26.5t23.5 95.5q0 68 -22.5 92t-84.5 24t-84 -24.5t-22 -94.5zM219 669h146v-121h-146v121z" />
    <glyph glyph-name="uni0122" unicode="&#x122;" horiz-adv-x="746" 
d="M40 326v28q0 179 75 256t250 77h26q157 0 228.5 -55.5t75.5 -180.5h-158q-2 58 -38.5 81.5t-120.5 23.5q-104 0 -141 -44.5t-37 -171.5q0 -128 38 -172t149 -44q89 0 125 23t37 85h-169v121h318v-128q0 -122 -75 -177t-233 -55h-25q-175 0 -250 77t-75 256zM310 -54h145
v-117q0 -50 -24.5 -72t-78.5 -22h-42v59h27q39 0 39 40v9h-66v103z" />
    <glyph glyph-name="uni0123" unicode="&#x123;" horiz-adv-x="587" 
d="M34 265q0 118 58.5 172.5t184.5 54.5h22q125 0 184 -54.5t59 -166.5v-244q0 -126 -54.5 -175t-191.5 -49h-22q-121 0 -174 39.5t-55 127.5h144q1 -33 23.5 -46t76.5 -13q68 0 88.5 19.5t20.5 79.5v37q-45 -30 -130 -30h-10q-116 0 -170 54.5t-54 171.5v22zM203 158
q21 -25 82 -25q63 0 86.5 26.5t23.5 95.5q0 68 -22.5 92t-84.5 24t-84 -24.5t-22 -94.5t21 -94zM245 736q24 21 78 21h42v-58h-27q-39 0 -39 -39v-9h65v-103h-144v117q0 49 25 71z" />
    <glyph glyph-name="Hcircumflex" unicode="&#x124;" horiz-adv-x="733" 
d="M54 0v680h156v-268h313v268h156v-680h-156v278h-313v-278h-156zM344 898h47l146 -114l-39 -58l-131 71l-130 -71l-39 58z" />
    <glyph glyph-name="hcircumflex" unicode="&#x125;" horiz-adv-x="587" 
d="M192 680v-217q46 28 126 28h10q114 0 164.5 -47t50.5 -152v-292h-146v269q0 59 -21.5 80t-79.5 21q-59 0 -81.5 -22t-22.5 -81v-267h-146v680h146zM272 898h47l146 -114l-39 -58l-131 71l-130 -71l-39 58z" />
    <glyph glyph-name="Hbar" unicode="&#x126;" horiz-adv-x="762" 
d="M0 486v121h69v73h156v-73h313v73h156v-73h68v-121h-68v-486h-156v278h-313v-278h-156v486h-69zM225 412h313v74h-313v-74z" />
    <glyph glyph-name="hbar" unicode="&#x127;" horiz-adv-x="589" 
d="M49 629v51h146v-51h122v-90h-122v-76q46 28 126 28h10q114 0 164.5 -47t50.5 -152v-292h-146v269q0 59 -21 80t-80 21t-81.5 -22t-22.5 -81v-267h-146v539h-54v90h54z" />
    <glyph glyph-name="Itilde" unicode="&#x128;" horiz-adv-x="265" 
d="M54 680h156v-680h-156v680zM3 851q25 20 60 20q28 0 77 -25q44 -24 59 -24q27 0 47 45l65 -44q-24 -48 -49.5 -68.5t-60.5 -20.5q-29 0 -77 26q-44 23 -59 23q-27 0 -47 -45l-65 44q24 48 50 69z" />
    <glyph glyph-name="itilde" unicode="&#x129;" horiz-adv-x="240" 
d="M193 485v-485h-146v485h146zM-10 656q26 20 61 20q28 0 77 -25q42 -23 59 -23q28 0 47 44l65 -44q-24 -48 -49.5 -68.5t-60.5 -20.5q-29 0 -77 26q-44 23 -59 23q-27 0 -47 -45l-65 44q24 48 49 69z" />
    <glyph glyph-name="Imacron" unicode="&#x12a;" horiz-adv-x="265" 
d="M-30 848h323v-96h-323v96zM210 0h-156v680h156v-680z" />
    <glyph glyph-name="imacron" unicode="&#x12b;" horiz-adv-x="240" 
d="M-37 653h314v-96h-314v96zM47 485h146v-485h-146v485z" />
    <glyph glyph-name="Ibreve" unicode="&#x12c;" horiz-adv-x="265" 
d="M54 0v680h156v-680h-156zM-31 889h89q0 -43 15 -58t59 -15t58.5 15t15.5 58h89q-1 -88 -38 -124t-125 -36t-125 36t-38 124z" />
    <glyph glyph-name="ibreve" unicode="&#x12d;" horiz-adv-x="240" 
d="M193 485v-485h-146v485h146zM-43 692h89q0 -43 15 -58t59 -15t58.5 15t15.5 58h89q-1 -88 -38 -123q-37 -36 -125 -36t-125 35.5t-38 123.5z" />
    <glyph glyph-name="Iogonek" unicode="&#x12e;" horiz-adv-x="265" 
d="M48 -105q0 68 71 105h-65v680h156v-680q-66 -24 -66 -65q0 -30 41 -30q18 0 35 5v-87q-26 -13 -65 -13q-107 0 -107 85z" />
    <glyph glyph-name="iogonek" unicode="&#x12f;" horiz-adv-x="240" 
d="M102 0h-55v485h146v-485q-64 -24 -64 -65q0 -30 39 -30q16 0 34 5v-87q-26 -13 -64 -13q-106 0 -106 85q0 68 70 105zM193 669v-121h-146v121h146z" />
    <glyph glyph-name="Idotaccent" unicode="&#x130;" horiz-adv-x="265" 
d="M55 868h154v-125h-154v125zM210 0h-156v680h156v-680z" />
    <glyph glyph-name="dotlessi" unicode="&#x131;" horiz-adv-x="240" 
d="M47 485h146v-485h-146v485z" />
    <glyph glyph-name="IJ" unicode="&#x132;" horiz-adv-x="902" 
d="M290 255h157v-17q0 -63 25 -85.5t98 -22.5t99 24.5t26 92.5v433h156v-456q0 -119 -64.5 -175t-205.5 -56h-25q-141 0 -203.5 55.5t-62.5 175.5v31zM210 680v-680h-156v680h156z" />
    <glyph glyph-name="ij" unicode="&#x133;" horiz-adv-x="497" 
d="M226 -64q20 -2 38 -2q24 0 32 8.5t8 37.5v505h146v-523q0 -93 -31.5 -125t-115.5 -32q-52 0 -77 5v126zM47 485h146v-485h-146v485zM304 680h146v-125h-146v125zM193 680v-125h-146v125h146z" />
    <glyph glyph-name="Jcircumflex" unicode="&#x134;" horiz-adv-x="637" 
d="M25 255h157v-17q0 -63 25 -85.5t98 -22.5t99 24.5t26 92.5v433h156v-456q0 -119 -64.5 -175t-205.5 -56h-25q-141 0 -203.5 55.5t-62.5 175.5v31zM338 784l146 114h47l146 -114l-39 -58l-131 71l-130 -71z" />
    <glyph glyph-name="jcircumflex" unicode="&#x135;" horiz-adv-x="240" 
d="M7 -66q24 0 32 8.5t8 37.5v505h146v-523q0 -93 -31.5 -125t-115.5 -32q-52 0 -77 5v126q20 -2 38 -2zM96 703h47l146 -114l-39 -58l-131 71l-130 -71l-39 58z" />
    <glyph glyph-name="uni0136" unicode="&#x136;" horiz-adv-x="689" 
d="M54 0v680h156v-266h53l229 266h192l-292 -336l296 -344h-192l-234 277h-52v-277h-156zM285 -54h145v-117q0 -50 -24.5 -72t-78.5 -22h-42v59h27q39 0 39 40v9h-66v103z" />
    <glyph glyph-name="uni0137" unicode="&#x137;" horiz-adv-x="561" 
d="M47 680h146v-361h34l145 166h179l-210 -234l219 -251h-179l-156 183h-32v-183h-146v680zM253 -204q21 0 30 9t9 29v9h-65v103h144v-116q0 -49 -24.5 -71t-78.5 -22h-42v59h27z" />
    <glyph glyph-name="kgreenlandic" unicode="&#x138;" horiz-adv-x="561" 
d="M47 0v485h146v-166h33l146 166h179l-210 -234l219 -251h-180l-156 183h-31v-183h-146z" />
    <glyph glyph-name="Lacute" unicode="&#x139;" horiz-adv-x="572" 
d="M279 805l-212 -80l-31 65l195 116zM210 134h349v-134h-505v680h156v-546z" />
    <glyph glyph-name="lacute" unicode="&#x13a;" horiz-adv-x="240" 
d="M24 790l195 116l48 -101l-212 -80zM47 680h146v-680h-146v680z" />
    <glyph glyph-name="uni013B" unicode="&#x13b;" horiz-adv-x="572" 
d="M210 680v-546h349v-134h-505v680h156zM391 -54v-117q0 -50 -24.5 -72t-78.5 -22h-42v59h27q39 0 39 40v9h-66v103h145z" />
    <glyph glyph-name="uni013C" unicode="&#x13c;" horiz-adv-x="240" 
d="M47 0v680h146v-680h-146zM47 -204h27q21 0 30 9t9 29v9h-65v103h144v-116q0 -49 -24.5 -71t-78.5 -22h-42v59z" />
    <glyph glyph-name="Lcaron" unicode="&#x13d;" horiz-adv-x="572" 
d="M210 680v-546h349v-134h-505v680h156zM272 428v67h22q40 0 40 42v20h-60v123h144v-145q0 -55 -27 -81t-85 -26h-34z" />
    <glyph glyph-name="lcaron" unicode="&#x13e;" horiz-adv-x="396" 
d="M47 0v680h146v-680h-146zM243 495h22q40 0 40 42v20h-60v123h144v-145q0 -55 -27 -81t-85 -26h-34v67z" />
    <glyph glyph-name="Ldot" unicode="&#x13f;" horiz-adv-x="572" 
d="M210 134h349v-134h-505v680h156v-546zM485 412v-145h-148v145h148z" />
    <glyph glyph-name="ldot" unicode="&#x140;" horiz-adv-x="415" 
d="M47 680h146v-680h-146v680zM253 322h148v-145h-148v145z" />
    <glyph glyph-name="Lslash" unicode="&#x141;" horiz-adv-x="583" 
d="M1 289l65 60v331h156v-187l108 99v-126l-108 -99v-233h349v-134h-505v223l-65 -60v126z" />
    <glyph glyph-name="lslash" unicode="&#x142;" horiz-adv-x="252" 
d="M53 339v341h146v-203l52 49v-119l-52 -49v-358h-146v220l-52 -49v119z" />
    <glyph glyph-name="Nacute" unicode="&#x143;" horiz-adv-x="766" 
d="M54 680h245l260 -528v528h154v-680h-245l-261 530v-530h-153v680zM482 906l48 -101l-212 -80l-31 65z" />
    <glyph glyph-name="nacute" unicode="&#x144;" horiz-adv-x="587" 
d="M45 0v292q0 106 56 153t182 47h22q125 0 181 -47t56 -153v-292h-146v269q0 59 -21.5 80t-80.5 21q-60 0 -81.5 -21t-21.5 -80v-269h-146zM198 595l195 116l48 -101l-212 -80z" />
    <glyph glyph-name="uni0145" unicode="&#x145;" horiz-adv-x="766" 
d="M299 680l260 -528v528h154v-680h-245l-261 530v-530h-153v680h245zM337 -206q39 0 39 40v9h-66v103h145v-117q0 -50 -24.5 -72t-78.5 -22h-42v59h27z" />
    <glyph glyph-name="uni0146" unicode="&#x146;" horiz-adv-x="587" 
d="M45 0v292q0 106 56 153t182 47h22q125 0 181 -47t56 -153v-292h-146v269q0 59 -21.5 80t-80.5 21q-60 0 -81.5 -21t-21.5 -80v-269h-146zM221 -263v59h27q21 0 30 9t9 29v9h-65v103h144v-116q0 -49 -24.5 -71t-78.5 -22h-42z" />
    <glyph glyph-name="Ncaron" unicode="&#x147;" horiz-adv-x="766" 
d="M54 680h245l260 -528v528h154v-680h-245l-261 530v-530h-153v680zM252 899l130 -71l131 71l39 -57l-146 -114h-47l-146 114z" />
    <glyph glyph-name="ncaron" unicode="&#x148;" horiz-adv-x="587" 
d="M45 0v292q0 106 56 153t182 47h22q125 0 181 -47t56 -153v-292h-146v269q0 59 -21.5 80t-80.5 21q-60 0 -81.5 -21t-21.5 -80v-269h-146zM163 705l130 -72l131 72l39 -58l-146 -114h-47l-146 114z" />
    <glyph glyph-name="napostrophe" unicode="&#x149;" horiz-adv-x="673" 
d="M131 0v292q0 106 56 153t182 47h22q125 0 181 -47t56 -153v-292h-146v269q0 59 -21.5 80t-80.5 21q-60 0 -81.5 -21t-21.5 -80v-269h-146zM3 495h22q40 0 40 42v20h-60v123h144v-145q0 -55 -27 -81t-85 -26h-34v67z" />
    <glyph glyph-name="Eng" unicode="&#x14a;" horiz-adv-x="726" 
d="M350 687h26q158 0 228 -58.5t70 -190.5v-453q0 -97 -40.5 -136t-140.5 -39h-110v124h71q37 0 50 14t13 53v413q0 80 -32 108t-122 28t-122.5 -28t-32.5 -108v-414h-156v438q0 132 70 190.5t228 58.5z" />
    <glyph glyph-name="eng" unicode="&#x14b;" horiz-adv-x="587" 
d="M283 492h22q125 0 181 -47t56 -153v-330q0 -93 -31.5 -125t-115.5 -32q-52 0 -77 5v126q20 -2 38 -2q24 0 32 8.5t8 37.5v289q0 59 -21.5 80t-80.5 21q-60 0 -81.5 -21t-21.5 -80v-269h-146v292q0 106 56 153t182 47z" />
    <glyph glyph-name="Omacron" unicode="&#x14c;" horiz-adv-x="750" 
d="M115 610q75 77 247 77h26q173 0 247.5 -77t74.5 -256v-28q0 -179 -74.5 -256t-247.5 -77h-26q-172 0 -247 77t-75 256v28q0 179 75 256zM200 340q0 -124 36.5 -168.5t138.5 -44.5t139 44.5t37 168.5t-37 169q-37 44 -139 44t-138.5 -44.5t-36.5 -168.5zM213 752v96h323
v-96h-323z" />
    <glyph glyph-name="omacron" unicode="&#x14d;" horiz-adv-x="586" 
d="M93 436q59 56 189 56h22q130 0 189 -56.5t59 -181.5v-22q0 -126 -59 -182.5t-189 -56.5h-22q-130 0 -189 56.5t-59 182.5v22q0 125 59 182zM205 141q22 -26 88 -26t88.5 26t22.5 102t-22 102q-23 25 -89 25t-88.5 -26t-22.5 -101q0 -76 23 -102zM136 653h314v-96h-314v96
z" />
    <glyph glyph-name="Obreve" unicode="&#x14e;" horiz-adv-x="750" 
d="M115 610q75 77 247 77h26q173 0 247.5 -77t74.5 -256v-28q0 -179 -74.5 -256t-247.5 -77h-26q-172 0 -247 77t-75 256v28q0 179 75 256zM237 172q36 -45 138 -45t139 44.5t37 168.5t-37 169q-37 44 -139 44t-138.5 -44.5t-36.5 -168.5t37 -168zM212 889h89q0 -43 15 -58
t59 -15t58.5 15t15.5 58h89q-1 -88 -38 -124t-125 -36t-125 36t-38 124z" />
    <glyph glyph-name="obreve" unicode="&#x14f;" horiz-adv-x="586" 
d="M93 436q59 56 189 56h22q130 0 189 -56.5t59 -181.5v-22q0 -126 -59 -182.5t-189 -56.5h-22q-130 0 -189 56.5t-59 182.5v22q0 125 59 182zM205 141q22 -26 88 -26t88.5 26t22.5 102t-22 102q-23 25 -89 25t-88.5 -26t-22.5 -101q0 -76 23 -102zM130 692h89q0 -43 15 -58
t59 -15t58.5 15t15.5 58h89q-1 -88 -38 -123q-37 -36 -125 -36t-125 35.5t-38 123.5z" />
    <glyph glyph-name="Ohungarumlaut" unicode="&#x150;" horiz-adv-x="750" 
d="M40 326v28q0 179 75 256t247 77h26q173 0 247.5 -77t74.5 -256v-28q0 -179 -74.5 -256t-247.5 -77h-26q-172 0 -247 77t-75 256zM200 340q0 -124 36.5 -168.5t138.5 -44.5t139 44.5t37 168.5t-37 169q-37 44 -139 44t-138.5 -44.5t-36.5 -168.5zM531 915l74 -78
l-144 -112l-53 54zM343 915l74 -78l-144 -112l-53 54z" />
    <glyph glyph-name="ohungarumlaut" unicode="&#x151;" horiz-adv-x="586" 
d="M34 232v22q0 125 59 181.5t189 56.5h22q130 0 189 -56.5t59 -181.5v-22q0 -126 -59 -182.5t-189 -56.5h-22q-130 0 -189 56.5t-59 182.5zM182 243q0 -76 22.5 -102t88.5 -26t88.5 26t22.5 102t-22 102q-23 25 -89 25t-88.5 -26t-22.5 -101zM449 720l74 -78l-144 -112
l-53 54zM261 720l74 -78l-144 -112l-53 54z" />
    <glyph glyph-name="OE" unicode="&#x152;" horiz-adv-x="1074" 
d="M47 326v28q0 176 74.5 251t249.5 75h658v-130h-344v-142h328v-128h-328v-150h347v-130h-661q-175 0 -249.5 75t-74.5 251zM242 172q36 -42 140 -42h146v420h-146q-104 0 -140 -42t-36 -168t36 -168z" />
    <glyph glyph-name="oe" unicode="&#x153;" horiz-adv-x="940" 
d="M34 232v22q0 125 59 181.5t189 56.5h22q121 0 173 -56q53 56 171 56h22q123 0 179 -59.5t56 -189.5v-43h-362q4 -59 29.5 -80t91.5 -21q52 0 74.5 13t23.5 45h142q-1 -85 -56.5 -124.5t-173.5 -39.5h-22q-121 0 -175 57q-51 -57 -173 -57h-22q-130 0 -189 56.5t-59 182.5
zM205 141q22 -26 88 -26t88.5 26t22.5 102t-22.5 101.5t-88.5 25.5t-88.5 -26t-22.5 -101q0 -76 23 -102zM766 295q-4 50 -26.5 70t-79.5 20q-59 0 -84 -19t-31 -71h221z" />
    <glyph glyph-name="Racute" unicode="&#x154;" horiz-adv-x="688" 
d="M54 680h338q135 0 194 -50t59 -162v-22q0 -132 -100 -161q53 -11 74.5 -43.5t21.5 -91.5v-150h-157v123q0 56 -25 79t-85 23h-164v-225h-156v680zM210 352h162q70 0 92 18.5t22 79.5q0 62 -22 80.5t-92 18.5h-162v-197zM259 790l195 116l48 -101l-212 -80z" />
    <glyph glyph-name="racute" unicode="&#x155;" horiz-adv-x="511" 
d="M45 0v294q0 107 50.5 152.5t170.5 45.5h21q114 0 160 -45t46 -147v-4h-142q0 44 -15 59t-59 15q-51 0 -68.5 -20t-17.5 -79v-271h-146zM180 595l195 116l48 -101l-212 -80z" />
    <glyph glyph-name="uni0156" unicode="&#x156;" horiz-adv-x="688" 
d="M392 680q135 0 194 -50t59 -162v-22q0 -132 -100 -161q53 -11 74.5 -43.5t21.5 -91.5v-150h-157v123q0 56 -25 79t-85 23h-164v-225h-156v680h338zM210 352h162q70 0 92 18.5t22 79.5q0 62 -22 80.5t-92 18.5h-162v-197zM282 -54h145v-117q0 -50 -24.5 -72t-78.5 -22h-42
v59h27q39 0 39 40v9h-66v103z" />
    <glyph glyph-name="uni0157" unicode="&#x157;" horiz-adv-x="511" 
d="M96 447q50 45 170 45h21q114 0 160 -45t46 -147v-4h-142q0 44 -15 59t-59 15q-51 0 -68.5 -20t-17.5 -79v-271h-146v294q0 107 51 153zM45 -263v59h27q21 0 30 9t9 29v9h-65v103h144v-116q0 -49 -24.5 -71t-78.5 -22h-42z" />
    <glyph glyph-name="Rcaron" unicode="&#x158;" horiz-adv-x="688" 
d="M54 680h338q135 0 194 -50t59 -162v-22q0 -132 -100 -161q53 -11 74.5 -43.5t21.5 -91.5v-150h-157v123q0 56 -25 79t-85 23h-164v-225h-156v680zM372 352q70 0 92 18.5t22 79.5q0 62 -22 80.5t-92 18.5h-162v-197h162zM185 842l39 57l130 -71l131 71l39 -57l-146 -114
h-47z" />
    <glyph glyph-name="rcaron" unicode="&#x159;" horiz-adv-x="511" 
d="M45 0v294q0 107 50.5 152.5t170.5 45.5h21q114 0 160 -45t46 -147v-4h-142q0 44 -15 59t-59 15q-51 0 -68.5 -20t-17.5 -79v-271h-146zM145 705l130 -72l131 72l39 -58l-146 -114h-47l-146 114z" />
    <glyph glyph-name="Sacute" unicode="&#x15a;" horiz-adv-x="676" 
d="M38 493q0 106 63.5 150t212.5 44h23q160 0 221 -45.5t63 -164.5h-154q-1 49 -29 66t-114 17q-76 0 -103 -15.5t-27 -57.5q0 -50 30.5 -62t145.5 -18q82 -4 128.5 -12t80.5 -29.5t46 -57.5t12 -96v-23q0 -108 -64 -152t-219 -44h-23q-164 0 -226.5 46.5t-64.5 167.5h154
q1 -51 30.5 -69t118.5 -18q81 0 109.5 15.5t28.5 58.5q0 48 -30.5 61.5t-138.5 18.5q-160 6 -217 43.5t-57 152.5v23zM438 906l48 -101l-212 -80l-31 65z" />
    <glyph glyph-name="sacute" unicode="&#x15b;" horiz-adv-x="555" 
d="M37 151h141q1 -31 21 -41t79 -10q56 0 75.5 8t19.5 33q0 28 -23.5 37.5t-103.5 10.5q-119 2 -163.5 30.5t-44.5 110.5v22q0 76 52 108t175 32h21q123 0 170.5 -36t49.5 -121h-141q-2 30 -21 40.5t-75 10.5q-53 0 -70.5 -8t-17.5 -33q0 -27 23 -35.5t99 -9.5
q122 -2 167.5 -30.5t45.5 -113.5v-22q0 -77 -53 -109t-179 -32h-21q-127 0 -175.5 35.5t-50.5 122.5zM373 711l48 -101l-212 -80l-31 65z" />
    <glyph glyph-name="Scircumflex" unicode="&#x15c;" horiz-adv-x="676" 
d="M102 643q63 44 212 44h23q160 0 221 -45.5t63 -164.5h-154q-1 49 -29 66t-114 17q-76 0 -103 -15.5t-27 -57.5q0 -50 30.5 -62t145.5 -18q82 -4 128.5 -12t80.5 -29.5t46 -57.5t12 -96v-23q0 -108 -64 -152t-219 -44h-23q-164 0 -226.5 46.5t-64.5 167.5h154
q1 -51 30.5 -69t118.5 -18q81 0 109.5 15.5t28.5 58.5q0 48 -30.5 61.5t-138.5 18.5q-160 6 -217 43.5t-57 152.5v23q0 106 64 150zM169 784l146 114h47l146 -114l-39 -58l-131 71l-130 -71z" />
    <glyph glyph-name="scircumflex" unicode="&#x15d;" horiz-adv-x="555" 
d="M37 151h141q1 -31 21 -41t79 -10q56 0 75.5 8t19.5 33q0 28 -23.5 37.5t-103.5 10.5q-119 2 -163.5 30.5t-44.5 110.5v22q0 76 52 108t175 32h21q123 0 170.5 -36t49.5 -121h-141q-2 30 -21 40.5t-75 10.5q-53 0 -70.5 -8t-17.5 -33q0 -27 23 -35.5t99 -9.5
q122 -2 167.5 -30.5t45.5 -113.5v-22q0 -77 -53 -109t-179 -32h-21q-127 0 -175.5 35.5t-50.5 122.5zM250 703h47l146 -114l-39 -58l-131 71l-130 -71l-39 58z" />
    <glyph glyph-name="Scedilla" unicode="&#x15e;" horiz-adv-x="676" 
d="M102 643q63 44 212 44h23q160 0 221 -45.5t63 -164.5h-154q-1 49 -29 66t-114 17q-76 0 -103 -15.5t-27 -57.5q0 -50 30.5 -62t145.5 -18q82 -4 128.5 -12t80.5 -29.5t46 -57.5t12 -96v-23q0 -108 -64 -152t-219 -44h-23q-164 0 -226.5 46.5t-64.5 167.5h154
q1 -51 30.5 -69t118.5 -18q81 0 109.5 15.5t28.5 58.5q0 48 -30.5 61.5t-138.5 18.5q-160 6 -217 43.5t-57 152.5v23q0 106 64 150zM344 -39l70 -71l-114 -92l-50 49z" />
    <glyph glyph-name="scedilla" unicode="&#x15f;" horiz-adv-x="555" 
d="M37 151h141q1 -31 21 -41t79 -10q56 0 75.5 8t19.5 33q0 28 -23.5 37.5t-103.5 10.5q-119 2 -163.5 30.5t-44.5 110.5v22q0 76 52 108t175 32h21q123 0 170.5 -36t49.5 -121h-141q-2 30 -21 40.5t-75 10.5q-53 0 -70.5 -8t-17.5 -33q0 -27 23 -35.5t99 -9.5
q122 -2 167.5 -30.5t45.5 -113.5v-22q0 -77 -53 -109t-179 -32h-21q-127 0 -175.5 35.5t-50.5 122.5zM279 -39l70 -71l-114 -92l-50 49z" />
    <glyph glyph-name="Scaron" unicode="&#x160;" horiz-adv-x="676" 
d="M38 470v23q0 106 63.5 150t212.5 44h23q160 0 221 -45.5t63 -164.5h-154q-1 49 -29 66t-114 17q-76 0 -103 -15.5t-27 -57.5q0 -50 30.5 -62t145.5 -18q82 -4 128.5 -12t80.5 -29.5t46 -57.5t12 -96v-23q0 -108 -64 -152t-219 -44h-23q-164 0 -226.5 46.5t-64.5 167.5
h154q1 -51 30.5 -69t118.5 -18q81 0 109.5 15.5t28.5 58.5q0 48 -30.5 61.5t-138.5 18.5q-160 6 -217 43.5t-57 152.5zM169 842l39 57l130 -71l131 71l39 -57l-146 -114h-47z" />
    <glyph glyph-name="scaron" unicode="&#x161;" horiz-adv-x="555" 
d="M37 151h141q1 -31 21 -41t79 -10q56 0 75.5 8t19.5 33q0 28 -23.5 37.5t-103.5 10.5q-119 2 -163.5 30.5t-44.5 110.5v22q0 76 52 108t175 32h21q123 0 170.5 -36t49.5 -121h-141q-2 30 -21 40.5t-75 10.5q-53 0 -70.5 -8t-17.5 -33q0 -27 23 -35.5t99 -9.5
q122 -2 167.5 -30.5t45.5 -113.5v-22q0 -77 -53 -109t-179 -32h-21q-127 0 -175.5 35.5t-50.5 122.5zM143 705l130 -72l131 72l39 -58l-146 -114h-47l-146 114z" />
    <glyph glyph-name="uni0162" unicode="&#x162;" horiz-adv-x="598" 
d="M584 680v-134h-207v-546h-156v546h-207v134h570zM300 -39l70 -71l-114 -92l-50 49z" />
    <glyph glyph-name="uni0163" unicode="&#x163;" horiz-adv-x="503" 
d="M5 485h99v115h139v-115h220v-118h-220v-173q0 -42 11 -56.5t40 -14.5q24 0 33 11.5t9 34.5q0 12 -2 26h140q5 -32 5 -54q0 -70 -44 -107.5t-130 -37.5h-23q-102 0 -144 41.5t-42 142.5v187h-91v118zM297 -39l70 -71l-114 -92l-50 49z" />
    <glyph glyph-name="Tcaron" unicode="&#x164;" horiz-adv-x="598" 
d="M14 546v134h570v-134h-207v-546h-156v546h-207zM125 842l39 57l130 -71l131 71l39 -57l-146 -114h-47z" />
    <glyph glyph-name="tcaron" unicode="&#x165;" horiz-adv-x="503" 
d="M5 367v118h99v115h139v-115h220v-118h-220v-173q0 -42 11 -56.5t40 -14.5q24 0 33 11.5t9 34.5q0 12 -2 26h140q5 -32 5 -54q0 -70 -44 -107.5t-130 -37.5h-23q-102 0 -144 41.5t-42 142.5v187h-91zM291 527v67h22q40 0 40 42v20h-60v123h144v-145q0 -55 -27 -81t-85 -26
h-34z" />
    <glyph glyph-name="Tbar" unicode="&#x166;" horiz-adv-x="598" 
d="M14 546v134h570v-134h-207v-146h122v-119h-122v-281h-156v281h-122v119h122v146h-207z" />
    <glyph glyph-name="tbar" unicode="&#x167;" horiz-adv-x="503" 
d="M104 485v115h139v-115h220v-118h-220v-51h117v-85h-117v-37q0 -42 11 -56.5t40 -14.5q24 0 33 11.5t9 34.5q0 12 -2 26h140q5 -32 5 -54q0 -70 -44 -107.5t-130 -37.5h-23q-102 0 -144 41.5t-42 142.5v51h-58v85h58v51h-91v118h99z" />
    <glyph glyph-name="Utilde" unicode="&#x168;" horiz-adv-x="726" 
d="M52 243v437h156v-414q0 -80 32 -108t123 -28t123 28t32 108v414h156v-437q0 -133 -70 -191.5t-228 -58.5h-26q-158 0 -228 58.5t-70 191.5zM182 782q24 48 49.5 68.5t60.5 20.5q28 0 77 -25q44 -24 59 -24q27 0 47 45l65 -44q-24 -48 -49.5 -68.5t-60.5 -20.5
q-29 0 -77 26q-44 23 -59 23q-28 0 -47 -45z" />
    <glyph glyph-name="utilde" unicode="&#x169;" horiz-adv-x="582" 
d="M45 193v292h146v-269q0 -58 21 -79.5t79 -21.5q57 0 78.5 21.5t21.5 79.5v269h146v-292q0 -106 -55.5 -153.5t-179.5 -47.5h-22q-124 0 -179.5 47.5t-55.5 153.5zM112 587q24 48 49.5 68.5t60.5 20.5q28 0 77 -25q42 -23 59 -23q28 0 47 44l65 -44q-24 -48 -49.5 -68.5
t-60.5 -20.5q-29 0 -77 26q-44 23 -59 23q-28 0 -47 -45z" />
    <glyph glyph-name="Umacron" unicode="&#x16a;" horiz-adv-x="726" 
d="M208 680v-414q0 -80 32 -108t123 -28t123 28t32 108v414h156v-437q0 -133 -70 -191.5t-228 -58.5h-26q-158 0 -228 58.5t-70 191.5v437h156zM522 848v-96h-323v96h323z" />
    <glyph glyph-name="umacron" unicode="&#x16b;" horiz-adv-x="582" 
d="M191 485v-269q0 -58 21 -79.5t79 -21.5q57 0 78.5 21.5t21.5 79.5v269h146v-292q0 -106 -55.5 -153.5t-179.5 -47.5h-22q-124 0 -179.5 47.5t-55.5 153.5v292h146zM448 653v-96h-314v96h314z" />
    <glyph glyph-name="Ubreve" unicode="&#x16c;" horiz-adv-x="726" 
d="M52 680h156v-414q0 -80 32 -108t123 -28t123 28t32 108v414h156v-437q0 -133 -70 -191.5t-228 -58.5h-26q-158 0 -228 58.5t-70 191.5v437zM198 889h89q0 -43 15 -58t59 -15t58.5 15t15.5 58h89q-1 -88 -38 -124t-125 -36t-125 36t-38 124z" />
    <glyph glyph-name="ubreve" unicode="&#x16d;" horiz-adv-x="582" 
d="M45 485h146v-269q0 -58 21 -79.5t79 -21.5q57 0 78.5 21.5t21.5 79.5v269h146v-292q0 -106 -55.5 -153.5t-179.5 -47.5h-22q-124 0 -179.5 47.5t-55.5 153.5v292zM128 692h89q0 -43 15 -58t59 -15t58.5 15t15.5 58h89q-1 -88 -38 -123q-37 -36 -125 -36t-125 35.5
t-38 123.5z" />
    <glyph glyph-name="Uring" unicode="&#x16e;" horiz-adv-x="726" 
d="M208 680v-414q0 -80 32 -108t123 -28t123 28t32 108v414h156v-437q0 -133 -70 -191.5t-228 -58.5h-26q-158 0 -228 58.5t-70 191.5v437h156zM256 820q0 45 27 69.5t74 24.5h8q47 0 74 -24.5t27 -69.5v-9q0 -44 -27 -68.5t-74 -24.5h-8q-47 0 -74 24.5t-27 68.5v9z
M361 772q44 0 44 44q0 43 -44 43t-44 -43q0 -44 44 -44z" />
    <glyph glyph-name="uring" unicode="&#x16f;" horiz-adv-x="582" 
d="M191 485v-269q0 -58 21 -79.5t79 -21.5q57 0 78.5 21.5t21.5 79.5v269h146v-292q0 -106 -55.5 -153.5t-179.5 -47.5h-22q-124 0 -179.5 47.5t-55.5 153.5v292h146zM213 691q27 24 74 24h8q47 0 74 -24.5t27 -69.5v-8q0 -45 -27 -69.5t-74 -24.5h-8q-47 0 -74 24.5
t-27 69.5v8q0 45 27 70zM291 574q44 0 44 43t-44 43t-44 -43t44 -43z" />
    <glyph glyph-name="Uhungarumlaut" unicode="&#x170;" horiz-adv-x="726" 
d="M52 680h156v-414q0 -80 32 -108t123 -28t123 28t32 108v414h156v-437q0 -133 -70 -191.5t-228 -58.5h-26q-158 0 -228 58.5t-70 191.5v437zM394 779l123 136l74 -78l-144 -112zM329 915l74 -78l-144 -112l-53 54z" />
    <glyph glyph-name="uhungarumlaut" unicode="&#x171;" horiz-adv-x="582" 
d="M45 485h146v-269q0 -58 21 -79.5t79 -21.5q57 0 78.5 21.5t21.5 79.5v269h146v-292q0 -106 -55.5 -153.5t-179.5 -47.5h-22q-124 0 -179.5 47.5t-55.5 153.5v292zM324 584l123 136l74 -78l-144 -112zM259 720l74 -78l-144 -112l-53 54z" />
    <glyph glyph-name="Uogonek" unicode="&#x172;" horiz-adv-x="726" 
d="M52 243v437h156v-414q0 -80 32 -108t123 -28t123 28t32 108v414h156v-437q0 -111 -48 -169.5t-153 -74.5q-59 -24 -59 -63q0 -31 48 -31q20 0 40 5v-87q-28 -13 -69 -13q-115 0 -115 87q0 59 54 96h-22q-158 0 -228 58.5t-70 191.5z" />
    <glyph glyph-name="uogonek" unicode="&#x173;" horiz-adv-x="582" 
d="M45 193v292h146v-269q0 -58 21 -79.5t79 -21.5q57 0 78.5 21.5t21.5 79.5v269h146v-292q0 -85 -35.5 -132t-112.5 -62q-58 -24 -58 -63q0 -31 48 -31q20 0 40 5v-87q-28 -13 -69 -13q-115 0 -115 87q0 58 52 95h-7q-124 0 -179.5 47.5t-55.5 153.5z" />
    <glyph glyph-name="Wcircumflex" unicode="&#x174;" horiz-adv-x="1105" 
d="M8 680h164l133 -539l136 539h224l136 -539l133 539h162l-181 -680h-221l-142 517l-141 -517h-221zM382 784l146 114h47l146 -114l-39 -58l-131 71l-130 -71z" />
    <glyph glyph-name="wcircumflex" unicode="&#x175;" horiz-adv-x="866" 
d="M6 485h154l83 -349h6l88 349h196l88 -349h6l83 349h150l-130 -485h-207l-90 341l-90 -341h-208zM409 703h47l146 -114l-39 -58l-131 71l-130 -71l-39 58z" />
    <glyph glyph-name="Ycircumflex" unicode="&#x176;" horiz-adv-x="693" 
d="M177 680l172 -286l171 286h171l-266 -431v-249h-156v247l-267 433h175zM178 784l146 114h47l146 -114l-39 -58l-131 71l-130 -71z" />
    <glyph glyph-name="ycircumflex" unicode="&#x177;" horiz-adv-x="587" 
d="M1 485h164l122 -350h13l126 350h159l-186 -499q-21 -56 -37.5 -86t-43.5 -54.5t-64 -33t-96 -8.5q-49 0 -80 6v122q28 -3 60 -3q51 0 73.5 14t39.5 57h-63zM265 703h47l146 -114l-39 -58l-131 71l-130 -71l-39 58z" />
    <glyph glyph-name="Ydieresis" unicode="&#x178;" horiz-adv-x="693" 
d="M2 680h175l172 -286l171 286h171l-266 -431v-249h-156v247zM527 862v-116h-138v116h138zM307 862v-116h-138v116h138z" />
    <glyph glyph-name="Zacute" unicode="&#x179;" horiz-adv-x="665" 
d="M479 805l-212 -80l-31 65l195 116zM225 134h399v-134h-585v148l396 398h-389v134h575v-148z" />
    <glyph glyph-name="zacute" unicode="&#x17a;" horiz-adv-x="516" 
d="M405 610l-212 -80l-31 65l195 116zM212 119h272v-119h-454v132l272 235h-263v118h443v-132z" />
    <glyph glyph-name="Zdotaccent" unicode="&#x17b;" horiz-adv-x="665" 
d="M409 868v-125h-154v125h154zM225 134h399v-134h-585v148l396 398h-389v134h575v-148z" />
    <glyph glyph-name="zdotaccent" unicode="&#x17c;" horiz-adv-x="516" 
d="M331 669v-121h-146v121h146zM212 119h272v-119h-454v132l272 235h-263v118h443v-132z" />
    <glyph glyph-name="Zcaron" unicode="&#x17d;" horiz-adv-x="665" 
d="M355 728h-47l-146 114l39 57l130 -71l131 71l39 -57zM225 134h399v-134h-585v148l396 398h-389v134h575v-148z" />
    <glyph glyph-name="zcaron" unicode="&#x17e;" horiz-adv-x="516" 
d="M281 533h-47l-146 114l39 58l130 -72l131 72l39 -58zM212 119h272v-119h-454v132l272 235h-263v118h443v-132z" />
    <glyph glyph-name="longs" unicode="&#x17f;" horiz-adv-x="296" 
d="M224 680h82v-115h-48q-34 0 -47 -13.5t-13 -49.5v-502h-146v514q0 96 36.5 131t135.5 35z" />
    <glyph glyph-name="uni018F" unicode="&#x18f;" horiz-adv-x="739" 
d="M42 401h495q-7 89 -45 122t-133 33q-77 0 -114 -18.5t-41 -62.5h-157q4 111 77 161.5t225 50.5h26q175 0 249.5 -77t74.5 -256v-28q0 -179 -74 -256t-247 -77h-26q-157 0 -233.5 70.5t-76.5 216.5v121zM241 157q37 -33 121 -33q91 0 129.5 32.5t45.5 121.5h-339
q5 -88 43 -121z" />
    <glyph glyph-name="florin" unicode="&#x192;" horiz-adv-x="630" 
d="M467 565q-35 0 -50.5 -13.5t-22.5 -50.5l-16 -92h142l-21 -119h-142l-57 -328q-17 -93 -54 -125t-120 -32q-53 0 -76 5l21 126q20 -2 38 -2q24 0 33.5 8.5t14.5 37.5l54 310h-106l21 119h106l18 104q16 97 58.5 132t143.5 35h122l-19 -115h-88z" />
    <glyph glyph-name="Ohorn" unicode="&#x1a0;" horiz-adv-x="753" 
d="M115 610q75 77 247 77h26q41 0 89 -7t72 -7q37 0 51.5 13.5t14.5 45.5v55h131v-82q0 -58 -20 -89t-66 -42q50 -75 50 -220v-28q0 -179 -74.5 -256t-247.5 -77h-26q-172 0 -247 77t-75 256v28q0 179 75 256zM237 172q36 -45 138 -45t139 44.5t37 168.5t-37 168.5
t-139 44.5t-138.5 -44.5t-36.5 -168.5t37 -168z" />
    <glyph glyph-name="ohorn" unicode="&#x1a1;" horiz-adv-x="588" 
d="M93 436q59 56 189 56h22q30 0 64 -5t48 -5q28 0 38.5 11.5t10.5 43.5v53h123v-82q0 -55 -14.5 -81.5t-52.5 -36.5q31 -54 31 -136v-22q0 -126 -59 -182.5t-189 -56.5h-22q-130 0 -189 56.5t-59 182.5v22q0 125 59 182zM205 141q22 -26 88 -26t88.5 26t22.5 102
t-22.5 101.5t-88.5 25.5t-88.5 -26t-22.5 -101q0 -76 23 -102z" />
    <glyph glyph-name="Uhorn" unicode="&#x1af;" horiz-adv-x="835" 
d="M52 680h156v-414q0 -80 32 -108t123 -28t123 28t32 108v414h137q29 0 40 12.5t11 40.5v54h129v-80q0 -79 -35.5 -107t-125.5 -28v-329q0 -133 -70 -191.5t-228 -58.5h-26q-158 0 -228 58.5t-70 191.5v437z" />
    <glyph glyph-name="uhorn" unicode="&#x1b0;" horiz-adv-x="682" 
d="M45 485h146v-269q0 -58 21 -79.5t79 -21.5q57 0 78.5 21.5t21.5 79.5v269h123q25 0 35 11t10 39v55h123v-78q0 -75 -30 -99.5t-115 -26.5v-193q0 -106 -55.5 -153.5t-179.5 -47.5h-22q-124 0 -179.5 47.5t-55.5 153.5v292z" />
    <glyph glyph-name="uni01B5" unicode="&#x1b5;" horiz-adv-x="665" 
d="M39 148l131 132h-89v120h209l147 148h-391v132h575v-148l-131 -132h90v-120h-210l-147 -148h401v-132h-585v148z" />
    <glyph glyph-name="uni01B6" unicode="&#x1b6;" horiz-adv-x="516" 
d="M110 198h-55v89h154l92 82h-262v116h443v-126l-80 -72h57v-89h-156l-90 -81h271v-117h-454v126z" />
    <glyph glyph-name="uni01CD" unicode="&#x1cd;" horiz-adv-x="710" 
d="M242 680h227l240 -680h-163l-39 115h-301l-39 -115h-166zM250 247h213l-98 296h-17zM185 842l39 57l130 -71l131 71l39 -57l-146 -114h-47z" />
    <glyph glyph-name="uni01CE" unicode="&#x1ce;" horiz-adv-x="595" 
d="M34 254q0 125 58.5 181.5t188.5 56.5h22q130 0 188.5 -52t58.5 -168v-272h-138v45q-42 -51 -142 -51h-10q-119 0 -172.5 56.5t-53.5 181.5v22zM182 243q0 -76 21.5 -102t83.5 -26q67 0 91.5 28t24.5 106q0 72 -23 96.5t-88 24.5t-87.5 -25.5t-22.5 -101.5zM164 710
l130 -72l131 72l39 -58l-146 -114h-47l-146 114z" />
    <glyph glyph-name="uni01CF" unicode="&#x1cf;" horiz-adv-x="265" 
d="M108 728l-146 114l39 57l130 -71l131 71l39 -57l-146 -114h-47zM210 0h-156v680h156v-680z" />
    <glyph glyph-name="uni01D0" unicode="&#x1d0;" horiz-adv-x="240" 
d="M96 533l-146 114l39 58l130 -72l131 72l39 -58l-146 -114h-47zM47 485h146v-485h-146v485z" />
    <glyph glyph-name="uni01D1" unicode="&#x1d1;" horiz-adv-x="750" 
d="M115 610q75 77 247 77h26q173 0 247.5 -77t74.5 -256v-28q0 -179 -74.5 -256t-247.5 -77h-26q-172 0 -247 77t-75 256v28q0 179 75 256zM237 172q36 -45 138 -45t139 44.5t37 168.5t-37 169q-37 44 -139 44t-138.5 -44.5t-36.5 -168.5t37 -168zM244 899l130 -71l131 71
l39 -57l-146 -114h-47l-146 114z" />
    <glyph glyph-name="uni01D2" unicode="&#x1d2;" horiz-adv-x="586" 
d="M34 232v22q0 125 59 181.5t189 56.5h22q130 0 189 -56.5t59 -181.5v-22q0 -126 -59 -182.5t-189 -56.5h-22q-130 0 -189 56.5t-59 182.5zM205 141q22 -26 88 -26t88.5 26t22.5 102t-22 102q-23 25 -89 25t-88.5 -26t-22.5 -101q0 -76 23 -102zM162 705l130 -72l131 72
l39 -58l-146 -114h-47l-146 114z" />
    <glyph glyph-name="uni01D3" unicode="&#x1d3;" horiz-adv-x="726" 
d="M52 680h156v-414q0 -80 32 -108t123 -28t123 28t32 108v414h156v-437q0 -133 -70 -191.5t-228 -58.5h-26q-158 0 -228 58.5t-70 191.5v437zM191 842l39 57l130 -71l131 71l39 -57l-146 -114h-47z" />
    <glyph glyph-name="uni01D4" unicode="&#x1d4;" horiz-adv-x="582" 
d="M191 485v-269q0 -58 21 -79.5t79 -21.5q57 0 78.5 21.5t21.5 79.5v269h146v-292q0 -106 -55.5 -153.5t-179.5 -47.5h-22q-124 0 -179.5 47.5t-55.5 153.5v292h146zM121 647l39 58l130 -72l131 72l39 -58l-146 -114h-47z" />
    <glyph glyph-name="uni01D5" unicode="&#x1d5;" horiz-adv-x="726" 
d="M52 243v437h156v-414q0 -80 32 -108t123 -28t123 28t32 108v414h156v-437q0 -133 -70 -191.5t-228 -58.5h-26q-158 0 -228 58.5t-70 191.5zM193 1013h323v-96h-323v96zM402 862h138v-116h-138v116zM320 862v-116h-138v116h138z" />
    <glyph glyph-name="uni01D6" unicode="&#x1d6;" horiz-adv-x="582" 
d="M45 193v292h146v-269q0 -58 21 -79.5t79 -21.5q57 0 78.5 21.5t21.5 79.5v269h146v-292q0 -106 -55.5 -153.5t-179.5 -47.5h-22q-124 0 -179.5 47.5t-55.5 153.5zM129 818h314v-96h-314v96zM330 666h136v-115h-136v115zM252 666v-115h-136v115h136z" />
    <glyph glyph-name="uni01D7" unicode="&#x1d7;" horiz-adv-x="726" 
d="M208 680v-414q0 -80 32 -108t123 -28t123 28t32 108v414h156v-437q0 -133 -70 -191.5t-228 -58.5h-26q-158 0 -228 58.5t-70 191.5v437h156zM454 1081l48 -101l-212 -80l-31 65zM402 862h138v-116h-138v116zM320 862v-116h-138v116h138z" />
    <glyph glyph-name="uni01D8" unicode="&#x1d8;" horiz-adv-x="582" 
d="M45 193v292h146v-269q0 -58 21 -79.5t79 -21.5q57 0 78.5 21.5t21.5 79.5v269h146v-292q0 -106 -55.5 -153.5t-179.5 -47.5h-22q-124 0 -179.5 47.5t-55.5 153.5zM385 886l48 -101l-212 -80l-31 65zM330 666h136v-115h-136v115zM252 666v-115h-136v115h136z" />
    <glyph glyph-name="uni01D9" unicode="&#x1d9;" horiz-adv-x="726" 
d="M52 680h156v-414q0 -80 32 -108t123 -28t123 28t32 108v414h156v-437q0 -133 -70 -191.5t-228 -58.5h-26q-158 0 -228 58.5t-70 191.5v437zM224 1074l130 -71l131 71l39 -57l-146 -114h-47l-146 114zM402 862h138v-116h-138v116zM182 862h138v-116h-138v116z" />
    <glyph glyph-name="uni01DA" unicode="&#x1da;" horiz-adv-x="582" 
d="M191 485v-269q0 -58 21 -79.5t79 -21.5q57 0 78.5 21.5t21.5 79.5v269h146v-292q0 -106 -55.5 -153.5t-179.5 -47.5h-22q-124 0 -179.5 47.5t-55.5 153.5v292h146zM116 822l39 58l130 -72l131 72l39 -58l-146 -114h-47zM466 666v-115h-136v115h136zM116 666h136v-115
h-136v115z" />
    <glyph glyph-name="uni01DB" unicode="&#x1db;" horiz-adv-x="726" 
d="M52 243v437h156v-414q0 -80 32 -108t123 -28t123 28t32 108v414h156v-437q0 -133 -70 -191.5t-228 -58.5h-26q-158 0 -228 58.5t-70 191.5zM256 1081l195 -116l-31 -65l-212 80zM402 746v116h138v-116h-138zM320 862v-116h-138v116h138z" />
    <glyph glyph-name="uni01DC" unicode="&#x1dc;" horiz-adv-x="582" 
d="M45 193v292h146v-269q0 -58 21 -79.5t79 -21.5q57 0 78.5 21.5t21.5 79.5v269h146v-292q0 -106 -55.5 -153.5t-179.5 -47.5h-22q-124 0 -179.5 47.5t-55.5 153.5zM139 785l48 101l195 -116l-31 -65zM330 666h136v-115h-136v115zM252 666v-115h-136v115h136z" />
    <glyph glyph-name="uni01E2" unicode="&#x1e2;" horiz-adv-x="1034" 
d="M1 0l337 680h651v-130h-344v-142h328v-128h-328v-150h347v-130h-504v115h-265l-54 -115h-168zM287 247h201v303h-58zM728 848v-96h-323v96h323z" />
    <glyph glyph-name="uni01E3" unicode="&#x1e3;" horiz-adv-x="937" 
d="M31 141v20q0 73 55 103.5t185 30.5h120v11q0 47 -21.5 63t-84.5 16q-56 0 -77 -11t-22 -39h-142q1 87 52.5 122t179.5 35h21q123 0 176 -51q53 51 169 51h22q125 0 181.5 -59t56.5 -190v-43h-366q4 -61 29.5 -82.5t93.5 -21.5q54 0 76 13.5t24 47.5h141
q-1 -85 -57 -124.5t-175 -39.5h-22q-126 0 -178 55q-56 -56 -182 -56h-18q-128 0 -182.5 34.5t-54.5 114.5zM310 658h314v-96h-314v96zM195 110q20 -11 81 -11q65 0 90 19t25 66v15h-108q-66 0 -87.5 -10t-21.5 -39t21 -40zM762 294q-4 52 -26.5 71.5t-80.5 19.5
q-61 0 -86.5 -19t-31.5 -72h225z" />
    <glyph glyph-name="Gcaron" unicode="&#x1e6;" horiz-adv-x="746" 
d="M40 354q0 179 75 256t250 77h26q157 0 228.5 -55.5t75.5 -180.5h-158q-2 58 -38.5 81.5t-120.5 23.5q-104 0 -141 -44.5t-37 -171.5q0 -128 38 -172t149 -44q89 0 125 23t37 85h-169v121h318v-128q0 -122 -75 -177t-233 -55h-25q-175 0 -250 77t-75 256v28zM213 842
l39 57l130 -71l131 71l39 -57l-146 -114h-47z" />
    <glyph glyph-name="gcaron" unicode="&#x1e7;" horiz-adv-x="587" 
d="M34 265q0 118 58.5 172.5t184.5 54.5h22q125 0 184 -54.5t59 -166.5v-244q0 -126 -54.5 -175t-191.5 -49h-22q-121 0 -174 39.5t-55 127.5h144q1 -33 23.5 -46t76.5 -13q68 0 88.5 19.5t20.5 79.5v37q-45 -30 -130 -30h-10q-116 0 -170 54.5t-54 171.5v22zM182 252
q0 -70 21 -94.5t82 -24.5q63 0 86.5 26.5t23.5 95.5q0 68 -22.5 92t-84.5 24t-84 -24.5t-22 -94.5zM161 705l130 -72l131 72l39 -58l-146 -114h-47l-146 114z" />
    <glyph glyph-name="Aringacute" unicode="&#x1fa;" horiz-adv-x="710" 
d="M1 0l241 680h227l240 -680h-163l-39 115h-301l-39 -115h-166zM250 820q0 45 27 69.5t74 24.5h8q47 0 74 -24.5t27 -69.5v-9q0 -44 -27 -68.5t-74 -24.5h-8q-47 0 -74 24.5t-27 68.5v9zM250 247h213l-98 296h-17zM259 1007l195 116l48 -101l-212 -80zM311 816
q0 -44 44 -44t44 44q0 43 -44 43t-44 -43z" />
    <glyph glyph-name="aringacute" unicode="&#x1fb;" horiz-adv-x="595" 
d="M34 232v22q0 125 58.5 181.5t188.5 56.5h22q130 0 188.5 -52t58.5 -168v-272h-138v45q-42 -51 -142 -51h-10q-119 0 -172.5 56.5t-53.5 181.5zM182 243q0 -76 21.5 -102t83.5 -26q67 0 91.5 28t24.5 106q0 72 -23 96.5t-88 24.5t-87.5 -25.5t-22.5 -101.5zM190 626
q0 45 27 69.5t74 24.5h8q47 0 74 -24.5t27 -69.5v-8q0 -45 -27 -69.5t-74 -24.5h-8q-47 0 -74 24.5t-27 69.5v8zM394 915l48 -101l-212 -80l-31 65zM251 622q0 -43 44 -43t44 43t-44 43t-44 -43z" />
    <glyph glyph-name="AEacute" unicode="&#x1fc;" horiz-adv-x="1034" 
d="M1 0l337 680h651v-130h-344v-142h328v-128h-328v-150h347v-130h-504v115h-265l-54 -115h-168zM287 247h201v303h-58zM666 906l48 -101l-212 -80l-31 65z" />
    <glyph glyph-name="aeacute" unicode="&#x1fd;" horiz-adv-x="937" 
d="M31 141v20q0 73 55 103.5t185 30.5h120v11q0 47 -21.5 63t-84.5 16q-56 0 -77 -11t-22 -39h-142q1 87 52.5 122t179.5 35h21q123 0 176 -51q53 51 169 51h22q125 0 181.5 -59t56.5 -190v-43h-366q4 -61 29.5 -82.5t93.5 -21.5q54 0 76 13.5t24 47.5h141
q-1 -85 -57 -124.5t-175 -39.5h-22q-126 0 -178 55q-56 -56 -182 -56h-18q-128 0 -182.5 34.5t-54.5 114.5zM371 600l195 116l48 -101l-212 -80zM195 110q20 -11 81 -11q65 0 90 19t25 66v15h-108q-66 0 -87.5 -10t-21.5 -39t21 -40zM537 294h225q-4 52 -26.5 71.5
t-80.5 19.5q-61 0 -86.5 -19t-31.5 -72z" />
    <glyph glyph-name="Oslashacute" unicode="&#x1fe;" horiz-adv-x="754" 
d="M38 119l34 28q-30 72 -30 179v28q0 179 75 256t247 77h26q162 0 239 -73l87 73v-125l-34 -28q30 -72 30 -180v-28q0 -179 -74.5 -256t-247.5 -77h-26q-160 0 -238 74l-88 -74v126zM377 127q102 0 139 44.5t37 168.5q0 52 -5 81l-304 -255q36 -39 133 -39zM202 340
q0 -49 4 -80l305 255q-38 38 -134 38q-102 0 -138.5 -44.5t-36.5 -168.5zM476 906l48 -101l-212 -80l-31 65z" />
    <glyph glyph-name="oslashacute" unicode="&#x1ff;" horiz-adv-x="590" 
d="M31 -5v106l24 17q-19 47 -19 114v22q0 125 59 181.5t189 56.5h22q121 0 182 -55l72 53v-106l-24 -18q18 -46 18 -112v-22q0 -126 -59 -182.5t-189 -56.5h-22q-120 0 -181 55zM394 711l48 -101l-212 -80l-31 65zM185 214l189 139q-22 17 -79 17q-66 0 -88.5 -26
t-22.5 -101q0 -20 1 -29zM217 132q22 -17 78 -17q66 0 88.5 26t22.5 102q0 19 -1 27z" />
    <glyph glyph-name="uni0218" unicode="&#x218;" horiz-adv-x="676" 
d="M38 470v23q0 106 63.5 150t212.5 44h23q160 0 221 -45.5t63 -164.5h-154q-1 49 -29 66t-114 17q-76 0 -103 -15.5t-27 -57.5q0 -50 30.5 -62t145.5 -18q82 -4 128.5 -12t80.5 -29.5t46 -57.5t12 -96v-23q0 -108 -64 -152t-219 -44h-23q-164 0 -226.5 46.5t-64.5 167.5
h154q1 -51 30.5 -69t118.5 -18q81 0 109.5 15.5t28.5 58.5q0 48 -30.5 61.5t-138.5 18.5q-160 6 -217 43.5t-57 152.5zM293 -206q39 0 39 40v9h-66v103h145v-117q0 -50 -24.5 -72t-78.5 -22h-42v59h27z" />
    <glyph glyph-name="uni0219" unicode="&#x219;" horiz-adv-x="555" 
d="M178 151q1 -31 21 -41t79 -10q56 0 75.5 8t19.5 33q0 28 -23.5 37.5t-103.5 10.5q-119 2 -163.5 30.5t-44.5 110.5v22q0 76 52 108t175 32h21q123 0 170.5 -36t49.5 -121h-141q-2 30 -21 40.5t-75 10.5q-53 0 -70.5 -8t-17.5 -33q0 -27 23 -35.5t99 -9.5
q122 -2 167.5 -30.5t45.5 -113.5v-22q0 -77 -53 -109t-179 -32h-21q-127 0 -175.5 35.5t-50.5 122.5h141zM201 -263v59h27q21 0 30 9t9 29v9h-65v103h144v-116q0 -49 -24.5 -71t-78.5 -22h-42z" />
    <glyph glyph-name="uni021A" unicode="&#x21a;" horiz-adv-x="598" 
d="M584 680v-134h-207v-546h-156v546h-207v134h570zM249 -206q39 0 39 40v9h-66v103h145v-117q0 -50 -24.5 -72t-78.5 -22h-42v59h27z" />
    <glyph glyph-name="uni021B" unicode="&#x21b;" horiz-adv-x="503" 
d="M5 485h99v115h139v-115h220v-118h-220v-173q0 -42 11 -56.5t40 -14.5q24 0 33 11.5t9 34.5q0 12 -2 26h140q5 -32 5 -54q0 -70 -44 -107.5t-130 -37.5h-23q-102 0 -144 41.5t-42 142.5v187h-91v118zM219 -204h27q21 0 30 9t9 29v9h-65v103h144v-116q0 -49 -24.5 -71
t-78.5 -22h-42v59z" />
    <glyph glyph-name="uni0232" unicode="&#x232;" horiz-adv-x="693" 
d="M177 680l172 -286l171 286h171l-266 -431v-249h-156v247l-267 433h175zM509 848v-96h-323v96h323z" />
    <glyph glyph-name="uni0233" unicode="&#x233;" horiz-adv-x="587" 
d="M1 485h164l122 -350h13l126 350h159l-186 -499q-21 -56 -37.5 -86t-43.5 -54.5t-64 -33t-96 -8.5q-49 0 -80 6v122q28 -3 60 -3q51 0 73.5 14t39.5 57h-63zM446 653v-96h-314v96h314z" />
    <glyph glyph-name="uni0237" unicode="&#x237;" horiz-adv-x="240" 
d="M-31 -190v126q20 -2 38 -2q24 0 32 8.5t8 37.5v505h146v-523q0 -93 -31.5 -125t-115.5 -32q-52 0 -77 5z" />
    <glyph glyph-name="uni0259" unicode="&#x259;" horiz-adv-x="578" 
d="M36 293h364q-5 55 -30.5 75t-90.5 20q-53 0 -75 -12t-25 -41h-141q5 81 59.5 119t172.5 38h21q133 0 192.5 -56.5t59.5 -181.5v-22q0 -126 -58.5 -182.5t-189.5 -56.5h-21q-125 0 -181.5 59t-56.5 191v50zM202 123q22 -22 81 -22q62 0 87.5 21t30.5 79h-225q4 -57 26 -78
z" />
    <glyph glyph-name="uni02BB" unicode="&#x2bb;" 
d="M-320 576q0 108 112 108h35v-67h-23q-40 0 -40 -42v-20h61v-123h-145v144z" />
    <glyph glyph-name="uni02BC" unicode="&#x2bc;" 
d="M-320 495h22q40 0 40 42v20h-60v123h144v-145q0 -55 -27 -81t-85 -26h-34v67z" />
    <glyph glyph-name="uni02BE" unicode="&#x2be;" horiz-adv-x="500" 
d="M202 715h4q47 0 74 -24.5t27 -69.5v-8q0 -45 -27 -69.5t-74 -24.5h-4v55q44 0 44 43t-44 43v55z" />
    <glyph glyph-name="uni02BF" unicode="&#x2bf;" horiz-adv-x="500" 
d="M298 519h-4q-47 0 -74 24.5t-27 69.5v8q0 45 27 69.5t74 24.5h4v-55q-44 0 -44 -43t44 -43v-55z" />
    <glyph glyph-name="circumflex" unicode="&#x2c6;" horiz-adv-x="500" 
d="M226 703h48l145 -114l-39 -58l-130 71l-130 -71l-39 58z" />
    <glyph glyph-name="caron" unicode="&#x2c7;" horiz-adv-x="500" 
d="M226 533l-145 114l39 58l130 -72l130 72l39 -58l-145 -114h-48z" />
    <glyph glyph-name="uni02C9" unicode="&#x2c9;" horiz-adv-x="500" 
d="M191 653l216 -25l-98 -71l-216 24z" />
    <glyph glyph-name="breve" unicode="&#x2d8;" horiz-adv-x="500" 
d="M250 533q-88 0 -125 35.5t-38 123.5h89q1 -43 15.5 -58t58.5 -15t59 15t15 58h89q-1 -88 -38 -123.5t-125 -35.5z" />
    <glyph glyph-name="dotaccent" unicode="&#x2d9;" horiz-adv-x="500" 
d="M177 669h146v-121h-146v121z" />
    <glyph glyph-name="ring" unicode="&#x2da;" horiz-adv-x="500" 
d="M246 715h8q47 0 74 -24.5t27 -69.5v-8q0 -45 -27 -69.5t-74 -24.5h-8q-47 0 -74 24.5t-27 69.5v8q0 45 27 69.5t74 24.5zM250 660q-44 0 -44 -43t44 -43t44 43t-44 43z" />
    <glyph glyph-name="ogonek" unicode="&#x2db;" horiz-adv-x="500" 
d="M306 0q-59 -24 -59 -64q0 -18 11.5 -24.5t35.5 -6.5q20 0 40 5v-87q-28 -13 -69 -13q-115 0 -115 87q0 65 65 103h91z" />
    <glyph glyph-name="tilde" unicode="&#x2dc;" horiz-adv-x="500" 
d="M242 565q-44 23 -59 23q-27 0 -47 -45l-65 44q24 48 49.5 68.5t60.5 20.5q28 0 77 -25q42 -23 59 -23q28 0 47 44l65 -44q-24 -48 -49.5 -68.5t-60.5 -20.5q-29 0 -77 26z" />
    <glyph glyph-name="hungarumlaut" unicode="&#x2dd;" horiz-adv-x="500" 
d="M100 584l122 136l75 -78l-144 -112zM287 584l123 136l74 -78l-144 -112z" />
    <glyph glyph-name="gravecomb" unicode="&#x300;" 
d="M-150 595l-31 -65l-212 80l48 101z" />
    <glyph glyph-name="acutecomb" unicode="&#x301;" 
d="M-342 595l195 116l48 -101l-212 -80z" />
    <glyph glyph-name="uni0302" unicode="&#x302;" 
d="M-270 703h47l146 -114l-39 -58l-131 71l-130 -71l-39 58z" />
    <glyph glyph-name="tildecomb" unicode="&#x303;" 
d="M-376 656q26 20 61 20q28 0 77 -25q42 -23 59 -23q28 0 47 44l65 -44q-24 -48 -49.5 -68.5t-60.5 -20.5q-29 0 -77 26q-44 23 -59 23q-27 0 -47 -45l-65 44q24 48 49 69z" />
    <glyph glyph-name="uni0304" unicode="&#x304;" 
d="M-403 653h314v-96h-314v96z" />
    <glyph glyph-name="uni0306" unicode="&#x306;" 
d="M-409 692h89q0 -43 15 -58t59 -15t58.5 15t15.5 58h89q-1 -88 -38 -123q-37 -36 -125 -36t-125 35.5t-38 123.5z" />
    <glyph glyph-name="uni0307" unicode="&#x307;" 
d="M-319 669h146v-121h-146v121z" />
    <glyph glyph-name="uni0308" unicode="&#x308;" 
d="M-71 666v-115h-136v115h136zM-421 666h136v-115h-136v115z" />
    <glyph glyph-name="hookabovecomb" unicode="&#x309;" 
d="M-253 727h7q108 0 108 -85v-9q0 -67 -106 -100l-47 33q67 26 67 64q0 25 -29 25t-29 -25h-79q3 97 108 97z" />
    <glyph glyph-name="uni030A" unicode="&#x30a;" 
d="M-324 691q27 24 74 24h8q47 0 74 -24.5t27 -69.5v-8q0 -45 -27 -69.5t-74 -24.5h-8q-47 0 -74 24.5t-27 69.5v8q0 45 27 70zM-290 617q0 -43 44 -43t44 43t-44 43t-44 -43z" />
    <glyph glyph-name="uni030B" unicode="&#x30b;" 
d="M-401 584l123 136l74 -78l-144 -112zM-213 584l123 136l74 -78l-144 -112z" />
    <glyph glyph-name="uni030C" unicode="&#x30c;" 
d="M-270 533l-146 114l39 58l130 -72l131 72l39 -58l-146 -114h-47z" />
    <glyph glyph-name="uni0312" unicode="&#x312;" 
d="M-318 665q0 49 24.5 70.5t78.5 21.5h42v-58h-27q-39 0 -39 -39v-9h65v-103h-144v117z" />
    <glyph glyph-name="uni031B" unicode="&#x31b;" 
d="M-167 590v-78q0 -77 -32 -102.5t-121 -25.5h-29v101h15q25 0 34.5 11t9.5 39v55h123z" />
    <glyph glyph-name="dotbelowcomb" unicode="&#x323;" 
d="M-316 -55h140v-117h-140v117z" />
    <glyph glyph-name="uni0326" unicode="&#x326;" 
d="M-319 -204h27q21 0 30 9t9 29v9h-65v103h144v-116q0 -49 -24.5 -71t-78.5 -22h-42v59z" />
    <glyph glyph-name="uni0327" unicode="&#x327;" 
d="M-171 -110l-114 -92l-50 49l94 114z" />
    <glyph glyph-name="uni0328" unicode="&#x328;" 
d="M-336 -103q0 66 65 103h91q-60 -24 -60 -64q0 -31 48 -31q20 0 40 5v-87q-28 -13 -69 -13q-115 0 -115 87z" />
    <glyph glyph-name="uni0331" unicode="&#x331;" 
d="M-403 -65h314v-96h-314v96z" />
    <glyph glyph-name="uni0394" unicode="&#x394;" horiz-adv-x="691" 
d="M452 680l215 -542v-138h-643v138l215 542h213zM335 543l-158 -410h337l-158 410h-21z" />
    <glyph glyph-name="uni03A9" unicode="&#x3a9;" horiz-adv-x="753" 
d="M708 390q0 -50 -13 -89.5t-38 -67.5t-49 -46t-58 -36v-28h149v-123h-289v193q142 40 142 202q0 83 -40 121t-136 38q-95 0 -135 -38.5t-40 -120.5q0 -162 142 -202v-193h-289v123h149v28q-34 18 -58 36t-49 46t-38 67.5t-13 89.5v25q0 140 78.5 206t240.5 66h25
q162 0 240.5 -66t78.5 -206v-25z" />
    <glyph glyph-name="uni03BC" unicode="&#x3bc;" horiz-adv-x="589" 
d="M398 485h146v-292q0 -105 -50 -152t-164 -47h-11q-80 0 -126 28v-212h-146v675h146v-267q0 -59 22.5 -81t81.5 -22t80 21.5t21 79.5v269z" />
    <glyph glyph-name="pi" unicode="&#x3c0;" horiz-adv-x="622" 
d="M47 490h495v-321q0 -28 8 -37t29 -9q17 0 35 2v-126q-38 -5 -74 -5q-82 0 -113 32t-31 125v216h-203v-367h-146v490z" />
    <glyph glyph-name="uni1E0C" unicode="&#x1e0c;" horiz-adv-x="727" 
d="M54 680h309q174 0 248.5 -74.5t74.5 -251.5v-28q0 -177 -74.5 -251.5t-248.5 -74.5h-309v680zM211 137h140q104 0 140 40.5t36 162.5t-36 162.5t-140 40.5h-140v-406zM304 -175v120h146v-120h-146z" />
    <glyph glyph-name="uni1E0D" unicode="&#x1e0d;" horiz-adv-x="595" 
d="M89 435q54 56 174 56h10q86 0 131 -30v219h146v-463q0 -118 -58.5 -171t-188.5 -53h-22q-130 0 -188.5 56.5t-58.5 182.5v22q0 124 55 181zM205 141q22 -26 87 -26t88 25.5t23 99.5q0 76 -24 103t-90 27q-64 0 -85.5 -25.5t-21.5 -101.5t23 -102zM362 -55v-117h-140v117
h140z" />
    <glyph glyph-name="uni1E0E" unicode="&#x1e0e;" horiz-adv-x="727" 
d="M54 680h309q174 0 248.5 -74.5t74.5 -251.5v-28q0 -177 -74.5 -251.5t-248.5 -74.5h-309v680zM211 137h140q104 0 140 40.5t36 162.5t-36 162.5t-140 40.5h-140v-406zM219 -161v96h316v-96h-316z" />
    <glyph glyph-name="uni1E0F" unicode="&#x1e0f;" horiz-adv-x="595" 
d="M34 232v22q0 124 54.5 180.5t174.5 56.5h10q86 0 131 -30v219h146v-463q0 -118 -58.5 -171t-188.5 -53h-22q-130 0 -188.5 56.5t-58.5 182.5zM205 141q22 -26 87 -26t88 25.5t23 99.5q0 76 -24 103t-90 27q-64 0 -85.5 -25.5t-21.5 -101.5t23 -102zM135 -65h314v-96h-314
v96z" />
    <glyph glyph-name="uni1E24" unicode="&#x1e24;" horiz-adv-x="733" 
d="M54 680h156v-268h313v268h156v-680h-156v278h-313v-278h-156v680zM441 -55v-120h-146v120h146z" />
    <glyph glyph-name="uni1E25" unicode="&#x1e25;" horiz-adv-x="587" 
d="M46 0v680h146v-217q46 28 126 28h10q114 0 164.5 -47t50.5 -152v-292h-146v269q0 59 -21.5 80t-79.5 21q-59 0 -81.5 -22t-22.5 -81v-267h-146zM366 -55v-117h-140v117h140z" />
    <glyph glyph-name="uni1E28" unicode="&#x1e28;" horiz-adv-x="733" 
d="M54 680h156v-268h313v268h156v-680h-156v278h-313v-278h-156v680zM373 -39l70 -71l-114 -92l-50 49z" />
    <glyph glyph-name="uni1E29" unicode="&#x1e29;" horiz-adv-x="587" 
d="M46 0v680h146v-217q46 28 126 28h10q114 0 164.5 -47t50.5 -152v-292h-146v269q0 59 -21.5 80t-79.5 21q-59 0 -81.5 -22t-22.5 -81v-267h-146zM301 -39l70 -71l-114 -92l-50 49z" />
    <glyph glyph-name="uni1E2A" unicode="&#x1e2a;" horiz-adv-x="733" 
d="M210 680v-268h313v268h156v-680h-156v278h-313v-278h-156v680h156zM294 -49q0 -43 15 -58t59 -15t58.5 15t15.5 58h89q-1 -88 -38 -124t-125 -36t-125 36t-38 124h89z" />
    <glyph glyph-name="uni1E2B" unicode="&#x1e2b;" horiz-adv-x="587" 
d="M46 0v680h146v-217q46 28 126 28h10q114 0 164.5 -47t50.5 -152v-292h-146v269q0 59 -21.5 80t-79.5 21q-59 0 -81.5 -22t-22.5 -81v-267h-146zM133 -49h89q0 -43 15 -58t59 -15t58.5 15t15.5 58h89q-1 -88 -38 -124t-125 -36t-125 36t-38 124z" />
    <glyph glyph-name="uni1E32" unicode="&#x1e32;" horiz-adv-x="689" 
d="M54 680h156v-266h53l229 266h192l-292 -336l296 -344h-192l-234 277h-52v-277h-156v680zM285 -55h146v-120h-146v120z" />
    <glyph glyph-name="uni1E33" unicode="&#x1e33;" horiz-adv-x="561" 
d="M47 680h146v-361h34l145 166h179l-210 -234l219 -251h-179l-156 183h-32v-183h-146v680zM369 -55v-117h-140v117h140z" />
    <glyph glyph-name="uni1E36" unicode="&#x1e36;" horiz-adv-x="572" 
d="M210 134h349v-134h-505v680h156v-546zM246 -175v120h146v-120h-146z" />
    <glyph glyph-name="uni1E37" unicode="&#x1e37;" horiz-adv-x="240" 
d="M47 680h146v-680h-146v680zM50 -55h140v-117h-140v117z" />
    <glyph glyph-name="uni1E38" unicode="&#x1e38;" horiz-adv-x="572" 
d="M293 848v-96h-323v96h323zM210 134h349v-134h-505v680h156v-546zM246 -175v120h146v-120h-146z" />
    <glyph glyph-name="uni1E39" unicode="&#x1e39;" horiz-adv-x="240" 
d="M-42 848h323v-96h-323v96zM47 680h146v-680h-146v680zM50 -55h140v-117h-140v117z" />
    <glyph glyph-name="uni1E3A" unicode="&#x1e3a;" horiz-adv-x="572" 
d="M210 134h349v-134h-505v680h156v-546zM161 -161v96h316v-96h-316z" />
    <glyph glyph-name="uni1E3B" unicode="&#x1e3b;" horiz-adv-x="240" 
d="M47 680h146v-680h-146v680zM-37 -65h314v-96h-314v96z" />
    <glyph glyph-name="uni1E40" unicode="&#x1e40;" horiz-adv-x="897" 
d="M54 680h243l152 -343l151 343h243v-680h-154v541l-153 -344h-176l-153 344v-541h-153v680zM525 868v-125h-154v125h154z" />
    <glyph glyph-name="uni1E41" unicode="&#x1e41;" horiz-adv-x="914" 
d="M45 298q0 102 54.5 148t174.5 46h20q110 0 163 -51q53 51 162 51h21q119 0 174 -46t55 -148v-298h-146v274q0 55 -21 75.5t-75 20.5t-75.5 -21.5t-21.5 -76.5v-272h-146v272q0 56 -21 77t-76 21q-54 0 -75 -20.5t-21 -75.5v-274h-146v298zM384 548v121h146v-121h-146z
" />
    <glyph glyph-name="uni1E42" unicode="&#x1e42;" horiz-adv-x="897" 
d="M54 680h243l152 -343l151 343h243v-680h-154v541l-153 -344h-176l-153 344v-541h-153v680zM521 -55v-120h-146v120h146z" />
    <glyph glyph-name="uni1E43" unicode="&#x1e43;" horiz-adv-x="914" 
d="M45 298q0 102 54.5 148t174.5 46h20q110 0 163 -51q53 51 162 51h21q119 0 174 -46t55 -148v-298h-146v274q0 55 -21 75.5t-75 20.5t-75.5 -21.5t-21.5 -76.5v-272h-146v272q0 56 -21 77t-76 21q-54 0 -75 -20.5t-21 -75.5v-274h-146v298zM527 -55v-117h-140v117h140z
" />
    <glyph glyph-name="uni1E44" unicode="&#x1e44;" horiz-adv-x="766" 
d="M299 680l260 -528v528h154v-680h-245l-261 530v-530h-153v680h245zM306 868h154v-125h-154v125z" />
    <glyph glyph-name="uni1E45" unicode="&#x1e45;" horiz-adv-x="587" 
d="M45 0v292q0 106 56 153t182 47h22q125 0 181 -47t56 -153v-292h-146v269q0 59 -21.5 80t-80.5 21q-60 0 -81.5 -21t-21.5 -80v-269h-146zM221 548v121h146v-121h-146z" />
    <glyph glyph-name="uni1E46" unicode="&#x1e46;" horiz-adv-x="766" 
d="M54 0v680h245l260 -528v528h154v-680h-245l-261 530v-530h-153zM310 -55h146v-120h-146v120z" />
    <glyph glyph-name="uni1E47" unicode="&#x1e47;" horiz-adv-x="587" 
d="M45 292q0 106 56 153t182 47h22q125 0 181 -47t56 -153v-292h-146v269q0 59 -21.5 80t-80.5 21q-60 0 -81.5 -21t-21.5 -80v-269h-146v292zM364 -55v-117h-140v117h140z" />
    <glyph glyph-name="uni1E48" unicode="&#x1e48;" horiz-adv-x="766" 
d="M54 0v680h245l260 -528v528h154v-680h-245l-261 530v-530h-153zM541 -65v-96h-316v96h316z" />
    <glyph glyph-name="uni1E49" unicode="&#x1e49;" horiz-adv-x="587" 
d="M45 292q0 106 56 153t182 47h22q125 0 181 -47t56 -153v-292h-146v269q0 59 -21.5 80t-80.5 21q-60 0 -81.5 -21t-21.5 -80v-269h-146v292zM137 -161v96h314v-96h-314z" />
    <glyph glyph-name="uni1E58" unicode="&#x1e58;" horiz-adv-x="688" 
d="M54 680h338q135 0 194 -50t59 -162v-22q0 -132 -100 -161q53 -11 74.5 -43.5t21.5 -91.5v-150h-157v123q0 56 -25 79t-85 23h-164v-225h-156v680zM210 352h162q70 0 92 18.5t22 79.5q0 62 -22 80.5t-92 18.5h-162v-197zM432 868v-125h-154v125h154z" />
    <glyph glyph-name="uni1E59" unicode="&#x1e59;" horiz-adv-x="511" 
d="M45 294q0 107 50.5 152.5t170.5 45.5h21q114 0 160 -45t46 -147v-4h-142q0 44 -15 59t-59 15q-51 0 -68.5 -20t-17.5 -79v-271h-146v294zM203 548v121h146v-121h-146z" />
    <glyph glyph-name="uni1E5A" unicode="&#x1e5a;" horiz-adv-x="688" 
d="M54 680h338q135 0 194 -50t59 -162v-22q0 -132 -100 -161q53 -11 74.5 -43.5t21.5 -91.5v-150h-157v123q0 56 -25 79t-85 23h-164v-225h-156v680zM210 352h162q70 0 92 18.5t22 79.5q0 62 -22 80.5t-92 18.5h-162v-197zM282 -55h146v-120h-146v120z" />
    <glyph glyph-name="uni1E5B" unicode="&#x1e5b;" horiz-adv-x="511" 
d="M45 0v294q0 107 50.5 152.5t170.5 45.5h21q114 0 160 -45t46 -147v-4h-142q0 44 -15 59t-59 15q-51 0 -68.5 -20t-17.5 -79v-271h-146zM48 -55h140v-117h-140v117z" />
    <glyph glyph-name="uni1E5C" unicode="&#x1e5c;" horiz-adv-x="688" 
d="M392 680q135 0 194 -50t59 -162v-22q0 -132 -100 -161q53 -11 74.5 -43.5t21.5 -91.5v-150h-157v123q0 56 -25 79t-85 23h-164v-225h-156v680h338zM210 352h162q70 0 92 18.5t22 79.5q0 62 -22 80.5t-92 18.5h-162v-197zM516 848v-96h-323v96h323zM282 -175v120h146v-120
h-146z" />
    <glyph glyph-name="uni1E5D" unicode="&#x1e5d;" horiz-adv-x="511" 
d="M45 0v294q0 107 50.5 152.5t170.5 45.5h21q114 0 160 -45t46 -147v-4h-142q0 44 -15 59t-59 15q-51 0 -68.5 -20t-17.5 -79v-271h-146zM119 653h314v-96h-314v96zM48 -55h140v-117h-140v117z" />
    <glyph glyph-name="uni1E5E" unicode="&#x1e5e;" horiz-adv-x="688" 
d="M392 680q135 0 194 -50t59 -162v-22q0 -132 -100 -161q53 -11 74.5 -43.5t21.5 -91.5v-150h-157v123q0 56 -25 79t-85 23h-164v-225h-156v680h338zM210 549v-197h162q70 0 92 18.5t22 79.5q0 62 -22 80.5t-92 18.5h-162zM197 -65h316v-96h-316v96z" />
    <glyph glyph-name="uni1E5F" unicode="&#x1e5f;" horiz-adv-x="511" 
d="M45 0v294q0 107 50.5 152.5t170.5 45.5h21q114 0 160 -45t46 -147v-4h-142q0 44 -15 59t-59 15q-51 0 -68.5 -20t-17.5 -79v-271h-146zM45 -65h314v-96h-314v96z" />
    <glyph glyph-name="uni1E62" unicode="&#x1e62;" horiz-adv-x="676" 
d="M38 470v23q0 106 63.5 150t212.5 44h23q160 0 221 -45.5t63 -164.5h-154q-1 49 -29 66t-114 17q-76 0 -103 -15.5t-27 -57.5q0 -50 30.5 -62t145.5 -18q82 -4 128.5 -12t80.5 -29.5t46 -57.5t12 -96v-23q0 -108 -64 -152t-219 -44h-23q-164 0 -226.5 46.5t-64.5 167.5
h154q1 -51 30.5 -69t118.5 -18q81 0 109.5 15.5t28.5 58.5q0 48 -30.5 61.5t-138.5 18.5q-160 6 -217 43.5t-57 152.5zM266 -55h146v-120h-146v120z" />
    <glyph glyph-name="uni1E63" unicode="&#x1e63;" horiz-adv-x="555" 
d="M37 151h141q1 -31 21 -41t79 -10q56 0 75.5 8t19.5 33q0 28 -23.5 37.5t-103.5 10.5q-119 2 -163.5 30.5t-44.5 110.5v22q0 76 52 108t175 32h21q123 0 170.5 -36t49.5 -121h-141q-2 30 -21 40.5t-75 10.5q-53 0 -70.5 -8t-17.5 -33q0 -27 23 -35.5t99 -9.5
q122 -2 167.5 -30.5t45.5 -113.5v-22q0 -77 -53 -109t-179 -32h-21q-127 0 -175.5 35.5t-50.5 122.5zM204 -55h140v-117h-140v117z" />
    <glyph glyph-name="uni1E6A" unicode="&#x1e6a;" horiz-adv-x="598" 
d="M14 680h570v-134h-207v-546h-156v546h-207v134zM218 743v125h154v-125h-154z" />
    <glyph glyph-name="uni1E6B" unicode="&#x1e6b;" horiz-adv-x="503" 
d="M5 485h99v115h139v-115h220v-118h-220v-173q0 -42 11 -56.5t40 -14.5q24 0 33 11.5t9 34.5q0 12 -2 26h140q5 -32 5 -54q0 -70 -44 -107.5t-130 -37.5h-23q-102 0 -144 41.5t-42 142.5v187h-91v118zM99 761h146v-121h-146v121z" />
    <glyph glyph-name="uni1E6C" unicode="&#x1e6c;" horiz-adv-x="598" 
d="M14 546v134h570v-134h-207v-546h-156v546h-207zM222 -55h146v-120h-146v120z" />
    <glyph glyph-name="uni1E6D" unicode="&#x1e6d;" horiz-adv-x="503" 
d="M5 485h99v115h139v-115h220v-118h-220v-173q0 -42 11 -56.5t40 -14.5q24 0 33 11.5t9 34.5q0 12 -2 26h140q5 -32 5 -54q0 -70 -44 -107.5t-130 -37.5h-23q-102 0 -144 41.5t-42 142.5v187h-91v118zM362 -55v-117h-140v117h140z" />
    <glyph glyph-name="uni1E6E" unicode="&#x1e6e;" horiz-adv-x="598" 
d="M584 680v-134h-207v-546h-156v546h-207v134h570zM137 -65h316v-96h-316v96z" />
    <glyph glyph-name="uni1E6F" unicode="&#x1e6f;" horiz-adv-x="503" 
d="M5 485h99v115h139v-115h220v-118h-220v-173q0 -42 11 -56.5t40 -14.5q24 0 33 11.5t9 34.5q0 12 -2 26h140q5 -32 5 -54q0 -70 -44 -107.5t-130 -37.5h-23q-102 0 -144 41.5t-42 142.5v187h-91v118zM449 -65v-96h-314v96h314z" />
    <glyph glyph-name="Wgrave" unicode="&#x1e80;" horiz-adv-x="1105" 
d="M8 680h164l133 -539l136 539h224l136 -539l133 539h162l-181 -680h-221l-142 517l-141 -517h-221zM453 906l195 -116l-31 -65l-212 80z" />
    <glyph glyph-name="wgrave" unicode="&#x1e81;" horiz-adv-x="866" 
d="M160 485l83 -349h6l88 349h196l88 -349h6l83 349h150l-130 -485h-207l-90 341l-90 -341h-208l-129 485h154zM286 610l48 101l195 -116l-31 -65z" />
    <glyph glyph-name="Wacute" unicode="&#x1e82;" horiz-adv-x="1105" 
d="M8 680h164l133 -539l136 539h224l136 -539l133 539h162l-181 -680h-221l-142 517l-141 -517h-221zM651 906l48 -101l-212 -80l-31 65z" />
    <glyph glyph-name="wacute" unicode="&#x1e83;" horiz-adv-x="866" 
d="M160 485l83 -349h6l88 349h196l88 -349h6l83 349h150l-130 -485h-207l-90 341l-90 -341h-208l-129 485h154zM532 711l48 -101l-212 -80l-31 65z" />
    <glyph glyph-name="Wdieresis" unicode="&#x1e84;" horiz-adv-x="1105" 
d="M8 680h164l133 -539l136 539h224l136 -539l133 539h162l-181 -680h-221l-142 517l-141 -517h-221zM593 746v116h138v-116h-138zM373 746v116h138v-116h-138z" />
    <glyph glyph-name="wdieresis" unicode="&#x1e85;" horiz-adv-x="866" 
d="M160 485l83 -349h6l88 349h196l88 -349h6l83 349h150l-130 -485h-207l-90 341l-90 -341h-208l-129 485h154zM608 666v-115h-136v115h136zM258 666h136v-115h-136v115z" />
    <glyph glyph-name="uni1E88" unicode="&#x1e88;" horiz-adv-x="1105" 
d="M8 680h164l133 -539l136 539h224l136 -539l133 539h162l-181 -680h-221l-142 517l-141 -517h-221zM479 -175v120h146v-120h-146z" />
    <glyph glyph-name="uni1E89" unicode="&#x1e89;" horiz-adv-x="866" 
d="M160 485l83 -349h6l88 349h196l88 -349h6l83 349h150l-130 -485h-207l-90 341l-90 -341h-208l-129 485h154zM503 -55v-117h-140v117h140z" />
    <glyph glyph-name="uni1E92" unicode="&#x1e92;" horiz-adv-x="665" 
d="M225 134h399v-134h-585v148l396 398h-389v134h575v-148zM259 -175v120h146v-120h-146z" />
    <glyph glyph-name="uni1E93" unicode="&#x1e93;" horiz-adv-x="516" 
d="M212 119h272v-119h-454v132l272 235h-263v118h443v-132zM188 -172v117h140v-117h-140z" />
    <glyph glyph-name="uni1E94" unicode="&#x1e94;" horiz-adv-x="665" 
d="M225 134h399v-134h-585v148l396 398h-389v134h575v-148zM174 -161v96h316v-96h-316z" />
    <glyph glyph-name="uni1E95" unicode="&#x1e95;" horiz-adv-x="516" 
d="M212 119h272v-119h-454v132l272 235h-263v118h443v-132zM101 -161v96h314v-96h-314z" />
    <glyph glyph-name="uni1E96" unicode="&#x1e96;" horiz-adv-x="587" 
d="M192 680v-217q46 28 126 28h10q114 0 164.5 -47t50.5 -152v-292h-146v269q0 59 -21.5 80t-79.5 21q-59 0 -81.5 -22t-22.5 -81v-267h-146v680h146zM139 -161v96h314v-96h-314z" />
    <glyph glyph-name="Germandbls" unicode="&#x1e9e;" horiz-adv-x="713" 
d="M52 463q0 119 69 171.5t212 52.5h24q95 0 166 -33t108 -82v-107l-119 -83q162 -19 162 -170v-23q0 -105 -67.5 -150.5t-229.5 -45.5h-23q-168 0 -234.5 46t-67.5 158h156q0 -44 33.5 -60.5t124.5 -16.5q90 0 121 17.5t31 61.5q0 45 -28.5 60.5t-90.5 15.5h-76v116
l169 120q-38 45 -140 45q-81 0 -112.5 -24.5t-31.5 -94.5v-182h-156v208z" />
    <glyph glyph-name="uni1EA0" unicode="&#x1ea0;" horiz-adv-x="710" 
d="M242 680h227l240 -680h-163l-39 115h-301l-39 -115h-166zM463 247l-98 296h-17l-98 -296h213zM428 -55v-120h-146v120h146z" />
    <glyph glyph-name="uni1EA1" unicode="&#x1ea1;" horiz-adv-x="595" 
d="M93 436q58 56 188 56h22q130 0 188.5 -52t58.5 -168v-272h-138v45q-42 -51 -142 -51h-10q-119 0 -172.5 56.5t-53.5 181.5v22q0 125 59 182zM204 141q21 -26 83 -26q67 0 91.5 28t24.5 106q0 72 -23 96.5t-88 24.5t-87.5 -25.5t-22.5 -101.5t22 -102zM365 -55v-117h-140
v117h140z" />
    <glyph glyph-name="uni1EA2" unicode="&#x1ea2;" horiz-adv-x="710" 
d="M1 0l241 680h227l240 -680h-163l-39 115h-301l-39 -115h-166zM463 247l-98 296h-17l-98 -296h213zM266 898q24 24 82 24h8q57 0 82.5 -21t25.5 -64v-9q0 -67 -107 -100l-48 33q69 25 69 64q0 25 -30 25t-30 -26h-78q1 49 26 74z" />
    <glyph glyph-name="uni1EA3" unicode="&#x1ea3;" horiz-adv-x="595" 
d="M34 232v22q0 125 58.5 181.5t188.5 56.5h22q130 0 188.5 -52t58.5 -168v-272h-138v45q-42 -51 -142 -51h-10q-119 0 -172.5 56.5t-53.5 181.5zM204 141q21 -26 83 -26q67 0 91.5 28t24.5 106q0 72 -23 96.5t-88 24.5t-87.5 -25.5t-22.5 -101.5t22 -102zM288 732h7
q108 0 108 -85v-9q0 -67 -106 -100l-47 33q67 26 67 64q0 25 -29 25t-29 -25h-79q3 97 108 97z" />
    <glyph glyph-name="uni1EA4" unicode="&#x1ea4;" horiz-adv-x="710" 
d="M242 680h227l240 -680h-163l-39 115h-301l-39 -115h-166zM463 247l-98 296h-17l-98 -296h213zM331 898h47l146 -114l-39 -58l-131 71l-130 -71l-39 58zM402 959l195 115l47 -99l-211 -80z" />
    <glyph glyph-name="uni1EA5" unicode="&#x1ea5;" horiz-adv-x="595" 
d="M34 254q0 125 58.5 181.5t188.5 56.5h22q130 0 188.5 -52t58.5 -168v-272h-138v45q-42 -51 -142 -51h-10q-119 0 -172.5 56.5t-53.5 181.5v22zM182 243q0 -76 21.5 -102t83.5 -26q67 0 91.5 28t24.5 106q0 72 -23 96.5t-88 24.5t-87.5 -25.5t-22.5 -101.5zM271 708h47
l146 -114l-39 -58l-131 71l-130 -71l-39 58zM537 885l47 -100l-211 -80l-31 64z" />
    <glyph glyph-name="uni1EA6" unicode="&#x1ea6;" horiz-adv-x="710" 
d="M1 0l241 680h227l240 -680h-163l-39 115h-301l-39 -115h-166zM250 247h213l-98 296h-17zM186 784l146 114h47l146 -114l-39 -58l-130 71l-131 -71zM66 975l47 99l195 -115l-31 -64z" />
    <glyph glyph-name="uni1EA7" unicode="&#x1ea7;" horiz-adv-x="595" 
d="M34 254q0 125 58.5 181.5t188.5 56.5h22q130 0 188.5 -52t58.5 -168v-272h-138v45q-42 -51 -142 -51h-10q-119 0 -172.5 56.5t-53.5 181.5v22zM182 243q0 -76 21.5 -102t83.5 -26q67 0 91.5 28t24.5 106q0 72 -23 96.5t-88 24.5t-87.5 -25.5t-22.5 -101.5zM272 708h47
l146 -114l-39 -58l-130 71l-131 -71l-39 58zM53 885l195 -116l-31 -64l-211 80z" />
    <glyph glyph-name="uni1EA8" unicode="&#x1ea8;" horiz-adv-x="710" 
d="M242 680h227l240 -680h-163l-39 115h-301l-39 -115h-166zM463 247l-98 296h-17l-98 -296h213zM185 784l146 114h47l146 -114l-39 -58l-131 71l-130 -71zM362 962q2 97 108 97h7q108 0 108 -85v-8q0 -69 -106 -100l-48 32q68 26 68 64q0 26 -29 26q-28 0 -30 -26h-78z" />
    <glyph glyph-name="uni1EA9" unicode="&#x1ea9;" horiz-adv-x="595" 
d="M34 254q0 125 58.5 181.5t188.5 56.5h22q130 0 188.5 -52t58.5 -168v-272h-138v45q-42 -51 -142 -51h-10q-119 0 -172.5 56.5t-53.5 181.5v22zM182 243q0 -76 21.5 -102t83.5 -26q67 0 91.5 28t24.5 106q0 72 -23 96.5t-88 24.5t-87.5 -25.5t-22.5 -101.5zM125 594
l146 114h47l146 -114l-39 -58l-131 71l-130 -71zM302 772q2 98 108 98h7q108 0 108 -86v-8q0 -69 -106 -100l-48 33q68 25 68 63q0 26 -29 26q-28 0 -30 -26h-78z" />
    <glyph glyph-name="uni1EAA" unicode="&#x1eaa;" horiz-adv-x="710" 
d="M1 0l241 680h227l240 -680h-163l-39 115h-301l-39 -115h-166zM250 247h213l-98 296h-17zM225 1037q25 20 61 20q28 0 77 -25q44 -23 59 -23q28 0 47 44l65 -43q-24 -48 -49 -68.5t-61 -20.5q-28 0 -77 25q-44 23 -59 23q-28 0 -47 -44l-65 43q24 48 49 69zM331 898h47
l146 -114l-39 -58l-131 71l-130 -71l-39 58z" />
    <glyph glyph-name="uni1EAB" unicode="&#x1eab;" horiz-adv-x="595" 
d="M34 254q0 125 58.5 181.5t188.5 56.5h22q130 0 188.5 -52t58.5 -168v-272h-138v45q-42 -51 -142 -51h-10q-119 0 -172.5 56.5t-53.5 181.5v22zM182 243q0 -76 21.5 -102t83.5 -26q67 0 91.5 28t24.5 106q0 72 -23 96.5t-88 24.5t-87.5 -25.5t-22.5 -101.5zM116 778
q24 48 49 68.5t61 20.5q28 0 77 -25q44 -23 59 -23q28 0 47 45l65 -44q-24 -48 -49 -68.5t-61 -20.5q-28 0 -77 25q-44 23 -59 23q-28 0 -47 -44zM125 594l146 114h47l146 -114l-39 -58l-131 71l-130 -71z" />
    <glyph glyph-name="uni1EAC" unicode="&#x1eac;" horiz-adv-x="710" 
d="M242 680h227l240 -680h-163l-39 115h-301l-39 -115h-166zM250 247h213l-98 296h-17zM185 784l146 114h47l146 -114l-39 -58l-131 71l-130 -71zM428 -55v-120h-146v120h146z" />
    <glyph glyph-name="uni1EAD" unicode="&#x1ead;" horiz-adv-x="595" 
d="M34 232v22q0 125 58.5 181.5t188.5 56.5h22q130 0 188.5 -52t58.5 -168v-272h-138v45q-42 -51 -142 -51h-10q-119 0 -172.5 56.5t-53.5 181.5zM182 243q0 -76 21.5 -102t83.5 -26q67 0 91.5 28t24.5 106q0 72 -23 96.5t-88 24.5t-87.5 -25.5t-22.5 -101.5zM271 708h47
l146 -114l-39 -58l-131 71l-130 -71l-39 58zM365 -55v-117h-140v117h140z" />
    <glyph glyph-name="uni1EAE" unicode="&#x1eae;" horiz-adv-x="710" 
d="M1 0l241 680h227l240 -680h-163l-39 115h-301l-39 -115h-166zM192 889h89q0 -43 15 -58t59 -15t58.5 15t15.5 58h89q-1 -88 -38 -124t-125 -36t-125 36t-38 124zM463 247l-98 296h-17l-98 -296h213zM295 957l195 116l48 -100l-212 -80z" />
    <glyph glyph-name="uni1EAF" unicode="&#x1eaf;" horiz-adv-x="595" 
d="M34 232v22q0 125 58.5 181.5t188.5 56.5h22q130 0 188.5 -52t58.5 -168v-272h-138v45q-42 -51 -142 -51h-10q-119 0 -172.5 56.5t-53.5 181.5zM182 243q0 -76 21.5 -102t83.5 -26q67 0 91.5 28t24.5 106q0 72 -23 96.5t-88 24.5t-87.5 -25.5t-22.5 -101.5zM132 697h89
q0 -43 15 -58t59 -15t58.5 15t15.5 58h89q-1 -88 -38 -123q-37 -36 -125 -36t-125 35.5t-38 123.5zM235 766l196 116l47 -100l-212 -80z" />
    <glyph glyph-name="uni1EB0" unicode="&#x1eb0;" horiz-adv-x="710" 
d="M242 680h227l240 -680h-163l-39 115h-301l-39 -115h-166zM281 889q0 -43 15 -58t59 -15t58.5 15t15.5 58h89q-1 -88 -38 -124t-125 -36t-125 36t-38 124h89zM463 247l-98 296h-17l-98 -296h213zM219 1073l195 -116l-30 -64l-212 80z" />
    <glyph glyph-name="uni1EB1" unicode="&#x1eb1;" horiz-adv-x="595" 
d="M93 436q58 56 188 56h22q130 0 188.5 -52t58.5 -168v-272h-138v45q-42 -51 -142 -51h-10q-119 0 -172.5 56.5t-53.5 181.5v22q0 125 59 182zM182 243q0 -76 21.5 -102t83.5 -26q67 0 91.5 28t24.5 106q0 72 -23 96.5t-88 24.5t-87.5 -25.5t-22.5 -101.5zM132 697h89
q0 -43 15 -58t59 -15t58.5 15t15.5 58h89q-1 -88 -38 -123.5t-125 -35.5t-125 35.5t-38 123.5zM159 882l195 -116l-30 -64l-212 80z" />
    <glyph glyph-name="uni1EB2" unicode="&#x1eb2;" horiz-adv-x="710" 
d="M242 680h227l240 -680h-163l-39 115h-301l-39 -115h-166zM192 887h89q0 -43 15 -58t59 -15t58.5 15t15.5 58h89q-1 -88 -38 -124t-125 -36t-125 36t-38 124zM250 247h213l-98 296h-17zM348 1075h7q108 0 108 -85v-9q0 -67 -106 -100l-47 33q67 24 67 64q0 25 -29 25
t-29 -26h-79q3 98 108 98z" />
    <glyph glyph-name="uni1EB3" unicode="&#x1eb3;" horiz-adv-x="595" 
d="M34 254q0 125 58.5 181.5t188.5 56.5h22q130 0 188.5 -52t58.5 -168v-272h-138v45q-42 -51 -142 -51h-10q-119 0 -172.5 56.5t-53.5 181.5v22zM182 243q0 -76 21.5 -102t83.5 -26q67 0 91.5 28t24.5 106q0 72 -23 96.5t-88 24.5t-87.5 -25.5t-22.5 -101.5zM132 697h89
q0 -43 15 -58t59 -15t58.5 15t15.5 58h89q-1 -88 -38 -123q-37 -36 -125 -36t-125 35.5t-38 123.5zM180 788q3 97 108 97h7q108 0 108 -85v-9q0 -67 -106 -100l-47 33q67 26 67 64q0 25 -29 25t-29 -25h-79z" />
    <glyph glyph-name="uni1EB4" unicode="&#x1eb4;" horiz-adv-x="710" 
d="M1 0l241 680h227l240 -680h-163l-39 115h-301l-39 -115h-166zM281 887q0 -43 15 -58t59 -15t58.5 15t15.5 58h89q-1 -88 -38 -124t-125 -36t-125 36t-38 124h89zM250 247h213l-98 296h-17zM176 970q24 48 49 68.5t61 20.5q28 0 77 -25q44 -23 59 -23q28 0 47 44l65 -43
q-24 -48 -49 -68.5t-61 -20.5q-28 0 -77 25q-44 23 -59 23q-28 0 -47 -45z" />
    <glyph glyph-name="uni1EB5" unicode="&#x1eb5;" horiz-adv-x="595" 
d="M93 436q58 56 188 56h22q130 0 188.5 -52t58.5 -168v-272h-138v45q-42 -51 -142 -51h-10q-119 0 -172.5 56.5t-53.5 181.5v22q0 125 59 182zM182 243q0 -76 21.5 -102t83.5 -26q67 0 91.5 28t24.5 106q0 72 -23 96.5t-88 24.5t-87.5 -25.5t-22.5 -101.5zM132 697h89
q0 -43 15 -58t59 -15t58.5 15t15.5 58h89q-1 -88 -38 -123.5t-125 -35.5t-125 35.5t-38 123.5zM116 780q24 48 49 68.5t61 20.5q28 0 77 -25q44 -23 59 -23q28 0 47 45l65 -44q-24 -48 -49 -68.5t-61 -20.5q-28 0 -77 25q-44 23 -59 23q-28 0 -47 -44z" />
    <glyph glyph-name="uni1EB6" unicode="&#x1eb6;" horiz-adv-x="710" 
d="M242 680h227l240 -680h-163l-39 115h-301l-39 -115h-166zM192 889h89q0 -43 15 -58t59 -15t58.5 15t15.5 58h89q-1 -88 -38 -124t-125 -36t-125 36t-38 124zM463 247l-98 296h-17l-98 -296h213zM282 -55h146v-120h-146v120z" />
    <glyph glyph-name="uni1EB7" unicode="&#x1eb7;" horiz-adv-x="595" 
d="M34 254q0 125 58.5 181.5t188.5 56.5h22q130 0 188.5 -52t58.5 -168v-272h-138v45q-42 -51 -142 -51h-10q-119 0 -172.5 56.5t-53.5 181.5v22zM182 243q0 -76 21.5 -102t83.5 -26q67 0 91.5 28t24.5 106q0 72 -23 96.5t-88 24.5t-87.5 -25.5t-22.5 -101.5zM132 697h89
q0 -43 15 -58t59 -15t58.5 15t15.5 58h89q-1 -88 -38 -123q-37 -36 -125 -36t-125 35.5t-38 123.5zM365 -55v-117h-140v117h140z" />
    <glyph glyph-name="uni1EB8" unicode="&#x1eb8;" horiz-adv-x="614" 
d="M54 680h515v-130h-358v-142h342v-128h-342v-150h361v-130h-518v680zM253 -175v120h146v-120h-146z" />
    <glyph glyph-name="uni1EB9" unicode="&#x1eb9;" horiz-adv-x="576" 
d="M34 232v22q0 125 59 181.5t189 56.5h22q124 0 180.5 -59.5t56.5 -189.5v-43h-365q5 -59 30.5 -80t92.5 -21q54 0 76.5 12.5t23.5 45.5h141q-1 -85 -57 -124.5t-175 -39.5h-22q-133 0 -192.5 56.5t-59.5 182.5zM402 295q-5 50 -28 70t-80 20q-59 0 -84.5 -19t-32.5 -71
h225zM224 -172v117h140v-117h-140z" />
    <glyph glyph-name="uni1EBA" unicode="&#x1eba;" horiz-adv-x="614" 
d="M54 0v680h515v-130h-358v-142h342v-128h-342v-150h361v-130h-518zM237 898q24 24 82 24h8q57 0 82.5 -21t25.5 -64v-9q0 -67 -107 -100l-48 33q69 25 69 64q0 25 -30 25t-30 -26h-78q1 49 26 74z" />
    <glyph glyph-name="uni1EBB" unicode="&#x1ebb;" horiz-adv-x="576" 
d="M34 232v22q0 125 59 181.5t189 56.5h22q124 0 180.5 -59.5t56.5 -189.5v-43h-365q5 -59 30.5 -80t92.5 -21q54 0 76.5 12.5t23.5 45.5h141q-1 -85 -57 -124.5t-175 -39.5h-22q-133 0 -192.5 56.5t-59.5 182.5zM287 732h7q108 0 108 -85v-9q0 -67 -106 -100l-47 33
q67 26 67 64q0 25 -29 25t-29 -25h-79q3 97 108 97zM177 295h225q-5 50 -28 70t-80 20q-59 0 -84.5 -19t-32.5 -71z" />
    <glyph glyph-name="uni1EBC" unicode="&#x1ebc;" horiz-adv-x="614" 
d="M54 0v680h515v-130h-358v-142h342v-128h-342v-150h361v-130h-518zM147 782q24 48 49.5 68.5t60.5 20.5q28 0 77 -25q44 -24 59 -24q27 0 47 45l65 -44q-24 -48 -49.5 -68.5t-60.5 -20.5q-29 0 -77 26q-44 23 -59 23q-27 0 -47 -45z" />
    <glyph glyph-name="uni1EBD" unicode="&#x1ebd;" horiz-adv-x="576" 
d="M34 254q0 125 59 181.5t189 56.5h22q124 0 180.5 -59.5t56.5 -189.5v-43h-365q5 -59 30.5 -80t92.5 -21q54 0 76.5 12.5t23.5 45.5h141q-1 -85 -57 -124.5t-175 -39.5h-22q-133 0 -192.5 56.5t-59.5 182.5v22zM115 592q24 48 49.5 68.5t60.5 20.5q28 0 77 -25
q42 -23 59 -23q28 0 47 44l65 -44q-24 -48 -49.5 -68.5t-60.5 -20.5q-29 0 -77 26q-44 23 -59 23q-27 0 -47 -45zM177 295h225q-5 50 -28 70t-80 20q-59 0 -84.5 -19t-32.5 -71z" />
    <glyph glyph-name="uni1EBE" unicode="&#x1ebe;" horiz-adv-x="614" 
d="M54 0v680h515v-130h-358v-142h342v-128h-342v-150h361v-130h-518zM302 898h47l146 -114l-39 -58l-131 71l-130 -71l-39 58zM568 1074l47 -99l-211 -80l-31 64z" />
    <glyph glyph-name="uni1EBF" unicode="&#x1ebf;" horiz-adv-x="576" 
d="M93 436q59 56 189 56h22q124 0 180.5 -59.5t56.5 -189.5v-43h-365q5 -59 30.5 -80t92.5 -21q54 0 76.5 12.5t23.5 45.5h141q-1 -85 -57 -124.5t-175 -39.5h-22q-133 0 -192.5 56.5t-59.5 182.5v22q0 125 59 182zM124 594l146 114h47l146 -114l-39 -58l-131 71l-130 -71z
M536 885l47 -100l-211 -80l-31 64zM402 295q-5 50 -28 70t-80 20q-59 0 -84.5 -19t-32.5 -71h225z" />
    <glyph glyph-name="uni1EC0" unicode="&#x1ec0;" horiz-adv-x="614" 
d="M54 0v680h515v-130h-358v-142h342v-128h-342v-150h361v-130h-518zM157 784l146 114h47l146 -114l-39 -58l-130 71l-131 -71zM84 1074l195 -115l-31 -64l-211 80z" />
    <glyph glyph-name="uni1EC1" unicode="&#x1ec1;" horiz-adv-x="576" 
d="M93 436q59 56 189 56h22q124 0 180.5 -59.5t56.5 -189.5v-43h-365q5 -59 30.5 -80t92.5 -21q54 0 76.5 12.5t23.5 45.5h141q-1 -85 -57 -124.5t-175 -39.5h-22q-133 0 -192.5 56.5t-59.5 182.5v22q0 125 59 182zM271 708h47l146 -114l-39 -58l-130 71l-131 -71l-39 58z
M52 885l195 -116l-31 -64l-211 80zM177 295h225q-5 50 -28 70t-80 20q-59 0 -84.5 -19t-32.5 -71z" />
    <glyph glyph-name="uni1EC2" unicode="&#x1ec2;" horiz-adv-x="614" 
d="M54 0v680h515v-130h-358v-142h342v-128h-342v-150h361v-130h-518zM302 898h47l146 -114l-39 -58l-131 71l-130 -71l-39 58zM441 1059h7q108 0 108 -85v-8q0 -69 -106 -100l-48 32q68 26 68 64q0 26 -29 26q-28 0 -30 -26h-78q2 97 108 97z" />
    <glyph glyph-name="uni1EC3" unicode="&#x1ec3;" horiz-adv-x="576" 
d="M93 436q59 56 189 56h22q124 0 180.5 -59.5t56.5 -189.5v-43h-365q5 -59 30.5 -80t92.5 -21q54 0 76.5 12.5t23.5 45.5h141q-1 -85 -57 -124.5t-175 -39.5h-22q-133 0 -192.5 56.5t-59.5 182.5v22q0 125 59 182zM270 708h47l146 -114l-39 -58l-131 71l-130 -71l-39 58z
M301 772q2 98 108 98h7q108 0 108 -86v-8q0 -69 -106 -100l-48 33q68 25 68 63q0 26 -29 26q-28 0 -30 -26h-78zM177 295h225q-5 50 -28 70t-80 20q-59 0 -84.5 -19t-32.5 -71z" />
    <glyph glyph-name="uni1EC4" unicode="&#x1ec4;" horiz-adv-x="614" 
d="M54 680h515v-130h-358v-142h342v-128h-342v-150h361v-130h-518v680zM147 968q24 48 49 68.5t61 20.5q28 0 77 -25q44 -23 59 -23q28 0 47 44l65 -43q-24 -48 -49 -68.5t-61 -20.5q-28 0 -77 25q-44 23 -59 23q-28 0 -47 -44zM156 784l146 114h47l146 -114l-39 -58
l-131 71l-130 -71z" />
    <glyph glyph-name="uni1EC5" unicode="&#x1ec5;" horiz-adv-x="576" 
d="M34 254q0 125 59 181.5t189 56.5h22q124 0 180.5 -59.5t56.5 -189.5v-43h-365q5 -59 30.5 -80t92.5 -21q54 0 76.5 12.5t23.5 45.5h141q-1 -85 -57 -124.5t-175 -39.5h-22q-133 0 -192.5 56.5t-59.5 182.5v22zM164 847q25 20 61 20q28 0 77 -25q44 -23 59 -23q28 0 47 45
l65 -44q-24 -48 -49 -68.5t-61 -20.5q-28 0 -77 25q-44 23 -59 23q-28 0 -47 -44l-65 43q24 48 49 69zM270 708h47l146 -114l-39 -58l-131 71l-130 -71l-39 58zM177 295h225q-5 50 -28 70t-80 20q-59 0 -84.5 -19t-32.5 -71z" />
    <glyph glyph-name="uni1EC6" unicode="&#x1ec6;" horiz-adv-x="614" 
d="M54 680h515v-130h-358v-142h342v-128h-342v-150h361v-130h-518v680zM302 898h47l146 -114l-39 -58l-131 71l-130 -71l-39 58zM253 -175v120h146v-120h-146z" />
    <glyph glyph-name="uni1EC7" unicode="&#x1ec7;" horiz-adv-x="576" 
d="M34 254q0 125 59 181.5t189 56.5h22q124 0 180.5 -59.5t56.5 -189.5v-43h-365q5 -59 30.5 -80t92.5 -21q54 0 76.5 12.5t23.5 45.5h141q-1 -85 -57 -124.5t-175 -39.5h-22q-133 0 -192.5 56.5t-59.5 182.5v22zM124 594l146 114h47l146 -114l-39 -58l-131 71l-130 -71z
M177 295h225q-5 50 -28 70t-80 20q-59 0 -84.5 -19t-32.5 -71zM224 -172v117h140v-117h-140z" />
    <glyph glyph-name="uni1EC8" unicode="&#x1ec8;" horiz-adv-x="265" 
d="M210 680v-680h-156v680h156zM17 824q1 49 25.5 73.5t82.5 24.5h8q57 0 82.5 -21t25.5 -64v-9q0 -67 -107 -100l-48 33q69 25 69 64q0 25 -30 25t-30 -26h-78z" />
    <glyph glyph-name="uni1EC9" unicode="&#x1ec9;" horiz-adv-x="240" 
d="M193 485v-485h-146v485h146zM113 727h7q108 0 108 -85v-9q0 -67 -106 -100l-47 33q67 26 67 64q0 25 -29 25t-29 -25h-79q3 97 108 97z" />
    <glyph glyph-name="uni1ECA" unicode="&#x1eca;" horiz-adv-x="265" 
d="M210 0h-156v680h156v-680zM59 -55h146v-120h-146v120z" />
    <glyph glyph-name="uni1ECB" unicode="&#x1ecb;" horiz-adv-x="240" 
d="M47 0v485h146v-485h-146zM47 680h146v-125h-146v125zM50 -172v117h140v-117h-140z" />
    <glyph glyph-name="uni1ECC" unicode="&#x1ecc;" horiz-adv-x="750" 
d="M115 610q75 77 247 77h26q173 0 247.5 -77t74.5 -256v-28q0 -179 -74.5 -256t-247.5 -77h-26q-172 0 -247 77t-75 256v28q0 179 75 256zM237 172q36 -45 138 -45t139 44.5t37 168.5t-37 169q-37 44 -139 44t-138.5 -44.5t-36.5 -168.5t37 -168zM448 -55v-120h-146v120
h146z" />
    <glyph glyph-name="uni1ECD" unicode="&#x1ecd;" horiz-adv-x="586" 
d="M93 436q59 56 189 56h22q130 0 189 -56.5t59 -181.5v-22q0 -126 -59 -182.5t-189 -56.5h-22q-130 0 -189 56.5t-59 182.5v22q0 125 59 182zM205 141q22 -26 88 -26t88.5 26t22.5 102t-22 102q-23 25 -89 25t-88.5 -26t-22.5 -101q0 -76 23 -102zM363 -55v-117h-140v117
h140z" />
    <glyph glyph-name="uni1ECE" unicode="&#x1ece;" horiz-adv-x="750" 
d="M40 326v28q0 179 75 256t247 77h26q173 0 247.5 -77t74.5 -256v-28q0 -179 -74.5 -256t-247.5 -77h-26q-172 0 -247 77t-75 256zM200 340q0 -124 36.5 -168.5t138.5 -44.5t139 44.5t37 168.5t-37 169q-37 44 -139 44t-138.5 -44.5t-36.5 -168.5zM286 898q24 24 82 24h8
q57 0 82.5 -21t25.5 -64v-9q0 -67 -107 -100l-48 33q69 25 69 64q0 25 -30 25t-30 -26h-78q1 49 26 74z" />
    <glyph glyph-name="uni1ECF" unicode="&#x1ecf;" horiz-adv-x="586" 
d="M34 232v22q0 125 59 181.5t189 56.5h22q130 0 189 -56.5t59 -181.5v-22q0 -126 -59 -182.5t-189 -56.5h-22q-130 0 -189 56.5t-59 182.5zM182 243q0 -76 22.5 -102t88.5 -26t88.5 26t22.5 102t-22 102q-23 25 -89 25t-88.5 -26t-22.5 -101zM286 727h7q108 0 108 -85v-9
q0 -67 -106 -100l-47 33q67 26 67 64q0 25 -29 25t-29 -25h-79q3 97 108 97z" />
    <glyph glyph-name="uni1ED0" unicode="&#x1ed0;" horiz-adv-x="750" 
d="M115 610q75 77 247 77h26q173 0 247.5 -77t74.5 -256v-28q0 -179 -74.5 -256t-247.5 -77h-26q-172 0 -247 77t-75 256v28q0 179 75 256zM200 340q0 -124 36.5 -168.5t138.5 -44.5t139 44.5t37 168.5t-37 169q-37 44 -139 44t-138.5 -44.5t-36.5 -168.5zM205 784l146 114
h47l146 -114l-39 -58l-131 71l-130 -71zM422 959l195 115l47 -99l-211 -80z" />
    <glyph glyph-name="uni1ED1" unicode="&#x1ed1;" horiz-adv-x="586" 
d="M93 436q59 56 189 56h22q130 0 189 -56.5t59 -181.5v-22q0 -126 -59 -182.5t-189 -56.5h-22q-130 0 -189 56.5t-59 182.5v22q0 125 59 182zM205 141q22 -26 88 -26t88.5 26t22.5 102t-22 102q-23 25 -89 25t-88.5 -26t-22.5 -101q0 -76 23 -102zM123 589l146 114h47
l146 -114l-39 -58l-131 71l-130 -71zM340 764l195 116l47 -100l-211 -80z" />
    <glyph glyph-name="uni1ED2" unicode="&#x1ed2;" horiz-adv-x="750" 
d="M115 610q75 77 247 77h26q173 0 247.5 -77t74.5 -256v-28q0 -179 -74.5 -256t-247.5 -77h-26q-172 0 -247 77t-75 256v28q0 179 75 256zM200 340q0 -124 36.5 -168.5t138.5 -44.5t139 44.5t37 168.5t-37 169q-37 44 -139 44t-138.5 -44.5t-36.5 -168.5zM352 898h47
l146 -114l-39 -58l-130 71l-131 -71l-39 58zM133 1074l195 -115l-31 -64l-211 80z" />
    <glyph glyph-name="uni1ED3" unicode="&#x1ed3;" horiz-adv-x="586" 
d="M93 436q59 56 189 56h22q130 0 189 -56.5t59 -181.5v-22q0 -126 -59 -182.5t-189 -56.5h-22q-130 0 -189 56.5t-59 182.5v22q0 125 59 182zM205 141q22 -26 88 -26t88.5 26t22.5 102t-22 102q-23 25 -89 25t-88.5 -26t-22.5 -101q0 -76 23 -102zM270 703h47l146 -114
l-39 -58l-130 71l-131 -71l-39 58zM4 780l47 100l195 -116l-31 -64z" />
    <glyph glyph-name="uni1ED4" unicode="&#x1ed4;" horiz-adv-x="750" 
d="M40 326v28q0 179 75 256t247 77h26q173 0 247.5 -77t74.5 -256v-28q0 -179 -74.5 -256t-247.5 -77h-26q-172 0 -247 77t-75 256zM200 340q0 -124 36.5 -168.5t138.5 -44.5t139 44.5t37 168.5t-37 169q-37 44 -139 44t-138.5 -44.5t-36.5 -168.5zM351 898h47l146 -114
l-39 -58l-131 71l-130 -71l-39 58zM490 1059h7q108 0 108 -85v-8q0 -69 -106 -100l-48 32q68 26 68 64q0 26 -29 26q-28 0 -30 -26h-78q2 97 108 97z" />
    <glyph glyph-name="uni1ED5" unicode="&#x1ed5;" horiz-adv-x="586" 
d="M34 232v22q0 125 59 181.5t189 56.5h22q130 0 189 -56.5t59 -181.5v-22q0 -126 -59 -182.5t-189 -56.5h-22q-130 0 -189 56.5t-59 182.5zM182 243q0 -76 22.5 -102t88.5 -26t88.5 26t22.5 102t-22 102q-23 25 -89 25t-88.5 -26t-22.5 -101zM123 589l146 114h47l146 -114
l-39 -58l-131 71l-130 -71zM408 865h7q108 0 108 -86v-8q0 -69 -106 -100l-48 33q68 25 68 63q0 26 -29 26q-28 0 -30 -26h-78q2 98 108 98z" />
    <glyph glyph-name="uni1ED6" unicode="&#x1ed6;" horiz-adv-x="750" 
d="M40 326v28q0 179 75 256t247 77h26q173 0 247.5 -77t74.5 -256v-28q0 -179 -74.5 -256t-247.5 -77h-26q-172 0 -247 77t-75 256zM237 172q36 -45 138 -45t139 44.5t37 168.5t-37 169q-37 44 -139 44t-138.5 -44.5t-36.5 -168.5t37 -168zM245 1037q25 20 61 20
q28 0 77 -25q44 -23 59 -23q28 0 47 44l65 -43q-24 -48 -49 -68.5t-61 -20.5q-28 0 -77 25q-44 23 -59 23q-28 0 -47 -44l-65 43q24 48 49 69zM351 898h47l146 -114l-39 -58l-131 71l-130 -71l-39 58z" />
    <glyph glyph-name="uni1ED7" unicode="&#x1ed7;" horiz-adv-x="586" 
d="M34 232v22q0 125 59 181.5t189 56.5h22q130 0 189 -56.5t59 -181.5v-22q0 -126 -59 -182.5t-189 -56.5h-22q-130 0 -189 56.5t-59 182.5zM182 243q0 -76 22.5 -102t88.5 -26t88.5 26t22.5 102t-22 102q-23 25 -89 25t-88.5 -26t-22.5 -101zM163 842q25 20 61 20
q28 0 77 -25q44 -23 59 -23q28 0 47 45l65 -44q-24 -48 -49 -68.5t-61 -20.5q-28 0 -77 25q-44 23 -59 23q-28 0 -47 -44l-65 43q24 48 49 69zM269 703h47l146 -114l-39 -58l-131 71l-130 -71l-39 58z" />
    <glyph glyph-name="uni1ED8" unicode="&#x1ed8;" horiz-adv-x="750" 
d="M40 354q0 179 75 256t247 77h26q173 0 247.5 -77t74.5 -256v-28q0 -179 -74.5 -256t-247.5 -77h-26q-172 0 -247 77t-75 256v28zM200 340q0 -124 36.5 -168.5t138.5 -44.5t139 44.5t37 168.5t-37 169q-37 44 -139 44t-138.5 -44.5t-36.5 -168.5zM351 898h47l146 -114
l-39 -58l-131 71l-130 -71l-39 58zM302 -55h146v-120h-146v120z" />
    <glyph glyph-name="uni1ED9" unicode="&#x1ed9;" horiz-adv-x="586" 
d="M34 232v22q0 125 59 181.5t189 56.5h22q130 0 189 -56.5t59 -181.5v-22q0 -126 -59 -182.5t-189 -56.5h-22q-130 0 -189 56.5t-59 182.5zM205 141q22 -26 88 -26t88.5 26t22.5 102t-22 102q-23 25 -89 25t-88.5 -26t-22.5 -101q0 -76 23 -102zM269 703h47l146 -114
l-39 -58l-131 71l-130 -71l-39 58zM363 -55v-117h-140v117h140z" />
    <glyph glyph-name="uni1EDA" unicode="&#x1eda;" horiz-adv-x="753" 
d="M40 326v28q0 179 75 256t247 77h26q41 0 89 -7t72 -7q37 0 51.5 13.5t14.5 45.5v55h131v-82q0 -58 -20 -89t-66 -42q50 -75 50 -220v-28q0 -179 -74.5 -256t-247.5 -77h-26q-172 0 -247 77t-75 256zM200 340q0 -124 37 -168q36 -45 138 -45t139 44.5t37 168.5t-37 168.5
t-139 44.5t-138.5 -44.5t-36.5 -168.5zM279 790l195 116l48 -101l-212 -80z" />
    <glyph glyph-name="uni1EDB" unicode="&#x1edb;" horiz-adv-x="588" 
d="M93 436q59 56 189 56h22q30 0 64 -5t48 -5q28 0 38.5 11.5t10.5 43.5v53h123v-82q0 -55 -14.5 -81.5t-52.5 -36.5q31 -54 31 -136v-22q0 -126 -59 -182.5t-189 -56.5h-22q-130 0 -189 56.5t-59 182.5v22q0 125 59 182zM182 243q0 -76 23 -102q22 -26 88 -26t88.5 26
t22.5 102t-22.5 101.5t-88.5 25.5t-88.5 -26t-22.5 -101zM392 711l48 -101l-212 -80l-31 65z" />
    <glyph glyph-name="uni1EDC" unicode="&#x1edc;" horiz-adv-x="753" 
d="M115 610q75 77 247 77h26q41 0 89 -7t72 -7q37 0 51.5 13.5t14.5 45.5v55h131v-82q0 -58 -20 -89t-66 -42q50 -75 50 -220v-28q0 -179 -74.5 -256t-247.5 -77h-26q-172 0 -247 77t-75 256v28q0 179 75 256zM200 340q0 -124 37 -168q36 -45 138 -45t139 44.5t37 168.5
t-37 168.5t-139 44.5t-138.5 -44.5t-36.5 -168.5zM276 906l195 -116l-31 -65l-212 80z" />
    <glyph glyph-name="uni1EDD" unicode="&#x1edd;" horiz-adv-x="588" 
d="M34 254q0 125 59 181.5t189 56.5h22q30 0 64 -5t48 -5q28 0 38.5 11.5t10.5 43.5v53h123v-82q0 -55 -14.5 -81.5t-52.5 -36.5q31 -54 31 -136v-22q0 -126 -59 -182.5t-189 -56.5h-22q-130 0 -189 56.5t-59 182.5v22zM205 141q22 -26 88 -26t88.5 26t22.5 102t-22.5 101.5
t-88.5 25.5t-88.5 -26t-22.5 -101q0 -76 23 -102zM194 711l195 -116l-31 -65l-212 80z" />
    <glyph glyph-name="uni1EDE" unicode="&#x1ede;" horiz-adv-x="753" 
d="M40 326v28q0 179 75 256t247 77h26q41 0 89 -7t72 -7q37 0 51.5 13.5t14.5 45.5v55h131v-82q0 -58 -20 -89t-66 -42q50 -75 50 -220v-28q0 -179 -74.5 -256t-247.5 -77h-26q-172 0 -247 77t-75 256zM237 172q36 -45 138 -45t139 44.5t37 168.5t-37 168.5t-139 44.5
t-138.5 -44.5t-36.5 -168.5t37 -168zM286 898q24 24 82 24h8q57 0 82.5 -21t25.5 -64v-9q0 -67 -107 -100l-48 33q69 25 69 64q0 25 -30 25t-30 -26h-78q1 49 26 74z" />
    <glyph glyph-name="uni1EDF" unicode="&#x1edf;" horiz-adv-x="588" 
d="M34 254q0 125 59 181.5t189 56.5h22q30 0 64 -5t48 -5q28 0 38.5 11.5t10.5 43.5v53h123v-82q0 -55 -14.5 -81.5t-52.5 -36.5q31 -54 31 -136v-22q0 -126 -59 -182.5t-189 -56.5h-22q-130 0 -189 56.5t-59 182.5v22zM205 141q22 -26 88 -26t88.5 26t22.5 102t-22.5 101.5
t-88.5 25.5t-88.5 -26t-22.5 -101q0 -76 23 -102zM178 630q3 97 108 97h7q108 0 108 -85v-9q0 -67 -106 -100l-47 33q67 26 67 64q0 25 -29 25t-29 -25h-79z" />
    <glyph glyph-name="uni1EE0" unicode="&#x1ee0;" horiz-adv-x="753" 
d="M115 610q75 77 247 77h26q41 0 89 -7t72 -7q37 0 51.5 13.5t14.5 45.5v55h131v-82q0 -58 -20 -89t-66 -42q50 -75 50 -220v-28q0 -179 -74.5 -256t-247.5 -77h-26q-172 0 -247 77t-75 256v28q0 179 75 256zM200 340q0 -124 37 -168q36 -45 138 -45t139 44.5t37 168.5
t-37 168.5t-139 44.5t-138.5 -44.5t-36.5 -168.5zM196 782q24 48 49.5 68.5t60.5 20.5q28 0 77 -25q44 -24 59 -24q28 0 47 45l65 -44q-24 -48 -49.5 -68.5t-60.5 -20.5q-29 0 -77 26q-44 23 -59 23q-28 0 -47 -45z" />
    <glyph glyph-name="uni1EE1" unicode="&#x1ee1;" horiz-adv-x="588" 
d="M34 232v22q0 125 59 181.5t189 56.5h22q30 0 64 -5t48 -5q28 0 38.5 11.5t10.5 43.5v53h123v-82q0 -55 -14.5 -81.5t-52.5 -36.5q31 -54 31 -136v-22q0 -126 -59 -182.5t-189 -56.5h-22q-130 0 -189 56.5t-59 182.5zM182 243q0 -76 23 -102q22 -26 88 -26t88.5 26
t22.5 102t-22.5 101.5t-88.5 25.5t-88.5 -26t-22.5 -101zM164 656q25 20 60 20q28 0 77 -25q42 -23 59 -23q28 0 47 44l65 -44q-24 -48 -49.5 -68.5t-60.5 -20.5q-29 0 -77 26q-44 23 -59 23q-28 0 -47 -45l-65 44q24 48 50 69z" />
    <glyph glyph-name="uni1EE2" unicode="&#x1ee2;" horiz-adv-x="753" 
d="M115 610q75 77 247 77h26q41 0 89 -7t72 -7q37 0 51.5 13.5t14.5 45.5v55h131v-82q0 -58 -20 -89t-66 -42q50 -75 50 -220v-28q0 -179 -74.5 -256t-247.5 -77h-26q-172 0 -247 77t-75 256v28q0 179 75 256zM200 340q0 -124 37 -168q36 -45 138 -45t139 44.5t37 168.5
t-37 168.5t-139 44.5t-138.5 -44.5t-36.5 -168.5zM302 -175v120h146v-120h-146z" />
    <glyph glyph-name="uni1EE3" unicode="&#x1ee3;" horiz-adv-x="588" 
d="M93 436q59 56 189 56h22q30 0 64 -5t48 -5q28 0 38.5 11.5t10.5 43.5v53h123v-82q0 -55 -14.5 -81.5t-52.5 -36.5q31 -54 31 -136v-22q0 -126 -59 -182.5t-189 -56.5h-22q-130 0 -189 56.5t-59 182.5v22q0 125 59 182zM182 243q0 -76 23 -102q22 -26 88 -26t88.5 26
t22.5 102t-22.5 101.5t-88.5 25.5t-88.5 -26t-22.5 -101zM223 -172v117h140v-117h-140z" />
    <glyph glyph-name="uni1EE4" unicode="&#x1ee4;" horiz-adv-x="726" 
d="M52 243v437h156v-414q0 -80 32 -108t123 -28t123 28t32 108v414h156v-437q0 -133 -70 -191.5t-228 -58.5h-26q-158 0 -228 58.5t-70 191.5zM434 -55v-120h-146v120h146z" />
    <glyph glyph-name="uni1EE5" unicode="&#x1ee5;" horiz-adv-x="582" 
d="M45 193v292h146v-269q0 -58 21 -79.5t79 -21.5q57 0 78.5 21.5t21.5 79.5v269h146v-292q0 -106 -55.5 -153.5t-179.5 -47.5h-22q-124 0 -179.5 47.5t-55.5 153.5zM361 -55v-117h-140v117h140z" />
    <glyph glyph-name="uni1EE6" unicode="&#x1ee6;" horiz-adv-x="726" 
d="M208 680v-414q0 -80 32 -108t123 -28t123 28t32 108v414h156v-437q0 -133 -70 -191.5t-228 -58.5h-26q-158 0 -228 58.5t-70 191.5v437h156zM246 824q1 49 25.5 73.5t82.5 24.5h8q57 0 82.5 -21t25.5 -64v-9q0 -67 -107 -100l-48 33q69 25 69 64q0 25 -30 25t-30 -26h-78
z" />
    <glyph glyph-name="uni1EE7" unicode="&#x1ee7;" horiz-adv-x="582" 
d="M45 485h146v-269q0 -58 21 -79.5t79 -21.5q57 0 78.5 21.5t21.5 79.5v269h146v-292q0 -106 -55.5 -153.5t-179.5 -47.5h-22q-124 0 -179.5 47.5t-55.5 153.5v292zM176 630q3 97 108 97h7q108 0 108 -85v-9q0 -67 -106 -100l-47 33q67 26 67 64q0 25 -29 25t-29 -25h-79z
" />
    <glyph glyph-name="uni1EE8" unicode="&#x1ee8;" horiz-adv-x="835" 
d="M208 680v-414q0 -80 32 -108t123 -28t123 28t32 108v414h137q29 0 40 12.5t11 40.5v54h129v-80q0 -79 -35.5 -107t-125.5 -28v-329q0 -133 -70 -191.5t-228 -58.5h-26q-158 0 -228 58.5t-70 191.5v437h156zM460 906l48 -101l-212 -80l-31 65z" />
    <glyph glyph-name="uni1EE9" unicode="&#x1ee9;" horiz-adv-x="682" 
d="M45 485h146v-269q0 -58 21 -79.5t79 -21.5q57 0 78.5 21.5t21.5 79.5v269h123q25 0 35 11t10 39v55h123v-78q0 -75 -30 -99.5t-115 -26.5v-193q0 -106 -55.5 -153.5t-179.5 -47.5h-22q-124 0 -179.5 47.5t-55.5 153.5v292zM390 711l48 -101l-212 -80l-31 65z" />
    <glyph glyph-name="uni1EEA" unicode="&#x1eea;" horiz-adv-x="835" 
d="M52 680h156v-414q0 -80 32 -108t123 -28t123 28t32 108v414h137q29 0 40 12.5t11 40.5v54h129v-80q0 -79 -35.5 -107t-125.5 -28v-329q0 -133 -70 -191.5t-228 -58.5h-26q-158 0 -228 58.5t-70 191.5v437zM262 906l195 -116l-31 -65l-212 80z" />
    <glyph glyph-name="uni1EEB" unicode="&#x1eeb;" horiz-adv-x="682" 
d="M191 485v-269q0 -58 21 -79.5t79 -21.5q57 0 78.5 21.5t21.5 79.5v269h123q25 0 35 11t10 39v55h123v-78q0 -75 -30 -99.5t-115 -26.5v-193q0 -106 -55.5 -153.5t-179.5 -47.5h-22q-124 0 -179.5 47.5t-55.5 153.5v292h146zM192 711l195 -116l-31 -65l-212 80z" />
    <glyph glyph-name="uni1EEC" unicode="&#x1eec;" horiz-adv-x="835" 
d="M208 680v-414q0 -80 32 -108t123 -28t123 28t32 108v414h137q29 0 40 12.5t11 40.5v54h129v-80q0 -79 -35.5 -107t-125.5 -28v-329q0 -133 -70 -191.5t-228 -58.5h-26q-158 0 -228 58.5t-70 191.5v437h156zM246 824q1 49 25.5 73.5t82.5 24.5h8q57 0 82.5 -21t25.5 -64
v-9q0 -67 -107 -100l-48 33q69 25 69 64q0 25 -30 25t-30 -26h-78z" />
    <glyph glyph-name="uni1EED" unicode="&#x1eed;" horiz-adv-x="682" 
d="M45 485h146v-269q0 -58 21 -79.5t79 -21.5q57 0 78.5 21.5t21.5 79.5v269h123q25 0 35 11t10 39v55h123v-78q0 -75 -30 -99.5t-115 -26.5v-193q0 -106 -55.5 -153.5t-179.5 -47.5h-22q-124 0 -179.5 47.5t-55.5 153.5v292zM176 630q3 97 108 97h7q108 0 108 -85v-9
q0 -67 -106 -100l-47 33q67 26 67 64q0 25 -29 25t-29 -25h-79z" />
    <glyph glyph-name="uni1EEE" unicode="&#x1eee;" horiz-adv-x="835" 
d="M52 680h156v-414q0 -80 32 -108t123 -28t123 28t32 108v414h137q29 0 40 12.5t11 40.5v54h129v-80q0 -79 -35.5 -107t-125.5 -28v-329q0 -133 -70 -191.5t-228 -58.5h-26q-158 0 -228 58.5t-70 191.5v437zM232 851q25 20 60 20q28 0 77 -25q44 -24 59 -24q27 0 47 45
l65 -44q-24 -48 -49.5 -68.5t-60.5 -20.5q-29 0 -77 26q-44 23 -59 23q-28 0 -47 -45l-65 44q24 48 50 69z" />
    <glyph glyph-name="uni1EEF" unicode="&#x1eef;" horiz-adv-x="682" 
d="M45 485h146v-269q0 -58 21 -79.5t79 -21.5q57 0 78.5 21.5t21.5 79.5v269h123q25 0 35 11t10 39v55h123v-78q0 -75 -30 -99.5t-115 -26.5v-193q0 -106 -55.5 -153.5t-179.5 -47.5h-22q-124 0 -179.5 47.5t-55.5 153.5v292zM112 587q24 48 49.5 68.5t60.5 20.5
q28 0 77 -25q42 -23 59 -23q28 0 47 44l65 -44q-24 -48 -49.5 -68.5t-60.5 -20.5q-29 0 -77 26q-44 23 -59 23q-28 0 -47 -45z" />
    <glyph glyph-name="uni1EF0" unicode="&#x1ef0;" horiz-adv-x="835" 
d="M208 680v-414q0 -80 32 -108t123 -28t123 28t32 108v414h137q29 0 40 12.5t11 40.5v54h129v-80q0 -79 -35.5 -107t-125.5 -28v-329q0 -133 -70 -191.5t-228 -58.5h-26q-158 0 -228 58.5t-70 191.5v437h156zM288 -55h146v-120h-146v120z" />
    <glyph glyph-name="uni1EF1" unicode="&#x1ef1;" horiz-adv-x="682" 
d="M191 485v-269q0 -58 21 -79.5t79 -21.5q57 0 78.5 21.5t21.5 79.5v269h123q25 0 35 11t10 39v55h123v-78q0 -75 -30 -99.5t-115 -26.5v-193q0 -106 -55.5 -153.5t-179.5 -47.5h-22q-124 0 -179.5 47.5t-55.5 153.5v292h146zM221 -55h140v-117h-140v117z" />
    <glyph glyph-name="Ygrave" unicode="&#x1ef2;" horiz-adv-x="693" 
d="M177 680l172 -286l171 286h171l-266 -431v-249h-156v247l-267 433h175zM249 906l195 -116l-31 -65l-212 80z" />
    <glyph glyph-name="ygrave" unicode="&#x1ef3;" horiz-adv-x="587" 
d="M1 485h164l122 -350h13l126 350h159l-186 -499q-21 -56 -37.5 -86t-43.5 -54.5t-64 -33t-96 -8.5q-49 0 -80 6v122q28 -3 60 -3q51 0 73.5 14t39.5 57h-63zM142 610l48 101l195 -116l-31 -65z" />
    <glyph glyph-name="uni1EF4" unicode="&#x1ef4;" horiz-adv-x="693" 
d="M177 680l172 -286l171 286h171l-266 -431v-249h-156v247l-267 433h175zM421 -55v-120h-146v120h146z" />
    <glyph glyph-name="uni1EF5" unicode="&#x1ef5;" horiz-adv-x="587" 
d="M165 485l122 -350h13l126 350h159l-186 -499q-21 -56 -37.5 -86t-43.5 -54.5t-64 -33t-96 -8.5q-49 0 -80 6v122q28 -3 60 -3q51 0 73.5 14t39.5 57h-63l-187 485h164zM414 -55h140v-117h-140v117z" />
    <glyph glyph-name="uni1EF6" unicode="&#x1ef6;" horiz-adv-x="693" 
d="M2 680h175l172 -286l171 286h171l-266 -431v-249h-156v247zM233 824q1 49 25.5 73.5t82.5 24.5h8q57 0 82.5 -21t25.5 -64v-9q0 -67 -107 -100l-48 33q69 25 69 64q0 25 -30 25t-30 -26h-78z" />
    <glyph glyph-name="uni1EF7" unicode="&#x1ef7;" horiz-adv-x="587" 
d="M1 485h164l122 -350h13l126 350h159l-186 -499q-21 -56 -37.5 -86t-43.5 -54.5t-64 -33t-96 -8.5q-49 0 -80 6v122q28 -3 60 -3q51 0 73.5 14t39.5 57h-63zM282 727h7q108 0 108 -85v-9q0 -67 -106 -100l-47 33q67 26 67 64q0 25 -29 25t-29 -25h-79q3 97 108 97z" />
    <glyph glyph-name="uni1EF8" unicode="&#x1ef8;" horiz-adv-x="693" 
d="M2 680h175l172 -286l171 286h171l-266 -431v-249h-156v247zM169 782q24 48 49.5 68.5t60.5 20.5q28 0 77 -25q44 -24 59 -24q27 0 47 45l65 -44q-24 -48 -49.5 -68.5t-60.5 -20.5q-29 0 -77 26q-44 23 -59 23q-27 0 -47 -45z" />
    <glyph glyph-name="uni1EF9" unicode="&#x1ef9;" horiz-adv-x="587" 
d="M1 485h164l122 -350h13l126 350h159l-186 -499q-21 -56 -37.5 -86t-43.5 -54.5t-64 -33t-96 -8.5q-49 0 -80 6v122q28 -3 60 -3q51 0 73.5 14t39.5 57h-63zM160 656q25 20 60 20q28 0 77 -25q42 -23 59 -23q28 0 47 44l65 -44q-24 -48 -49.5 -68.5t-60.5 -20.5
q-29 0 -77 26q-44 23 -59 23q-28 0 -47 -45l-65 44q24 48 50 69z" />
    <glyph glyph-name="uni2002" unicode="&#x2002;" horiz-adv-x="394" 
 />
    <glyph glyph-name="uni2003" unicode="&#x2003;" horiz-adv-x="584" 
 />
    <glyph glyph-name="uni2004" unicode="&#x2004;" horiz-adv-x="261" 
 />
    <glyph glyph-name="uni2005" unicode="&#x2005;" horiz-adv-x="194" 
 />
    <glyph glyph-name="uni2006" unicode="&#x2006;" horiz-adv-x="131" 
 />
    <glyph glyph-name="uni2007" unicode="&#x2007;" horiz-adv-x="630" 
 />
    <glyph glyph-name="uni2008" unicode="&#x2008;" horiz-adv-x="174" 
 />
    <glyph glyph-name="uni2009" unicode="&#x2009;" horiz-adv-x="77" 
 />
    <glyph glyph-name="uni200A" unicode="&#x200a;" horiz-adv-x="44" 
 />
    <glyph glyph-name="uni200B" unicode="&#x200b;" 
 />
    <glyph glyph-name="uni2010" unicode="&#x2010;" horiz-adv-x="337" 
d="M303 306v-127h-269v127h269z" />
    <glyph glyph-name="uni2011" unicode="&#x2011;" horiz-adv-x="270" 
d="M270 306v-127h-269v127h269z" />
    <glyph glyph-name="figuredash" unicode="&#x2012;" horiz-adv-x="630" 
d="M583 306v-127h-536v127h536z" />
    <glyph glyph-name="endash" unicode="&#x2013;" horiz-adv-x="406" 
d="M406 306v-127h-406v127h406z" />
    <glyph glyph-name="emdash" unicode="&#x2014;" horiz-adv-x="609" 
d="M609 306v-127h-609v127h609z" />
    <glyph glyph-name="uni2015" unicode="&#x2015;" horiz-adv-x="700" 
d="M700 306v-127h-700v127h700z" />
    <glyph glyph-name="underscoredbl" unicode="&#x2017;" horiz-adv-x="446" 
d="M446 -50v-84h-446v84h446zM446 -176v-84h-446v84h446z" />
    <glyph glyph-name="quoteleft" unicode="&#x2018;" horiz-adv-x="213" 
d="M172 429h-132v148q0 53 25.5 78t81.5 25h27v-64h-16q-20 0 -29.5 -9t-9.5 -31v-20h53v-127z" />
    <glyph glyph-name="quoteright" unicode="&#x2019;" horiz-adv-x="213" 
d="M41 680h132v-148q0 -53 -25.5 -78t-81.5 -25h-27v64h16q21 0 30 9.5t9 31.5v20h-53v126z" />
    <glyph glyph-name="quotesinglbase" unicode="&#x201a;" horiz-adv-x="213" 
d="M41 128h132v-149q0 -53 -25.5 -78t-81.5 -25h-27v64h16q21 0 30 9.5t9 31.5v21h-53v126z" />
    <glyph glyph-name="quotedblleft" unicode="&#x201c;" horiz-adv-x="403" 
d="M172 429h-132v148q0 53 25.5 78t81.5 25h27v-64h-16q-20 0 -29.5 -9t-9.5 -31v-20h53v-127zM361 429h-132v148q0 53 25.5 78t81.5 25h27v-64h-16q-21 0 -30 -9t-9 -31v-20h53v-127z" />
    <glyph glyph-name="quotedblright" unicode="&#x201d;" horiz-adv-x="403" 
d="M41 680h132v-148q0 -53 -25.5 -78t-81.5 -25h-27v64h16q21 0 30 9.5t9 31.5v20h-53v126zM230 680h132v-148q0 -53 -25.5 -78t-81.5 -25h-27v64h16q21 0 30 9.5t9 31.5v20h-53v126z" />
    <glyph glyph-name="quotedblbase" unicode="&#x201e;" horiz-adv-x="403" 
d="M41 128h132v-149q0 -53 -25.5 -78t-81.5 -25h-27v64h16q21 0 30 9.5t9 31.5v21h-53v126zM230 128h132v-149q0 -53 -25.5 -78t-81.5 -25h-27v64h16q21 0 30 9.5t9 31.5v21h-53v126z" />
    <glyph glyph-name="dagger" unicode="&#x2020;" horiz-adv-x="630" 
d="M567 485v-118h-180v-557h-144v557h-180v118h180v195h144v-195h180z" />
    <glyph glyph-name="daggerdbl" unicode="&#x2021;" horiz-adv-x="630" 
d="M567 367h-180v-244h180v-118h-180v-195h-144v195h-180v118h180v244h-180v118h180v195h144v-195h180v-118z" />
    <glyph glyph-name="bullet" unicode="&#x2022;" horiz-adv-x="500" 
d="M250 395q67 0 111 -43.5t44 -108.5q0 -67 -44 -110.5t-111 -43.5t-111 43.5t-44 110.5q0 65 44 108.5t111 43.5z" />
    <glyph glyph-name="uni2023" unicode="&#x2023;" horiz-adv-x="500" 
d="M126 407l267 -165l-267 -165v330z" />
    <glyph glyph-name="ellipsis" unicode="&#x2026;" horiz-adv-x="694" 
d="M46 144h148v-144h-148v144zM273 144h148v-144h-148v144zM501 144h148v-144h-148v144z" />
    <glyph glyph-name="uni202F" unicode="&#x202f;" horiz-adv-x="87" 
 />
    <glyph glyph-name="perthousand" unicode="&#x2030;" horiz-adv-x="1387" 
d="M197 686h18q94 0 132.5 -40.5t38.5 -140.5v-20q0 -100 -38.5 -141t-132.5 -41h-18q-94 0 -132.5 41t-38.5 141v20q0 100 38.5 140.5t132.5 40.5zM637 680h112l-419 -680h-111zM206 601q-46 0 -61 -20.5t-14 -85.5q1 -66 15.5 -86t59.5 -20t59 20t15 86q1 65 -13.5 85.5
t-60.5 20.5zM753 377h18q94 0 132.5 -40.5t38.5 -140.5v-20q0 -100 -38.5 -140.5t-132.5 -40.5h-18q-94 0 -132.5 40.5t-38.5 140.5v20q0 100 38.5 140.5t132.5 40.5zM1172 377h18q94 0 132.5 -40.5t38.5 -140.5v-20q0 -100 -38.5 -140.5t-132.5 -40.5h-18
q-94 0 -132.5 40.5t-38.5 140.5v20q0 100 38.5 140.5t132.5 40.5zM762 292q-46 0 -61 -20.5t-14 -85.5q1 -66 15.5 -86t59.5 -20t59.5 20t15.5 86q1 65 -14 85.5t-61 20.5zM1181 292q-46 0 -61 -20.5t-14 -85.5q1 -66 15.5 -86t59.5 -20t59.5 20t15.5 86q1 65 -14 85.5
t-61 20.5z" />
    <glyph glyph-name="minute" unicode="&#x2032;" horiz-adv-x="208" 
d="M40 680h132l-33 -266h-99v266z" />
    <glyph glyph-name="second" unicode="&#x2033;" horiz-adv-x="399" 
d="M40 680h132l-33 -266h-99v266zM231 680h132l-33 -266h-99v266z" />
    <glyph glyph-name="uni2034" unicode="&#x2034;" horiz-adv-x="590" 
d="M40 680h132l-33 -266h-99v266zM231 680h132l-33 -266h-99v266zM422 680h132l-33 -266h-99v266z" />
    <glyph glyph-name="guilsinglleft" unicode="&#x2039;" horiz-adv-x="323" 
d="M34 243l116 221h140l-116 -221l116 -222h-140z" />
    <glyph glyph-name="guilsinglright" unicode="&#x203a;" horiz-adv-x="323" 
d="M290 243l-116 -222h-140l115 222l-115 221h140z" />
    <glyph glyph-name="exclamdbl" unicode="&#x203c;" horiz-adv-x="508" 
d="M56 680h153l-11 -458h-131zM299 680h153l-11 -458h-131zM59 144h148v-144h-148v144zM302 144h148v-144h-148v144z" />
    <glyph glyph-name="fraction" unicode="&#x2044;" horiz-adv-x="210" 
d="M258 680h112l-419 -680h-111z" />
    <glyph glyph-name="uni2070" unicode="&#x2070;" horiz-adv-x="450" 
d="M216 889h19q103 0 144.5 -44.5t41.5 -153.5v-21q0 -109 -41.5 -153t-144.5 -44h-19q-103 0 -144.5 43.5t-41.5 153.5v21q0 110 41.5 154t144.5 44zM225 796q-51 0 -67 -22t-15 -93q1 -73 16.5 -94.5t65.5 -21.5q51 0 66.5 22t16.5 94q1 71 -15.5 93t-67.5 22z" />
    <glyph glyph-name="uni2074" unicode="&#x2074;" horiz-adv-x="440" 
d="M425 649v-91h-58v-81h-113v81h-233v101l201 223h145v-233h58zM131 649h123v136z" />
    <glyph glyph-name="uni2075" unicode="&#x2075;" horiz-adv-x="428" 
d="M229 753q95 0 131.5 -29.5t36.5 -99.5v-18q0 -74 -39.5 -104t-135.5 -30h-19q-93 0 -131.5 33t-38.5 112h109q0 -32 15 -44t57 -12t56.5 11t14.5 43q0 34 -14 45t-58 11q-63 0 -70 -22h-107v233h347v-88h-236v-53q28 12 65 12h17z" />
    <glyph glyph-name="uni2076" unicode="&#x2076;" horiz-adv-x="435" 
d="M240 735q91 0 130 -28.5t39 -93.5v-15q0 -67 -41.5 -96.5t-136.5 -29.5h-18q-101 0 -142 44t-41 152v20q0 111 40.5 155.5t141.5 44.5h19q101 0 135 -31.5t35 -94.5h-106q-1 20 -14.5 29t-50.5 9q-51 0 -68 -15.5t-20 -66.5q34 17 79 17h19zM224 558q45 0 62.5 11
t17.5 38t-17.5 38t-62.5 11t-63 -11t-18 -38t18 -38t63 -11z" />
    <glyph glyph-name="uni2077" unicode="&#x2077;" horiz-adv-x="405" 
d="M24 882h353v-107l-190 -298h-135l202 314h-230v91z" />
    <glyph glyph-name="uni2078" unicode="&#x2078;" horiz-adv-x="426" 
d="M345 687q51 -18 51 -85v-15q0 -62 -40.5 -88.5t-134.5 -26.5h-16q-94 0 -134.5 26.5t-40.5 88.5v15q0 67 52 85q-45 17 -45 70v16q0 62 38 88.5t129 26.5h19q90 0 128 -26.5t38 -88.5v-16q0 -53 -44 -70zM213 799q-38 0 -51 -8t-13 -31t13.5 -31t50.5 -8t51 8t14 31
t-13 31t-52 8zM213 560q44 0 58 8.5t14 32.5q0 26 -14 34.5t-58 8.5t-58 -8.5t-14 -34.5q0 -24 14 -32.5t58 -8.5z" />
    <glyph glyph-name="uni2079" unicode="&#x2079;" horiz-adv-x="435" 
d="M222 888q100 0 141.5 -44.5t41.5 -151.5v-21q0 -111 -40.5 -155t-141.5 -44h-20q-53 0 -87.5 9t-51.5 27t-23.5 38.5t-6.5 51.5h106q1 -19 14.5 -28.5t49.5 -9.5q52 0 69.5 15t19.5 66q-34 -17 -79 -17h-20q-90 0 -129 28.5t-39 93.5v16q0 67 41.5 96.5t135.5 29.5h19z
M211 703q45 0 63 11t18 38t-18 38t-63 11t-63 -11t-18 -38t18 -38t63 -11z" />
    <glyph glyph-name="uni207D" unicode="&#x207d;" horiz-adv-x="243" 
d="M222 890v-90q-53 -1 -69 -23t-16 -97q0 -76 16 -97.5t69 -23.5v-89q-113 0 -150.5 39t-37.5 160v21q0 121 37.5 160.5t150.5 39.5z" />
    <glyph glyph-name="uni207E" unicode="&#x207e;" horiz-adv-x="243" 
d="M21 470v89q53 2 69 23.5t16 97.5q0 75 -16 97t-69 23v90q113 0 150.5 -39.5t37.5 -160.5v-21q0 -121 -37.5 -160t-150.5 -39z" />
    <glyph glyph-name="uni2080" unicode="&#x2080;" horiz-adv-x="450" 
d="M216 208h19q103 0 144.5 -44.5t41.5 -153.5v-21q0 -109 -41.5 -153t-144.5 -44h-19q-103 0 -144.5 43.5t-41.5 153.5v21q0 110 41.5 154t144.5 44zM225 115q-51 0 -67 -22t-15 -93q1 -73 16.5 -94.5t65.5 -21.5q51 0 66.5 22t16.5 94q1 71 -15.5 93t-67.5 22z" />
    <glyph glyph-name="uni2081" unicode="&#x2081;" horiz-adv-x="397" 
d="M163 202h137v-405h-113v285l-70 -71l-77 73z" />
    <glyph glyph-name="uni2082" unicode="&#x2082;" horiz-adv-x="433" 
d="M208 208h15q96 0 134 -28.5t38 -99.5v-16q0 -61 -32.5 -88.5t-112.5 -39.5q-71 -12 -86 -18.5t-15 -26.5v-6h245v-88h-356v99q0 56 36 81.5t129 36.5q51 7 66.5 18t15.5 39t-14 38t-56 10q-43 0 -58 -15t-15 -58h-106q0 92 37 127t135 35z" />
    <glyph glyph-name="uni2083" unicode="&#x2083;" horiz-adv-x="429" 
d="M354 7q43 -18 43 -82v-15q0 -64 -41 -91t-136 -27h-19q-95 0 -133 33.5t-39 115.5h109q2 -36 15.5 -48t58.5 -12q44 0 58.5 8.5t14.5 31.5q0 25 -12 33t-48 8h-43v81h42q32 0 43 7.5t11 28.5q0 22 -13.5 30.5t-52.5 8.5q-42 0 -55 -11.5t-15 -44.5h-109q1 80 38.5 113
t130.5 33h20q91 0 129.5 -27t38.5 -91v-15q0 -51 -36 -68z" />
    <glyph glyph-name="uni2084" unicode="&#x2084;" horiz-adv-x="440" 
d="M425 -31v-91h-58v-81h-113v81h-233v101l201 223h145v-233h58zM131 -31h123v136z" />
    <glyph glyph-name="uni2085" unicode="&#x2085;" horiz-adv-x="428" 
d="M229 73q95 0 131.5 -29.5t36.5 -99.5v-18q0 -74 -39.5 -104t-135.5 -30h-19q-93 0 -131.5 33t-38.5 112h109q0 -32 15 -44t57 -12t56.5 11t14.5 43q0 34 -14 45t-58 11q-63 0 -70 -22h-107v233h347v-88h-236v-53q29 12 65 12h17z" />
    <glyph glyph-name="uni2086" unicode="&#x2086;" horiz-adv-x="435" 
d="M240 55q91 0 130 -28.5t39 -93.5v-15q0 -67 -41.5 -96.5t-136.5 -29.5h-18q-101 0 -142 44t-41 152v20q0 111 40.5 155.5t141.5 44.5h19q101 0 135 -31.5t35 -94.5h-106q-1 20 -14.5 29t-50.5 9q-51 0 -68 -15.5t-20 -66.5q34 17 79 17h19zM224 -122q45 0 62.5 11
t17.5 38t-17.5 38t-62.5 11t-63 -11t-18 -38t18 -38t63 -11z" />
    <glyph glyph-name="uni2087" unicode="&#x2087;" horiz-adv-x="405" 
d="M24 202h353v-107l-190 -298h-135l202 314h-230v91z" />
    <glyph glyph-name="uni2088" unicode="&#x2088;" horiz-adv-x="426" 
d="M345 7q51 -18 51 -85v-15q0 -62 -40.5 -88.5t-134.5 -26.5h-16q-94 0 -134.5 26.5t-40.5 88.5v15q0 67 52 85q-45 17 -45 70v16q0 62 38 88.5t129 26.5h19q90 0 128 -26.5t38 -88.5v-16q0 -53 -44 -70zM213 119q-38 0 -51 -8t-13 -31t13.5 -31t50.5 -8t51 8t14 31t-13 31
t-52 8zM213 -120q44 0 58 8.5t14 32.5q0 26 -14 34.5t-58 8.5t-58 -8.5t-14 -34.5q0 -24 14 -32.5t58 -8.5z" />
    <glyph glyph-name="uni2089" unicode="&#x2089;" horiz-adv-x="435" 
d="M222 208q100 0 141.5 -44.5t41.5 -151.5v-21q0 -111 -40.5 -155t-141.5 -44h-20q-53 0 -87.5 9t-51.5 27t-23.5 38.5t-6.5 51.5h106q1 -19 14.5 -28.5t49.5 -9.5q52 0 69.5 15t19.5 66q-34 -17 -79 -17h-20q-90 0 -129 28.5t-39 93.5v16q0 67 41.5 96.5t135.5 29.5h19z
M211 23q45 0 63 11t18 38t-18 38t-63 11t-63 -11t-18 -38t18 -38t63 -11z" />
    <glyph glyph-name="uni208D" unicode="&#x208d;" horiz-adv-x="243" 
d="M222 210v-90q-53 -1 -69 -23t-16 -97q0 -76 16 -97.5t69 -23.5v-89q-113 0 -150.5 39t-37.5 160v21q0 121 37.5 160.5t150.5 39.5z" />
    <glyph glyph-name="uni208E" unicode="&#x208e;" horiz-adv-x="243" 
d="M21 -210v89q53 2 69 23.5t16 97.5q0 75 -16 97t-69 23v90q113 0 150.5 -39.5t37.5 -160.5v-21q0 -121 -37.5 -160t-150.5 -39z" />
    <glyph glyph-name="franc" unicode="&#x20a3;" horiz-adv-x="630" 
d="M584 550h-303v-145h263v-129h-263v-80h127v-109h-127v-87h-157v87h-89v109h89v484h460v-130z" />
    <glyph glyph-name="lira" unicode="&#x20a4;" horiz-adv-x="630" 
d="M220 132h378v-132h-556v143q38 5 54.5 22.5t19.5 60.5h-94v93h95v42h-95v93h95q4 133 54 183t174 50h24q119 0 166.5 -45t51.5 -154h-146q-1 39 -20 54t-64 15q-51 0 -71 -22t-22 -81h154v-93h-154v-42h154v-93h-155q-5 -64 -43 -94z" />
    <glyph glyph-name="peseta" unicode="&#x20a7;" horiz-adv-x="630" 
d="M604 495v-117h-68q-10 -96 -65.5 -140t-164.5 -44h-63v-194h-152v378h-65v117h65v185h215q110 0 165 -43.5t65 -141.5h68zM243 551v-56h136q-7 32 -27.5 44t-65.5 12h-43zM286 322q45 0 65 12t27 44h-135v-56h43z" />
    <glyph glyph-name="uni20A9" unicode="&#x20a9;" horiz-adv-x="1086" 
d="M1068 377h-84l-11 -48h95v-93h-117l-57 -236h-221l-61 236h-138l-61 -236h-221l-57 236h-116v93h94l-11 48h-83v93h60l-50 210h164l46 -210h144l50 210h222l50 -210h144l46 210h162l-50 -210h61v-93zM543 505l-9 -35h18zM259 377l11 -48h80l11 48h-102zM498 329h90
l-12 48h-66zM818 329l11 48h-102l11 -48h80zM308 154l20 82h-38zM780 154l18 82h-38z" />
    <glyph glyph-name="dong" unicode="&#x20ab;" horiz-adv-x="630" 
d="M618 712v-96h-54v-283q0 -98 -59.5 -145t-188.5 -47h-22q-128 0 -187 50.5t-59 156.5v22q0 105 54.5 155.5t173.5 50.5h10q88 0 132 -31v71h-134v96h134v38h146v-38h54zM305 264q64 0 87.5 21t23.5 72q0 53 -24.5 75.5t-89.5 22.5q-62 0 -84.5 -21.5t-22.5 -74.5
q0 -52 23 -73.5t87 -21.5zM50 0v103h514v-103h-514z" />
    <glyph glyph-name="Euro" unicode="&#x20ac;" horiz-adv-x="630" 
d="M368 122q49 0 67.5 16.5t19.5 54.5h148q-3 -102 -57 -151t-176 -49h-22q-120 0 -182.5 55t-78.5 178h-69v93h63v7v28v7h-63v93h69q16 123 78.5 178t182.5 55h22q122 0 176 -49t57 -151h-148q-1 38 -19.5 54.5t-67.5 16.5q-57 0 -84.5 -22.5t-36.5 -81.5h186l-16 -93h-177
v-21v-21h170l-16 -93h-147q9 -59 36.5 -81.5t84.5 -22.5z" />
    <glyph glyph-name="uni20B9" unicode="&#x20b9;" horiz-adv-x="630" 
d="M590 563h-110q13 -28 19 -70h91v-117h-93q-17 -100 -96 -123q53 -9 74.5 -42t21.5 -92v-121h-157v93q0 57 -25 79.5t-85 22.5h-186v127h178q56 0 81.5 11.5t34.5 44.5h-294v117h293q-9 32 -34.5 44t-80.5 12h-178v131h546v-117z" />
    <glyph glyph-name="uni20BA" unicode="&#x20ba;" horiz-adv-x="630" 
d="M447 258h157v-34q0 -120 -57 -175.5t-184 -55.5h-25q-125 0 -184 54t-61 168l-68 -29v125l68 29v46l-68 -29v125l68 29v169h156v-102l113 49v-125l-113 -49v-46l113 49v-125l-113 -49v-35q0 -68 20.5 -92.5t79.5 -24.5t78.5 22.5t19.5 85.5v20z" />
    <glyph glyph-name="uni20BF" unicode="&#x20bf;" horiz-adv-x="630" 
d="M498 348q91 -24 91 -139v-21q0 -87 -35.5 -129.5t-119.5 -53.5v-85h-101v80h-41v-80h-101v80h-137v680h137v80h101v-80h41v80h101v-87q72 -13 103 -55t31 -124v-21q0 -93 -70 -125zM412 479q0 42 -19 57t-75 15h-108v-146h105q58 0 77.5 15t19.5 59zM334 129
q59 0 79 15.5t20 60.5q0 46 -20.5 62t-81.5 16h-121v-154h124z" />
    <glyph glyph-name="uni2101" unicode="&#x2101;" horiz-adv-x="1225" 
d="M464 277h-117v34q-37 -39 -115 -39h-9q-101 0 -146.5 46.5t-45.5 150.5v18q0 104 49 151t158 47h18q110 0 159 -44t49 -141v-223zM801 680h112l-419 -680h-111zM244 372q56 0 76.5 23t20.5 87q0 62 -19 82.5t-75 20.5q-55 0 -74.5 -22t-19.5 -85t18.5 -84.5t72.5 -21.5z
M1018 254q103 -2 140.5 -25.5t37.5 -93.5v-18q0 -64 -44.5 -91t-149.5 -27h-18q-106 0 -147 29.5t-41 101.5h117q0 -25 17 -33.5t66 -8.5q48 0 64.5 7t16.5 28q0 23 -19.5 30.5t-86.5 8.5q-100 2 -137.5 25t-37.5 92v18q0 64 43 90.5t147 26.5h18q103 0 142.5 -29.5
t40.5 -100.5h-117q0 25 -16 33.5t-64 8.5q-45 0 -60 -6.5t-15 -27.5q0 -22 19.5 -29.5t83.5 -8.5z" />
    <glyph glyph-name="uni2113" unicode="&#x2113;" horiz-adv-x="500" 
d="M253 276q0 -9 -13 -71q-18 -83 -18 -129q0 -26 17 -26q24 0 48 52q9 19 20 19q15 0 15 -17q0 -29 -31 -67q-36 -43 -74 -43q-34 0 -52 26t-18 73q0 38 7 110q-36 -35 -45 -35q-5 0 -10 6t-5 13q0 13 18 28q22 19 49 52q79 419 200 419q31 0 50 -23t19 -62q0 -83 -64 -188
q-31 -51 -113 -137zM266 349q54 61 86 126t32 119q0 44 -23 44q-10 0 -20 -12t-17 -31q-30 -84 -58 -246z" />
    <glyph glyph-name="uni2116" unicode="&#x2116;" horiz-adv-x="1240" 
d="M54 0v680h245l260 -528v528h154v-680h-245l-261 530v-530h-153zM804 469v21q0 110 41.5 154t144.5 44h19q103 0 144.5 -44.5t41.5 -153.5v-21q0 -109 -41.5 -153t-144.5 -44h-19q-103 0 -144.5 43.5t-41.5 153.5zM820 83v104h358v-104h-358zM917 480q1 -73 16.5 -94.5
t65.5 -21.5q51 0 66.5 22t16.5 94v8q0 64 -16 85.5t-67 21.5t-66.5 -21.5t-15.5 -85.5v-8z" />
    <glyph glyph-name="uni2120" unicode="&#x2120;" horiz-adv-x="900" 
d="M222 549q86 -2 117 -21t31 -79v-14q0 -55 -36.5 -77.5t-124.5 -22.5h-15q-89 0 -123 25t-34 86h97q0 -22 14.5 -29.5t55.5 -7.5q40 0 54 6.5t14 24.5q0 19 -16.5 25.5t-72.5 7.5q-84 2 -115 21t-31 77v15q0 53 36 75.5t122 22.5h15q87 0 119.5 -24.5t33.5 -84.5h-97
q-1 21 -14 28t-54 7q-37 0 -49.5 -5.5t-12.5 -23.5t16.5 -24.5t69.5 -7.5zM854 680v-341h-97v244l-67 -150h-92l-67 150v-244h-96v341h142l67 -150l67 150h143z" />
    <glyph glyph-name="trademark" unicode="&#x2122;" horiz-adv-x="879" 
d="M351 680v-85h-113v-256h-97v256h-113v85h323zM833 680v-341h-97v244l-67 -150h-91l-67 150v-244h-97v341h143l67 -149l66 149h143z" />
    <glyph glyph-name="estimated" unicode="&#x212e;" horiz-adv-x="824" 
d="M204 333v-240q88 -77 226 -77q85 0 157 37.5t113 102.5l26 -18q-47 -72 -125.5 -112t-170.5 -40q-162 0 -266 100.5t-104 263.5q0 161 101.5 262t250.5 101t250.5 -101t101.5 -262v-17h-560zM204 363h421v241q-90 79 -213 79q-120 0 -208 -75v-245z" />
    <glyph glyph-name="uni2150" unicode="&#x2150;" horiz-adv-x="1051" 
d="M300 275h-113v285l-70 -71l-77 73l123 118h137v-405zM655 680h112l-419 -680h-111zM671 405h353v-107l-190 -298h-135l202 314h-230v91z" />
    <glyph glyph-name="uni2151" unicode="&#x2151;" horiz-adv-x="1041" 
d="M300 275h-113v285l-70 -71l-77 73l123 118h137v-405zM655 680h112l-419 -680h-111zM829 411q100 0 141.5 -44.5t41.5 -151.5v-21q0 -111 -40.5 -155t-141.5 -44h-20q-53 0 -87.5 9t-51.5 27t-23.5 38.5t-6.5 51.5h106q1 -19 14.5 -28.5t49.5 -9.5q52 0 69.5 15t19.5 66
q-34 -17 -79 -17h-20q-90 0 -129 28.5t-39 93.5v16q0 67 41.5 96.5t135.5 29.5h19zM818 226q45 0 63 11t18 38t-18 38t-63 11t-63 -11t-18 -38t18 -38t63 -11z" />
    <glyph glyph-name="uni2152" unicode="&#x2152;" horiz-adv-x="1447" 
d="M300 275h-113v285l-70 -71l-77 73l123 118h137v-405zM655 680h112l-419 -680h-111zM1232 411q103 0 144.5 -44.5t41.5 -153.5v-21q0 -109 -41.5 -153t-144.5 -44h-19q-103 0 -144.5 43.5t-41.5 153.5v21q0 110 41.5 154t144.5 44h19zM640 287l123 118h137v-405h-113v285
l-70 -71zM1305 203q1 71 -15.5 93t-67.5 22t-67 -22t-15 -93q1 -73 16.5 -94.5t65.5 -21.5q51 0 66.5 22t16.5 94z" />
    <glyph glyph-name="onethird" unicode="&#x2153;" horiz-adv-x="1036" 
d="M300 275h-113v285l-70 -71l-77 73l123 118h137v-405zM655 680h112l-419 -680h-111zM961 210q43 -18 43 -82v-15q0 -64 -41 -91t-136 -27h-19q-95 0 -133 33.5t-39 115.5h109q2 -36 15.5 -48t58.5 -12t59 8.5t14 31.5q0 25 -12 33t-48 8h-43v81h42q32 0 43 7.5t11 28.5
q0 22 -13.5 30.5t-52.5 8.5q-42 0 -55 -11.5t-15 -44.5h-109q1 80 38.5 113t130.5 33h20q91 0 129.5 -27t38.5 -91v-15q0 -51 -36 -68z" />
    <glyph glyph-name="twothirds" unicode="&#x2154;" horiz-adv-x="1071" 
d="M203 491q51 7 66.5 18t15.5 39t-14 38t-56 10q-43 0 -58 -15t-15 -58h-106q0 92 37 127t135 35h15q96 0 134 -28.5t38 -99.5v-16q0 -61 -32.5 -88.5t-112.5 -39.5q-71 -12 -86 -18.5t-15 -26.5v-6h245v-88h-356v99q0 56 36 81.5t129 36.5zM691 680h112l-419 -680h-111z
M996 210q43 -18 43 -82v-15q0 -64 -41 -91t-136 -27h-19q-95 0 -133 33.5t-39 115.5h109q2 -36 15.5 -48t58.5 -12q44 0 58.5 8.5t14.5 31.5q0 25 -12 33t-48 8h-43v81h42q32 0 43 7.5t11 28.5q0 22 -13.5 30.5t-52.5 8.5q-42 0 -55 -11.5t-15 -44.5h-109q1 80 38.5 113
t130.5 33h20q91 0 129.5 -27t38.5 -91v-15q0 -51 -36 -68z" />
    <glyph glyph-name="uni2155" unicode="&#x2155;" horiz-adv-x="1048" 
d="M300 275h-113v285l-70 -71l-77 73l123 118h137v-405zM655 680h112l-419 -680h-111zM849 276q95 0 131.5 -29.5t36.5 -99.5v-18q0 -74 -39.5 -104t-135.5 -30h-19q-93 0 -131.5 33t-38.5 112h109q0 -32 15 -44t57 -12t56.5 11t14.5 43q0 34 -14 45t-58 11q-63 0 -70 -22
h-107v233h347v-88h-236v-53q29 12 65 12h17z" />
    <glyph glyph-name="uni2156" unicode="&#x2156;" horiz-adv-x="1083" 
d="M203 491q51 7 66.5 18t15.5 39t-14 38t-56 10q-43 0 -58 -15t-15 -58h-106q0 92 37 127t135 35h15q96 0 134 -28.5t38 -99.5v-16q0 -61 -32.5 -88.5t-112.5 -39.5q-71 -12 -86 -18.5t-15 -26.5v-6h245v-88h-356v99q0 56 36 81.5t129 36.5zM691 680h112l-419 -680h-111z
M884 276q95 0 131.5 -29.5t36.5 -99.5v-18q0 -74 -39.5 -104t-135.5 -30h-19q-93 0 -131.5 33t-38.5 112h109q0 -32 15 -44t57 -12t56.5 11t14.5 43q0 34 -14 45t-58 11q-63 0 -70 -22h-107v233h347v-88h-236v-53q28 12 65 12h17z" />
    <glyph glyph-name="uni2157" unicode="&#x2157;" horiz-adv-x="1080" 
d="M397 388q0 -64 -41 -91t-136 -27h-19q-95 0 -133 33.5t-39 115.5h109q2 -36 15.5 -48t58.5 -12q44 0 58.5 8.5t14.5 31.5q0 25 -12 33t-48 8h-43v81h42q32 0 43 7.5t11 28.5q0 22 -13.5 30.5t-52.5 8.5q-42 0 -55 -11.5t-15 -44.5h-109q1 80 38.5 113t130.5 33h20
q91 0 129.5 -27t38.5 -91v-15q0 -51 -36 -68q43 -18 43 -82v-15zM687 680h112l-419 -680h-111zM881 276q95 0 131.5 -29.5t36.5 -99.5v-18q0 -74 -39.5 -104t-135.5 -30h-19q-93 0 -131.5 33t-38.5 112h109q0 -32 15 -44t57 -12t56.5 11t14.5 43q0 34 -14 45t-58 11
q-63 0 -70 -22h-107v233h347v-88h-236v-53q28 12 65 12h17z" />
    <glyph glyph-name="uni2158" unicode="&#x2158;" horiz-adv-x="1094" 
d="M367 275h-113v81h-233v101l201 223h145v-233h58v-91h-58v-81zM701 680h112l-419 -680h-111zM131 447h123v136zM895 276q95 0 131.5 -29.5t36.5 -99.5v-18q0 -74 -39.5 -104t-135.5 -30h-19q-93 0 -131.5 33t-38.5 112h109q0 -32 15 -44t57 -12t56.5 11t14.5 43
q0 34 -14 45t-58 11q-63 0 -70 -22h-107v233h347v-88h-236v-53q29 12 65 12h17z" />
    <glyph glyph-name="uni2159" unicode="&#x2159;" horiz-adv-x="1041" 
d="M300 275h-113v285l-70 -71l-77 73l123 118h137v-405zM655 680h112l-419 -680h-111zM847 258q91 0 130 -28.5t39 -93.5v-15q0 -67 -41.5 -96.5t-136.5 -29.5h-18q-101 0 -142 44t-41 152v20q0 111 40.5 155.5t141.5 44.5h19q101 0 135 -31.5t35 -94.5h-106q-1 20 -14.5 29
t-50.5 9q-51 0 -68 -15.5t-20 -66.5q34 17 79 17h19zM831 81q45 0 62.5 11t17.5 38t-17.5 38t-62.5 11t-63 -11t-18 -38t18 -38t63 -11z" />
    <glyph glyph-name="uni215A" unicode="&#x215a;" horiz-adv-x="1072" 
d="M397 404q0 -74 -39.5 -104t-135.5 -30h-19q-93 0 -131.5 33t-38.5 112h109q0 -32 15 -44t57 -12t56.5 11t14.5 43q0 34 -14 45t-58 11q-63 0 -70 -22h-107v233h347v-88h-236v-53q29 12 65 12h17q95 0 131.5 -29.5t36.5 -99.5v-18zM686 680h112l-419 -680h-111zM877 258
q91 0 130 -28.5t39 -93.5v-15q0 -67 -41.5 -96.5t-136.5 -29.5h-18q-101 0 -142 44t-41 152v20q0 111 40.5 155.5t141.5 44.5h19q101 0 135 -31.5t35 -94.5h-106q-1 20 -14.5 29t-50.5 9q-51 0 -68 -15.5t-20 -66.5q34 17 79 17h19zM861 81q45 0 62.5 11t17.5 38t-17.5 38
t-62.5 11t-63 -11t-18 -38t18 -38t63 -11z" />
    <glyph glyph-name="oneeighth" unicode="&#x215b;" horiz-adv-x="1033" 
d="M300 275h-113v285l-70 -71l-77 73l123 118h137v-405zM655 680h112l-419 -680h-111zM952 210q51 -18 51 -85v-15q0 -62 -40.5 -88.5t-134.5 -26.5h-16q-94 0 -134.5 26.5t-40.5 88.5v15q0 67 52 85q-45 16 -45 70v16q0 62 38 88.5t129 26.5h19q90 0 128 -26.5t38 -88.5
v-16q0 -53 -44 -70zM820 322q-38 0 -51 -8t-13 -31t13.5 -31t50.5 -8t51 8t14 31t-13 31t-52 8zM820 83q44 0 58 8.5t14 32.5q0 26 -14 34.5t-58 8.5t-58 -8.5t-14 -34.5q0 -24 14 -32.5t58 -8.5z" />
    <glyph glyph-name="threeeighths" unicode="&#x215c;" horiz-adv-x="1065" 
d="M397 388q0 -64 -41 -91t-136 -27h-19q-95 0 -133 33.5t-39 115.5h109q2 -36 15.5 -48t58.5 -12q44 0 58.5 8.5t14.5 31.5q0 25 -12 33t-48 8h-43v81h42q32 0 43 7.5t11 28.5q0 22 -13.5 30.5t-52.5 8.5q-42 0 -55 -11.5t-15 -44.5h-109q1 80 38.5 113t130.5 33h20
q91 0 129.5 -27t38.5 -91v-15q0 -51 -36 -68q43 -18 43 -82v-15zM687 680h112l-419 -680h-111zM984 210q51 -18 51 -85v-15q0 -62 -40.5 -88.5t-134.5 -26.5h-16q-94 0 -134.5 26.5t-40.5 88.5v15q0 67 52 85q-45 16 -45 70v16q0 62 38 88.5t129 26.5h19q90 0 128 -26.5
t38 -88.5v-16q0 -53 -44 -70zM852 322q-38 0 -51 -8t-13 -31t13.5 -31t50.5 -8t51 8t14 31t-13 31t-52 8zM852 83q44 0 58 8.5t14 32.5q0 26 -14 34.5t-58 8.5t-58 -8.5t-14 -34.5q0 -24 14 -32.5t58 -8.5z" />
    <glyph glyph-name="fiveeighths" unicode="&#x215d;" horiz-adv-x="1064" 
d="M397 404q0 -74 -39.5 -104t-135.5 -30h-19q-93 0 -131.5 33t-38.5 112h109q0 -32 15 -44t57 -12t56.5 11t14.5 43q0 34 -14 45t-58 11q-63 0 -70 -22h-107v233h347v-88h-236v-53q29 12 65 12h17q95 0 131.5 -29.5t36.5 -99.5v-18zM686 680h112l-419 -680h-111zM982 210
q51 -18 51 -85v-15q0 -62 -40.5 -88.5t-134.5 -26.5h-16q-94 0 -134.5 26.5t-40.5 88.5v15q0 67 52 85q-45 16 -45 70v16q0 62 38 88.5t129 26.5h19q90 0 128 -26.5t38 -88.5v-16q0 -53 -44 -70zM850 322q-38 0 -51 -8t-13 -31t13.5 -31t50.5 -8t51 8t14 31t-13 31t-52 8z
M850 83q44 0 58 8.5t14 32.5q0 26 -14 34.5t-58 8.5t-58 -8.5t-14 -34.5q0 -24 14 -32.5t58 -8.5z" />
    <glyph glyph-name="seveneighths" unicode="&#x215e;" horiz-adv-x="974" 
d="M187 275h-135l202 314h-230v91h353v-107zM596 680h112l-419 -680h-111zM893 210q51 -18 51 -85v-15q0 -62 -40.5 -88.5t-134.5 -26.5h-16q-94 0 -134.5 26.5t-40.5 88.5v15q0 67 52 85q-45 16 -45 70v16q0 62 38 88.5t129 26.5h19q90 0 128 -26.5t38 -88.5v-16
q0 -53 -44 -70zM761 322q-38 0 -51 -8t-13 -31t13.5 -31t50.5 -8t51 8t14 31t-13 31t-52 8zM761 83q44 0 58 8.5t14 32.5q0 26 -14 34.5t-58 8.5t-58 -8.5t-14 -34.5q0 -24 14 -32.5t58 -8.5z" />
    <glyph glyph-name="uni215F" unicode="&#x215f;" horiz-adv-x="607" 
d="M300 275h-113v285l-70 -71l-77 73l123 118h137v-405zM655 680h112l-419 -680h-111z" />
    <glyph glyph-name="uni2189" unicode="&#x2189;" horiz-adv-x="1089" 
d="M421 467q0 -109 -41.5 -153t-144.5 -44h-19q-103 0 -144.5 43.5t-41.5 153.5v21q0 110 41.5 154t144.5 44h19q103 0 144.5 -44.5t41.5 -153.5v-21zM708 680h112l-419 -680h-111zM308 478q1 71 -15.5 93t-67.5 22t-67 -22t-15 -93q1 -73 16.5 -94.5t65.5 -21.5
q51 0 66.5 22t16.5 94zM1014 210q43 -18 43 -82v-15q0 -64 -41 -91t-136 -27h-19q-95 0 -133 33.5t-39 115.5h109q2 -36 15.5 -48t58.5 -12q44 0 58.5 8.5t14.5 31.5q0 25 -12 33t-48 8h-43v81h42q32 0 43 7.5t11 28.5q0 22 -13.5 30.5t-52.5 8.5q-42 0 -55 -11.5t-15 -44.5
h-109q1 80 38.5 113t130.5 33h20q91 0 129.5 -27t38.5 -91v-15q0 -51 -36 -68z" />
    <glyph glyph-name="arrowleft" unicode="&#x2190;" horiz-adv-x="680" 
d="M654 379v-92h-437l48 -115l-22 -20l-222 165v32l222 165l22 -20l-48 -115h437z" />
    <glyph glyph-name="arrowup" unicode="&#x2191;" horiz-adv-x="680" 
d="M521 439l-20 -22l-115 48v-437h-92v437l-115 -48l-20 22l165 222h32z" />
    <glyph glyph-name="arrowright" unicode="&#x2192;" horiz-adv-x="680" 
d="M437 514l222 -165v-32l-222 -165l-22 20l48 115h-437v92h437l-48 115z" />
    <glyph glyph-name="arrowdown" unicode="&#x2193;" horiz-adv-x="680" 
d="M501 253l20 -22l-165 -222h-32l-165 222l20 22l115 -48v437h92v-437z" />
    <glyph glyph-name="arrowboth" unicode="&#x2194;" horiz-adv-x="680" 
d="M443 515l222 -165v-32l-222 -165l-22 20l48 115h-258l48 -115l-22 -20l-222 165v32l222 165l22 -20l-48 -115h258l-48 115z" />
    <glyph glyph-name="arrowupdn" unicode="&#x2195;" horiz-adv-x="680" 
d="M386 203l115 48l20 -22l-165 -222h-32l-165 222l20 22l115 -48v262l-115 -48l-20 22l165 222h32l165 -222l-20 -22l-115 48v-262z" />
    <glyph glyph-name="uni2196" unicode="&#x2196;" horiz-adv-x="680" 
d="M590 153l-65 -65l-309 308l-48 -115l-29 2l-41 274l23 22l274 -40l1 -30l-116 -47z" />
    <glyph glyph-name="uni2197" unicode="&#x2197;" horiz-adv-x="680" 
d="M559 579l23 -22l-40 -274l-30 -1l-47 115l-309 -309l-65 65l309 309l-116 47l2 30z" />
    <glyph glyph-name="uni2198" unicode="&#x2198;" horiz-adv-x="680" 
d="M541 394l41 -273l-23 -23l-274 40l-1 30l116 47l-310 309l65 65l309 -308l48 115z" />
    <glyph glyph-name="uni2199" unicode="&#x2199;" horiz-adv-x="680" 
d="M589 524l-309 -309l116 -47l-2 -30l-273 -40l-23 22l40 274l30 1l47 -115l309 309z" />
    <glyph glyph-name="partialdiff" unicode="&#x2202;" horiz-adv-x="586" 
d="M504 418q48 -85 48 -170v-22q0 -122 -59 -177.5t-189 -55.5h-22q-130 0 -189 55.5t-59 177.5v22q0 122 59 178t189 56h13q15 0 23 -1l-113 199h148zM293 115q66 0 88.5 25t22.5 97q0 73 -22.5 98t-88.5 25q-65 0 -88 -25t-23 -98q0 -72 23 -97t88 -25z" />
    <glyph glyph-name="emptyset" unicode="&#x2205;" horiz-adv-x="680" 
d="M566 505q54 -75 54 -165q0 -115 -82.5 -197t-197.5 -82q-89 0 -164 54l-50 -51l-62 62l51 50q-54 75 -54 164q0 115 82 197.5t197 82.5q90 0 165 -54l50 50l61 -61zM154 340q0 -53 27 -97l257 256q-45 28 -98 28q-77 0 -131.5 -55t-54.5 -132zM340 153q77 0 131.5 55
t54.5 132q0 53 -27 97l-257 -256q45 -28 98 -28z" />
    <glyph glyph-name="uni2206" unicode="&#x2206;" horiz-adv-x="691" 
d="M452 680l215 -542v-138h-643v138l215 542h213zM335 543l-158 -410h337l-158 410h-21z" />
    <glyph glyph-name="product" unicode="&#x220f;" horiz-adv-x="681" 
d="M46 680h588v-870h-149v733h-289v-733h-150v870z" />
    <glyph glyph-name="summation" unicode="&#x2211;" horiz-adv-x="598" 
d="M187 -53h375v-137h-530v150l210 298l-200 273v149h510v-137h-348l199 -285z" />
    <glyph glyph-name="minus" unicode="&#x2212;" horiz-adv-x="630" 
d="M67 306h496v-127h-496v127z" />
    <glyph glyph-name="uni2218" unicode="&#x2218;" horiz-adv-x="500" 
d="M250 503q68 0 115 -47.5t47 -115.5t-47 -115.5t-115 -47.5t-115 47.5t-47 115.5t47 115.5t115 47.5zM250 414q-31 0 -52 -21.5t-21 -52.5t21 -52.5t52 -21.5t52 21.5t21 52.5t-21 52.5t-52 21.5z" />
    <glyph glyph-name="uni2219" unicode="&#x2219;" horiz-adv-x="630" 
d="M315 395q67 0 111 -43.5t44 -108.5q0 -67 -44 -110.5t-111 -43.5t-111 43.5t-44 110.5q0 65 44 108.5t111 43.5z" />
    <glyph glyph-name="radical" unicode="&#x221a;" horiz-adv-x="680" 
d="M673 836v-128h-147l-181 -708h-168l-77 255h-87v128h188l54 -197l164 650h254z" />
    <glyph glyph-name="infinity" unicode="&#x221e;" horiz-adv-x="680" 
d="M181 406q93 0 162 -88q42 48 76 68t80 20q78 0 119 -41.5t41 -115.5v-16q0 -69 -43 -111.5t-117 -42.5q-93 0 -162 88q-42 -48 -76 -68t-80 -20q-78 0 -119 41.5t-41 115.5v16q0 69 43 111.5t117 42.5zM393 248q42 -70 92 -70q60 0 60 64q0 34 -16.5 52t-45.5 18
q-49 0 -90 -64zM288 236q-43 71 -93 71q-60 0 -60 -64q0 -34 16.5 -52t45.5 -18q50 0 91 63z" />
    <glyph glyph-name="integral" unicode="&#x222b;" horiz-adv-x="500" 
d="M177 530q0 93 31.5 125t115.5 32q52 0 77 -5v-126q-20 2 -38 2q-24 0 -32 -8.5t-8 -37.5v-550q0 -93 -31.5 -125t-115.5 -32q-52 0 -77 5v126q20 -2 38 -2q24 0 32 8.5t8 37.5v550z" />
    <glyph glyph-name="uni2236" unicode="&#x2236;" horiz-adv-x="348" 
d="M174 434q-37 0 -62 24.5t-25 61.5q0 36 25 60.5t62 24.5t62 -24.5t25 -60.5q0 -37 -25 -61.5t-62 -24.5zM174 75q-37 0 -62 24.5t-25 61.5q0 36 25 60.5t62 24.5t62 -24.5t25 -60.5q0 -37 -25 -61.5t-62 -24.5z" />
    <glyph glyph-name="similar" unicode="&#x223c;" horiz-adv-x="630" 
d="M327 646q58 -27 93 -27q27 0 42.5 15t32.5 50l86 -46q-30 -73 -68.5 -111t-96.5 -38q-10 0 -21.5 2t-19 4t-21.5 7.5t-17.5 7t-19.5 9.5l-16 8q-58 27 -91 27q-27 0 -42.5 -15t-31.5 -50l-87 46q30 73 68.5 111t96.5 38q10 0 21 -2t19 -4t20.5 -7t17.5 -7.5t18.5 -9.5
t16.5 -8z" />
    <glyph glyph-name="uni2243" unicode="&#x2243;" horiz-adv-x="630" 
d="M327 411q58 -27 93 -27q27 0 42.5 15t32.5 50l86 -46q-30 -73 -68.5 -111t-96.5 -38q-10 0 -21.5 2t-19 4t-21.5 7.5t-17.5 7t-19.5 9.5l-16 8q-58 27 -91 27q-27 0 -42.5 -15t-31.5 -50l-87 46q30 73 68.5 111t96.5 38q10 0 21 -2t19 -4t20.5 -7t17.5 -7.5t18.5 -9.5
t16.5 -8zM67 204h496v-127h-496v127z" />
    <glyph glyph-name="approxequal" unicode="&#x2248;" horiz-adv-x="630" 
d="M327 410q58 -27 93 -27q27 0 42.5 15t32.5 50l86 -46q-30 -73 -68.5 -111t-96.5 -38q-10 0 -21.5 2t-19 4t-21.5 7.5t-17.5 7t-19.5 9.5l-16 8q-58 27 -91 27q-27 0 -42.5 -15t-31.5 -50l-87 46q30 73 68.5 111t96.5 38q10 0 21 -2t19 -4t20.5 -7t17.5 -7.5t18.5 -9.5
t16.5 -8zM327 194q58 -27 93 -27q27 0 42.5 15t32.5 50l86 -46q-30 -73 -68.5 -111t-96.5 -38q-10 0 -21.5 2t-19 4t-21.5 7.5t-17.5 7t-19.5 9.5l-16 8q-58 27 -91 27q-27 0 -42.5 -15t-31.5 -50l-87 46q30 73 68.5 111t96.5 38q10 0 21 -2t19 -4t20.5 -7t17.5 -7.5
t18.5 -9.5t16.5 -8z" />
    <glyph glyph-name="notequal" unicode="&#x2260;" horiz-adv-x="630" 
d="M557 284h-153l-38 -83h191v-121h-248l-67 -145l-115 54l42 91h-95v121h152l38 83h-190v121h247l67 145l115 -54l-42 -91h96v-121z" />
    <glyph glyph-name="equivalence" unicode="&#x2261;" horiz-adv-x="630" 
d="M74 627h483v-127h-483v127zM74 416h483v-127h-483v127zM74 205h483v-128h-483v128z" />
    <glyph glyph-name="lessequal" unicode="&#x2264;" horiz-adv-x="630" 
d="M525 644v-140l-271 -112l271 -112v-140l-438 192v120zM525 106v-106h-438v106h438z" />
    <glyph glyph-name="greaterequal" unicode="&#x2265;" horiz-adv-x="630" 
d="M105 644l438 -192v-120l-438 -192v140l271 112l-271 112v140zM105 106h438v-106h-438v106z" />
    <glyph glyph-name="dotmath" unicode="&#x22c5;" horiz-adv-x="630" 
d="M241 314h148v-144h-148v144z" />
    <glyph glyph-name="uni2300" unicode="&#x2300;" horiz-adv-x="680" 
d="M515 557q49 -40 77 -96.5t28 -120.5q0 -115 -82.5 -197t-197.5 -82q-51 0 -100 19l-60 -103l-75 43l60 104q-48 39 -76 95.5t-28 120.5q0 115 82 197.5t197 82.5q50 0 101 -19l59 102l75 -43zM154 340q0 -80 58 -135l182 314q-27 8 -54 8q-77 0 -131.5 -55t-54.5 -132z
M340 153q77 0 131.5 55t54.5 132q0 80 -58 135l-182 -314q27 -8 54 -8z" />
    <glyph glyph-name="house" unicode="&#x2302;" horiz-adv-x="1000" 
d="M815 -200h-630q-65 0 -100 35t-35 100v630q0 65 35 100t100 35h630q65 0 100 -35t35 -100v-630q0 -65 -35 -100t-100 -35zM473 511q-48 13 -103 13q-68 0 -105.5 -20.5t-37.5 -60.5q0 -21 10 -35.5t31 -23.5t32 -12t35 -8q29 -4 29 -11q0 -8 -41 -8q-50 0 -93 9v-81
q34 -10 121 -10q67 0 97 20t30 62q0 37 -26 52.5t-78 24.5q-3 1 -7.5 1.5t-7 1t-6 1t-5.5 1t-3.5 1.5t-2.5 2.5t-1 3.5q0 6 46 6q55 0 86 -9v80zM770 520h-267v-105h73v-150h119v150h75v105zM503 235h-273v-255h120v49h87v86h-87v31h153v89zM698 101h-122v-121h122v121z" />
    <glyph glyph-name="uni2460" unicode="&#x2460;" horiz-adv-x="796" 
d="M410 688q336 0 336 -336v-24q0 -336 -336 -336h-24q-336 0 -336 336v24q0 336 336 336h24zM398 62q145 0 212 65t67 213t-67 213.5t-212 65.5t-211.5 -65.5t-66.5 -213.5t66.5 -213t211.5 -65zM237 416l112 107h124v-366h-102v259l-64 -65z" />
    <glyph glyph-name="uni2461" unicode="&#x2461;" horiz-adv-x="796" 
d="M410 -8h-24q-336 0 -336 336v24q0 336 336 336h24q336 0 336 -336v-24q0 -336 -336 -336zM398 62q145 0 212 65t67 213t-67 213.5t-212 65.5t-211.5 -65.5t-66.5 -213.5t66.5 -213t211.5 -65zM397 528h15q87 0 121 -25t34 -90v-15q0 -55 -29.5 -79t-101.5 -36
q-65 -11 -78.5 -17t-13.5 -23v-6h222v-80h-323v90q0 50 32.5 72.5t117.5 33.5q46 6 60.5 16.5t14.5 35.5t-13 34t-50 9q-39 0 -52.5 -13t-13.5 -53h-98q0 83 33.5 114.5t122.5 31.5z" />
    <glyph glyph-name="uni2462" unicode="&#x2462;" horiz-adv-x="796" 
d="M410 688q336 0 336 -336v-24q0 -336 -336 -336h-24q-336 0 -336 336v24q0 336 336 336h24zM398 62q145 0 212 65t67 213t-67 213.5t-212 65.5t-211.5 -65.5t-66.5 -213.5t66.5 -213t211.5 -65zM527 347q41 -16 41 -74v-14q0 -57 -37 -81.5t-123 -24.5h-18q-85 0 -120 31
t-35 105h99q0 -33 13 -44.5t54 -11.5q40 0 53 7.5t13 28.5q0 22 -11 29.5t-44 7.5h-39v74h38q29 0 39 6.5t10 25.5q0 20 -12 27.5t-47 7.5q-38 0 -50.5 -10.5t-12.5 -40.5h-100q0 72 35 102t119 30h17q83 0 117.5 -24.5t34.5 -81.5v-14q0 -47 -34 -61z" />
    <glyph glyph-name="uni2463" unicode="&#x2463;" horiz-adv-x="796" 
d="M410 688q336 0 336 -336v-24q0 -336 -336 -336h-24q-336 0 -336 336v24q0 336 336 336h24zM398 62q145 0 212 65t67 213t-67 213.5t-212 65.5t-211.5 -65.5t-66.5 -213.5t66.5 -213t211.5 -65zM516 523v-210h53v-82h-53v-74h-102v74h-212v94l183 198h131zM301 313h113
v121z" />
    <glyph glyph-name="uni2464" unicode="&#x2464;" horiz-adv-x="796" 
d="M410 -8h-24q-336 0 -336 336v24q0 336 336 336h24q336 0 336 -336v-24q0 -336 -336 -336zM398 62q145 0 212 65t67 213t-67 213.5t-212 65.5t-211.5 -65.5t-66.5 -213.5t66.5 -213t211.5 -65zM243 523h315v-80h-214v-49q27 12 59 12h16q87 0 119.5 -26t32.5 -90v-16
q0 -67 -36 -94t-123 -27h-17q-84 0 -119.5 30t-35.5 101h100q0 -29 13.5 -40t51.5 -11t51 10t13 39q0 31 -12.5 40.5t-52.5 9.5q-57 0 -63 -19h-98v210z" />
    <glyph glyph-name="uni2465" unicode="&#x2465;" horiz-adv-x="796" 
d="M410 -8h-24q-336 0 -336 336v24q0 336 336 336h24q336 0 336 -336v-24q0 -336 -336 -336zM398 62q145 0 212 65t67 213t-67 213.5t-212 65.5t-211.5 -65.5t-66.5 -213.5t66.5 -213t211.5 -65zM417 390q82 0 117 -25.5t35 -84.5v-14q0 -61 -37.5 -87t-123.5 -26h-17
q-91 0 -128.5 39.5t-37.5 136.5v19q0 100 37 140t129 40h17q91 0 122 -28.5t32 -85.5h-97q0 18 -12.5 26t-45.5 8q-46 0 -62 -14t-18 -60q30 16 72 16h18zM401 319q-41 0 -57 -10t-16 -34t16 -34t57 -10t57 9.5t16 34.5q0 24 -16 34t-57 10z" />
    <glyph glyph-name="uni2466" unicode="&#x2466;" horiz-adv-x="796" 
d="M410 -8h-24q-336 0 -336 336v24q0 336 336 336h24q336 0 336 -336v-24q0 -336 -336 -336zM398 62q145 0 212 65t67 213t-67 213.5t-212 65.5t-211.5 -65.5t-66.5 -213.5t66.5 -213t211.5 -65zM564 426l-173 -269h-122l183 284h-208v82h320v-97z" />
    <glyph glyph-name="uni2467" unicode="&#x2467;" horiz-adv-x="796" 
d="M410 -8h-24q-336 0 -336 336v24q0 336 336 336h24q336 0 336 -336v-24q0 -336 -336 -336zM398 62q145 0 212 65t67 213t-67 213.5t-212 65.5t-211.5 -65.5t-66.5 -213.5t66.5 -213t211.5 -65zM389 528h18q82 0 116 -24t34 -80v-13q0 -52 -39 -65q46 -13 46 -76v-14
q0 -55 -36.5 -79t-121.5 -24h-15q-85 0 -122 24t-37 79v14q0 63 47 76q-40 13 -40 65v13q0 56 34.5 80t115.5 24zM398 448q-35 0 -46.5 -7t-11.5 -28t12 -28t46 -7q35 0 47 7t12 28t-12 28t-47 7zM398 308q-39 0 -52 -7.5t-13 -31.5q0 -22 12.5 -29.5t52.5 -7.5t52.5 7.5
t12.5 29.5q0 24 -13 31.5t-52 7.5z" />
    <glyph glyph-name="uni2468" unicode="&#x2468;" horiz-adv-x="796" 
d="M410 -8h-24q-336 0 -336 336v24q0 336 336 336h24q336 0 336 -336v-24q0 -336 -336 -336zM398 62q145 0 212 65t67 213t-67 213.5t-212 65.5t-211.5 -65.5t-66.5 -213.5t66.5 -213t211.5 -65zM379 290q-82 0 -117 25.5t-35 84.5v14q0 61 37.5 87t123.5 26h17
q91 0 128.5 -39.5t37.5 -136.5v-18q0 -101 -37 -141t-129 -40h-17q-91 0 -122 28.5t-32 85.5h97q0 -18 12.5 -26t45.5 -8q46 0 62 14t18 60q-30 -16 -72 -16h-18zM395 361q41 0 57 10t16 34t-16 34t-57 10t-57 -9.5t-16 -34.5q0 -24 16 -34t57 -10z" />
    <glyph glyph-name="uni24EA" unicode="&#x24ea;" horiz-adv-x="796" 
d="M410 -8h-24q-336 0 -336 336v24q0 336 336 336h24q336 0 336 -336v-24q0 -336 -336 -336zM398 62q145 0 212 65t67 213t-67 213.5t-212 65.5t-211.5 -65.5t-66.5 -213.5t66.5 -213t211.5 -65zM389 529h18q93 0 131 -40t38 -139v-20q0 -98 -37.5 -137.5t-131.5 -39.5h-18
q-93 0 -130.5 39.5t-37.5 137.5v20q0 98 37.5 138.5t130.5 40.5zM398 444q-46 0 -60.5 -20t-13.5 -84q1 -65 15 -84.5t59 -19.5q46 0 60 19.5t15 84.5q1 64 -14 84t-61 20z" />
    <glyph glyph-name="uni24FF" unicode="&#x24ff;" horiz-adv-x="796" 
d="M410 -8h-24q-336 0 -336 336v24q0 336 336 336h24q336 0 336 -336v-24q0 -336 -336 -336zM389 528q-93 0 -130.5 -40t-37.5 -138v-20q0 -98 37.5 -137.5t130.5 -39.5h18q94 0 131.5 39.5t37.5 137.5v20q0 98 -37.5 138t-131.5 40h-18zM398 444q46 0 61 -20t14 -84
q-1 -65 -15 -84.5t-60 -19.5q-45 0 -59 19.5t-15 84.5q-1 64 13.5 84t60.5 20z" />
    <glyph glyph-name="filledbox" unicode="&#x25a0;" horiz-adv-x="680" 
d="M0 680h680v-680h-680v680z" />
    <glyph glyph-name="uni25A1" unicode="&#x25a1;" horiz-adv-x="680" 
d="M0 0v680h680v-680h-680zM579 579h-478v-478h478v478z" />
    <glyph glyph-name="filledrect" unicode="&#x25ac;" horiz-adv-x="680" 
d="M680 0h-680v340h680v-340z" />
    <glyph glyph-name="uni25AE" unicode="&#x25ae;" horiz-adv-x="680" 
d="M160 0v680h360v-680h-360z" />
    <glyph glyph-name="uni25AF" unicode="&#x25af;" horiz-adv-x="680" 
d="M340 596q106 0 181 -75t75 -181t-75 -181t-181 -75t-181 75t-75 181t75 181t181 75z" />
    <glyph glyph-name="triagup" unicode="&#x25b2;" horiz-adv-x="680" 
d="M632 75h-584l292 546z" />
    <glyph glyph-name="uni25B3" unicode="&#x25b3;" horiz-adv-x="680" 
d="M632 75h-584l292 546zM497 156l-157 294l-157 -294h314z" />
    <glyph glyph-name="uni25B4" unicode="&#x25b4;" horiz-adv-x="500" 
d="M250 548l216 -404h-432z" />
    <glyph glyph-name="uni25B5" unicode="&#x25b5;" horiz-adv-x="500" 
d="M466 144h-432l216 404zM249 413l-109 -205h218z" />
    <glyph glyph-name="uni25B8" unicode="&#x25b8;" horiz-adv-x="500" 
d="M464 340l-404 -217v433z" />
    <glyph glyph-name="uni25B9" unicode="&#x25b9;" horiz-adv-x="500" 
d="M60 124v432l404 -216zM329 341l-205 109v-218z" />
    <glyph glyph-name="triagrt" unicode="&#x25ba;" horiz-adv-x="680" 
d="M650 340l-590 -197v393z" />
    <glyph glyph-name="triagdn" unicode="&#x25bc;" horiz-adv-x="680" 
d="M48 605h584l-292 -546z" />
    <glyph glyph-name="uni25BD" unicode="&#x25bd;" horiz-adv-x="680" 
d="M48 606h584l-292 -546zM183 525l157 -295l157 295h-314z" />
    <glyph glyph-name="uni25BE" unicode="&#x25be;" horiz-adv-x="500" 
d="M250 132l-216 404h432z" />
    <glyph glyph-name="uni25BF" unicode="&#x25bf;" horiz-adv-x="500" 
d="M34 534h432l-216 -404zM251 265l109 205h-218z" />
    <glyph glyph-name="uni25C2" unicode="&#x25c2;" horiz-adv-x="500" 
d="M36 340l404 216v-433z" />
    <glyph glyph-name="uni25C3" unicode="&#x25c3;" horiz-adv-x="500" 
d="M440 556v-432l-404 216zM171 339l205 -109v218z" />
    <glyph glyph-name="triaglf" unicode="&#x25c4;" horiz-adv-x="680" 
d="M30 339l590 197v-393z" />
    <glyph glyph-name="uni25C6" unicode="&#x25c6;" horiz-adv-x="680" 
d="M30 340l310 310l310 -310l-310 -310z" />
    <glyph glyph-name="uni25C7" unicode="&#x25c7;" horiz-adv-x="680" 
d="M30 340l310 310l310 -310l-310 -310zM144 340l196 -196l196 196l-196 196z" />
    <glyph glyph-name="lozenge" unicode="&#x25ca;" horiz-adv-x="680" 
d="M340 -19l-280 359l280 359l280 -359zM340 507l-127 -167l127 -167l127 167z" />
    <glyph glyph-name="circle" unicode="&#x25cb;" horiz-adv-x="680" 
d="M340 613q112 0 192.5 -80.5t80.5 -192.5t-80.5 -192.5t-192.5 -80.5t-192.5 80.5t-80.5 192.5t80.5 192.5t192.5 80.5zM340 164q73 0 124 51.5t51 124.5t-51 124.5t-124 51.5t-124 -51.5t-51 -124.5t51 -124.5t124 -51.5z" />
    <glyph glyph-name="uni25CF" unicode="&#x25cf;" horiz-adv-x="680" 
d="M340 596q106 0 181 -75t75 -181t-75 -181t-181 -75t-181 75t-75 181t75 181t181 75z" />
    <glyph glyph-name="uni25D0" unicode="&#x25d0;" horiz-adv-x="680" 
d="M340 613q112 0 192.5 -80.5t80.5 -192.5t-80.5 -192.5t-192.5 -80.5t-192.5 80.5t-80.5 192.5t80.5 192.5t192.5 80.5zM340 164q73 0 124 51.5t51 124.5t-51 124.5t-124 51.5v-352z" />
    <glyph glyph-name="uni25D6" unicode="&#x25d6;" horiz-adv-x="680" 
d="M456 596v-512q-106 0 -181 75t-75 181t75 181t181 75z" />
    <glyph glyph-name="invbullet" unicode="&#x25d8;" horiz-adv-x="680" 
d="M0 680h680v-680h-680v680zM340 505q-71 0 -119 -46.5t-48 -116.5q0 -72 47.5 -118.5t119.5 -46.5t119.5 46.5t47.5 118.5q0 70 -48 116.5t-119 46.5z" />
    <glyph glyph-name="invcircle" unicode="&#x25d9;" horiz-adv-x="680" 
d="M0 680h680v-680h-680v680zM340 613q-112 0 -192.5 -80.5t-80.5 -192.5t80.5 -192.5t192.5 -80.5t192.5 80.5t80.5 192.5t-80.5 192.5t-192.5 80.5zM340 164q-73 0 -124 51.5t-51 124.5t51 124.5t124 51.5t124 -51.5t51 -124.5t-51 -124.5t-124 -51.5z" />
    <glyph glyph-name="openbullet" unicode="&#x25e6;" horiz-adv-x="500" 
d="M250 395q67 0 111 -43.5t44 -108.5q0 -67 -44 -110.5t-111 -43.5t-111 43.5t-44 110.5q0 65 44 108.5t111 43.5zM250 314q-31 0 -52 -20.5t-21 -50.5q0 -31 21 -51.5t52 -20.5t52 20.5t21 51.5q0 30 -21 50.5t-52 20.5z" />
    <glyph glyph-name="uni25E7" unicode="&#x25e7;" horiz-adv-x="680" 
d="M0 680h680v-680h-680v680zM340 579v-478h239v478h-239z" />
    <glyph glyph-name="uni2610" unicode="&#x2610;" horiz-adv-x="680" 
d="M92 588h496v-496h-496v496zM175 505v-330h330v330h-330z" />
    <glyph glyph-name="uni2611" unicode="&#x2611;" horiz-adv-x="680" 
d="M0 680h680v-680h-680v680zM579 101v478h-478v-478h478zM284 177l-136 157l83 71l91 -104l118 223l96 -54l-157 -293h-95z" />
    <glyph glyph-name="uni2612" unicode="&#x2612;" horiz-adv-x="680" 
d="M0 680h680v-680h-680v680zM579 101v478h-478v-478h478zM234 156l-76 76l108 108l-108 108l76 76l108 -108l108 108l76 -76l-108 -108l108 -108l-76 -76l-108 108z" />
    <glyph glyph-name="uni2713" unicode="&#x2713;" horiz-adv-x="680" 
d="M237 21l-213 253l89 77l166 -198l278 519l103 -58l-321 -593h-102z" />
    <glyph glyph-name="uni2715" unicode="&#x2715;" horiz-adv-x="680" 
d="M668 581l-241 -241l241 -241l-87 -87l-241 241l-241 -241l-87 87l241 241l-241 241l87 87l241 -241l241 241z" />
    <glyph glyph-name="uni2717" unicode="&#x2717;" horiz-adv-x="680" 
d="M668 581l-241 -241l241 -241l-87 -87l-241 241l-241 -241l-87 87l241 241l-241 241l87 87l241 -241l241 241z" />
    <glyph glyph-name="uni278A" unicode="&#x278a;" horiz-adv-x="796" 
d="M386 688h24q336 0 336 -336v-24q0 -336 -336 -336h-24q-336 0 -336 336v24q0 336 336 336zM473 523h-124l-112 -107l70 -65l64 64v-258h102v366z" />
    <glyph glyph-name="uni278B" unicode="&#x278b;" horiz-adv-x="796" 
d="M386 688h24q336 0 336 -336v-24q0 -336 -336 -336h-24q-336 0 -336 336v24q0 336 336 336zM397 528q-89 0 -122.5 -31.5t-33.5 -114.5h98q0 40 13.5 53t52.5 13q37 0 50 -9t13 -34t-14.5 -35.5t-60.5 -16.5q-85 -11 -117.5 -33.5t-32.5 -72.5v-90h323v80h-222v6
q0 17 13.5 23t78.5 17q72 12 101.5 36t29.5 79v15q0 65 -34 90t-121 25h-15z" />
    <glyph glyph-name="uni278C" unicode="&#x278c;" horiz-adv-x="796" 
d="M386 688h24q336 0 336 -336v-24q0 -336 -336 -336h-24q-336 0 -336 336v24q0 336 336 336zM392 528q-84 0 -119 -30t-35 -102h100q0 30 12.5 40.5t50.5 10.5q35 0 47 -7.5t12 -27.5q0 -19 -10 -25.5t-39 -6.5h-38v-74h39q33 0 44 -7.5t11 -29.5q0 -21 -13 -28.5t-53 -7.5
q-41 0 -54 11.5t-13 44.5h-99q0 -74 35 -105t120 -31h18q86 0 123 24.5t37 81.5v14q0 59 -41 74q34 14 34 61v14q0 57 -34.5 81.5t-117.5 24.5h-17z" />
    <glyph glyph-name="uni278D" unicode="&#x278d;" horiz-adv-x="796" 
d="M386 688h24q336 0 336 -336v-24q0 -336 -336 -336h-24q-336 0 -336 336v24q0 336 336 336zM567 313h-53v210h-131l-183 -198v-94h212v-74h102v74h53v82zM299 313l113 122v-122h-113z" />
    <glyph glyph-name="uni278E" unicode="&#x278e;" horiz-adv-x="796" 
d="M386 688h24q336 0 336 -336v-24q0 -336 -336 -336h-24q-336 0 -336 336v24q0 336 336 336zM243 523v-210h98q6 19 63 19q40 0 52.5 -9.5t12.5 -40.5q0 -29 -13 -39t-51 -10t-51.5 11t-13.5 40h-100q0 -71 35.5 -101t119.5 -30h17q87 0 123 27t36 94v16q0 64 -32.5 90
t-119.5 26h-16q-32 0 -59 -12v49h214v80h-315z" />
    <glyph glyph-name="uni278F" unicode="&#x278f;" horiz-adv-x="796" 
d="M386 688h24q336 0 336 -336v-24q0 -336 -336 -336h-24q-336 0 -336 336v24q0 336 336 336zM417 390h-18q-42 0 -72 -16q2 46 18 60t62 14q33 0 45.5 -8t12.5 -26h97q-1 57 -32 85.5t-122 28.5h-17q-92 0 -129 -40t-37 -140v-19q0 -97 37.5 -136.5t128.5 -39.5h17
q86 0 123.5 26t37.5 87v14q0 59 -35 84.5t-117 25.5zM401 319q41 0 57 -10t16 -34q0 -25 -16 -34.5t-57 -9.5t-57 10t-16 34t16 34t57 10z" />
    <glyph glyph-name="uni2790" unicode="&#x2790;" horiz-adv-x="796" 
d="M386 688h24q336 0 336 -336v-24q0 -336 -336 -336h-24q-336 0 -336 336v24q0 336 336 336zM564 426v97h-320v-82h208l-183 -284h122z" />
    <glyph glyph-name="uni2791" unicode="&#x2791;" horiz-adv-x="796" 
d="M386 688h24q336 0 336 -336v-24q0 -336 -336 -336h-24q-336 0 -336 336v24q0 336 336 336zM389 528q-81 0 -115.5 -24t-34.5 -80v-13q0 -52 40 -65q-47 -13 -47 -76v-14q0 -55 37 -79t122 -24h15q85 0 121.5 24t36.5 79v14q0 63 -46 76q39 13 39 65v13q0 56 -34 80
t-116 24h-18zM398 448q35 0 47 -7t12 -28t-12 -28t-47 -7q-34 0 -46 7t-12 28t11.5 28t46.5 7zM398 308q39 0 52 -7.5t13 -31.5q0 -22 -12.5 -29.5t-52.5 -7.5t-52.5 7.5t-12.5 29.5q0 24 13 31.5t52 7.5z" />
    <glyph glyph-name="uni2792" unicode="&#x2792;" horiz-adv-x="796" 
d="M410 -8h-24q-336 0 -336 336v24q0 336 336 336h24q336 0 336 -336v-24q0 -336 -336 -336zM379 290h18q42 0 72 16q-2 -46 -18 -60t-62 -14q-33 0 -45.5 8t-12.5 26h-97q1 -57 32 -85.5t122 -28.5h17q92 0 129 40t37 141v18q0 97 -37.5 136.5t-128.5 39.5h-17
q-86 0 -123.5 -26t-37.5 -87v-14q0 -59 35 -84.5t117 -25.5zM395 361q-41 0 -57 10t-16 34q0 25 16 34.5t57 9.5t57 -10t16 -34t-16 -34t-57 -10z" />
    <glyph glyph-name="uni2E17" unicode="&#x2e17;" horiz-adv-x="630" 
d="M74 305l483 200v-121l-483 -200v121zM74 101l483 200v-121l-483 -200v121z" />
    <glyph glyph-name="uni2E38" unicode="&#x2e38;" horiz-adv-x="630" 
d="M567 123v-118h-180v-195h-144v195h-180v118h180v557h144v-557h180z" />
    <glyph glyph-name="uniFEFF" unicode="&#xfeff;" 
 />
    <glyph glyph-name="Iacute_J.loclNLD" horiz-adv-x="902" 
d="M290 255h157v-17q0 -63 25 -85.5t98 -22.5t99 24.5t26 92.5v433h156v-456q0 -119 -64.5 -175t-205.5 -56h-25q-141 0 -203.5 55.5t-62.5 175.5v31zM210 680v-680h-156v680h156zM871 906l48 -101l-212 -80l-31 65zM231 906l48 -101l-212 -80l-31 65z" />
    <glyph glyph-name="J.latn_NLD.case" horiz-adv-x="637" 
d="M25 224v31h157v-17q0 -63 25 -85.5t98 -22.5t99 24.5t26 92.5v433h156v-456q0 -119 -64.5 -175t-205.5 -56h-25q-141 0 -203.5 55.5t-62.5 175.5zM607 906l48 -101l-212 -80l-31 65z" />
    <glyph glyph-name="Z.ss01" horiz-adv-x="665" 
d="M39 148l131 132h-89v120h209l147 148h-391v132h575v-148l-131 -132h90v-120h-210l-147 -148h401v-132h-585v148z" />
    <glyph glyph-name="Zacute.ss01" horiz-adv-x="665" 
d="M39 148l131 132h-89v120h209l147 148h-391v132h575v-148l-131 -132h90v-120h-210l-147 -148h401v-132h-585v148zM234 790l195 116l48 -101l-212 -80z" />
    <glyph glyph-name="Zcaron.ss01" horiz-adv-x="665" 
d="M39 148l131 132h-89v120h209l147 148h-391v132h575v-148l-131 -132h90v-120h-210l-147 -148h401v-132h-585v148zM160 842l39 57l130 -71l131 71l39 -57l-146 -114h-47z" />
    <glyph glyph-name="Zdotaccent.ss01" horiz-adv-x="665" 
d="M39 148l131 132h-89v120h209l147 148h-391v132h575v-148l-131 -132h90v-120h-210l-147 -148h401v-132h-585v148zM407 868v-125h-154v125h154z" />
    <glyph glyph-name="uni1E92.ss01" horiz-adv-x="665" 
d="M170 280h-89v120h209l147 148h-391v132h575v-148l-131 -132h90v-120h-210l-147 -148h401v-132h-585v148zM257 -175v120h146v-120h-146z" />
    <glyph glyph-name="uni1E94.ss01" horiz-adv-x="665" 
d="M170 280h-89v120h209l147 148h-391v132h575v-148l-131 -132h90v-120h-210l-147 -148h401v-132h-585v148zM172 -65h316v-96h-316v96z" />
    <glyph glyph-name="i.loclTRK" horiz-adv-x="240" 
d="M193 485v-485h-146v485h146zM47 669h146v-121h-146v121z" />
    <glyph glyph-name="uni1E96.case" horiz-adv-x="733" 
d="M54 0v680h156v-268h313v268h156v-680h-156v278h-313v-278h-156zM526 -65v-96h-316v96h316z" />
    <glyph glyph-name="iacute_j.loclNLD" horiz-adv-x="497" 
d="M264 -66q24 0 32 8.5t8 37.5v505h146v-523q0 -93 -31.5 -125t-115.5 -32q-52 0 -77 5v126q20 -2 38 -2zM193 485v-485h-146v485h146zM281 595l195 116l48 -101l-212 -80zM219 711l48 -101l-212 -80l-31 65z" />
    <glyph glyph-name="j.latn_NLD" horiz-adv-x="240" 
d="M-31 -64q20 -2 38 -2q24 0 32 8.5t8 37.5v505h146v-523q0 -93 -31.5 -125t-115.5 -32q-52 0 -77 5v126zM219 711l48 -101l-212 -80l-31 65z" />
    <glyph glyph-name="a.ss02" horiz-adv-x="580" 
d="M31 161q0 75 55 106.5t185 31.5h13q72 -1 107 -17v24q0 47 -21.5 63t-84.5 16q-56 0 -77 -11t-22 -39h-142q1 87 52.5 122t179.5 35h21q130 0 185 -42.5t55 -141.5v-133q0 -104 -51.5 -143t-190.5 -39h-23q-131 0 -186 33.5t-55 114.5v20zM196 110q21 -11 87 -11t87 10.5
t21 41.5t-21 41.5t-87 10.5t-87.5 -10.5t-21.5 -41.5t22 -41z" />
    </font>
</defs>
</svg>
